<svg width="124" height="125" fill="none" xmlns="http://www.w3.org/2000/svg"><path d="m63.591 80.434.393-5.498 4.79-2.733A60.163 60.163 0 0 0 81.338 62.5c13.64-13.645 17.804-29.688 12.787-34.71-5.022-5.011-21.064-.857-34.71 12.788-3.926 3.927-7.217 8.215-9.702 12.565l-2.739 4.79-5.492.392a20.527 20.527 0 0 0-12.167 5.105 56.752 56.752 0 0 1 17.313 11.858A56.847 56.847 0 0 1 58.487 92.6a20.527 20.527 0 0 0 5.104-12.167ZM48.231 95.05a34.55 34.55 0 0 1-3.426 3.984c-6.055 6.055-15.19 7.879-27.404 5.476-2.397-12.209-.568-21.343 5.477-27.398a35.424 35.424 0 0 1 3.989-3.426 46.373 46.373 0 0 0-13.423-4.185c1.5-4.71 4.11-8.991 7.61-12.483a30.881 30.881 0 0 1 19.685-8.995 70.456 70.456 0 0 1 11.367-14.75c17.153-17.154 39.235-22.874 49.326-12.788 10.085 10.09 4.361 32.173-12.788 49.32a70.455 70.455 0 0 1-14.75 11.367 30.883 30.883 0 0 1-8.996 19.686 30.768 30.768 0 0 1-12.482 7.615A46.372 46.372 0 0 0 48.23 95.05ZM39.318 82.6a13.436 13.436 0 0 0-2.79-2.145c-2.232.775-4.856 2.48-7.259 4.878-1.131 1.136-2.516 4.955-2.532 9.842 4.888-.015 8.722-1.416 9.843-2.532 2.402-2.407 4.107-5.027 4.877-7.259a13.432 13.432 0 0 0-2.139-2.79v.005Zm40.187-40.197a5.168 5.168 0 1 1 7.305-7.3 5.167 5.167 0 0 1-7.295 7.3h-.01Z" fill="#C1C7CD"/></svg>