<svg width="32" height="32" fill="none" xmlns="http://www.w3.org/2000/svg"><path fill-rule="evenodd" clip-rule="evenodd" d="m.72 16.348.002-.16.003-.16.005-.16.007-.161.008-.16.01-.161.011-.16.013-.16.015-.161.016-.16.018-.16.02-.16.021-.16.023-.16.025-.16.026-.159.028-.159.03-.159.03-.158.033-.159.035-.158.036-.158.038-.158.039-.157.041-.157.043-.157.044-.156.046-.156.047-.155.05-.155.05-.155.052-.155.054-.153.056-.154.057-.153.058-.152.06-.152.062-.151.064-.15.065-.151.066-.15.069-.149.07-.148.07-.148.073-.147.074-.147.076-.146.078-.145.079-.144.08-.144.082-.143.083-.142.085-.142.086-.14.088-.14.09-.14.09-.138.092-.137.094-.137.095-.136.097-.135.098-.133.099-.134.1-.132.103-.13.103-.131.105-.13.107-.128.107-.127.11-.126.11-.126.111-.124.113-.123.114-.122.116-.121.117-.12.118-.12.12-.117.12-.117.122-.115.123-.114.124-.114.126-.112.126-.11.128-.11.13-.109.13-.107.131-.106.133-.104.133-.104.135-.102.136-.101.137-.1.138-.098.139-.097.14-.095.141-.095.142-.093.144-.091.144-.09.145-.09.146-.087.147-.086.148-.085.15-.083.149-.082.15-.08.152-.08.153-.077.153-.076.154-.074.155-.073.156-.072.157-.07.157-.068.158-.067.16-.066.159-.064.16-.062.161-.061.162-.06.162-.057.163-.056.164-.055.164-.053.165-.052.165-.05.166-.048.167-.046.167-.045.168-.044.168-.041.169-.04.169-.04.17-.036.17-.035.17-.034.17-.032.172-.03.172-.028.172-.027.172-.026.173-.023.173-.022.173-.02.174-.019.173-.016.174-.015.175-.014.174-.011.938-.054.053 4.519H17.98l.129.003.13.003.129.005.13.007.13.007.129.009.13.01.13.011.129.013.13.014.129.015.129.016.13.018.128.019.13.02.128.021.129.023.128.024.129.026.128.026.128.028.128.03.127.03.127.031.127.033.127.035.126.035.126.037.126.038.126.04.125.04.125.041.124.043.124.045.123.045.124.047.122.048.123.049.122.05.121.052.121.053.12.054.12.055.12.057.12.057.118.06.118.06.117.06.117.063.116.064.116.065.115.066.114.067.114.068.113.07.113.07.111.072.111.073.11.074.11.075.11.076.108.077.107.079.107.08.106.08.105.081.105.083.104.084.102.085.102.086.102.087.1.088.1.089.098.09.098.091.097.092.096.093.095.094.094.095.093.096.093.097.09.098.091.1.09.099.088.1.087.102.087.103.085.103.085.105.083.105.082.106.082.107.08.108.079.108.078.11.077.11.076.111.075.112.073.113.073.114.071.114.07.115.07.115.068.117.067.117.065.118.065.119.063.119.062.12.06.12.06.122.06.122.056.123.056.123.055.123.054.125.052.125.051.126.05.126.048.126.047.128.046.127.045.129.043.128.042.13.041.13.04.13.038.13.036.131.036.132.034.132.033.132.031.133.03.133.03.133.027.134.026.134.024.134.023.135.023.135.02.135.02.136.017.135.016.137.015.136.014.136.012.137.011.137.01.137.008.137.006.137.005.138.004.137.003.138v.276l-.002.138-.003.138-.005.137-.005.139-.008.137-.009.139-.01.137-.012.138-.013.138-.015.138-.016.138-.017.138-.02.137-.02.138-.021.137-.023.137-.025.137-.026.137-.027.136-.029.137-.03.136-.032.136-.033.136-.034.135-.036.135-.037.135-.039.135-.04.134-.041.134-.043.133-.044.134-.046.132-.047.133-.048.132-.05.132-.051.13-.053.132-.053.13-.056.13-.056.13-.058.128-.06.128-.06.128-.062.128-.063.126-.065.126-.066.126-.067.125-.069.125-.07.123-.07.123-.073.123-.074.122-.075.121-.077.12-.077.12-.079.12-.08.118-.081.118-.083.117-.084.116-.085.115-.086.115-.088.114-.088.113-.09.112-.092.111-.092.11-.093.11-.095.11-.096.107-.097.107-.098.106-.1.106-.1.104-.101.103-.103.103-.103.101-.105.1-.106.1-.107.099-.108.097-.109.096-.11.096-.11.094-.113.094-.113.092-.114.091-.115.09-.116.09-.117.087-.118.087-.12.086-.12.085-.12.083-.122.082-.122.081-.124.08-.124.08-.125.077-.126.076-.127.076-.128.074-.129.073-.129.071-.13.07-.131.07-.132.067-.132.067-.133.065-.134.064-.135.063-.135.061-.136.06-.137.06-.137.057-.138.056-.14.055-.138.054-.14.052-.14.05-.142.05-.142.048-.142.047-.142.045-.144.044-.143.043-.145.041-.145.04-.145.039-.146.037-.145.035-.147.034-.147.033-.148.032-.147.03-.148.028-.149.027-.149.025-.149.025-.15.022-.15.022-.15.02-.15.018-.15.016-.15.016-.152.014-.151.012-.152.011-.151.01-.152.008-.152.006-.152.005-.152.003-.152.002-.153.001-.152-.001-.153-.002-.152-.004-.153-.006-.152-.007-.153-.008-.152-.01-.153-.012-.152-.013-.153-.014-.152-.016-.152-.017-.152-.02-.152-.02-.152-.022-.152-.023-.151-.025-.152-.027-.15-.028-.152-.03-.15-.03-.15-.032-.15-.034-.15-.036-.15-.037-.15-.038-.148-.04-.148-.041-.149-.043-.147-.044-.148-.046-.147-.047-.146-.049-.146-.05-.146-.052-.145-.053-.145-.054-.144-.056-.144-.057-.143-.06-.143-.06-.142-.061-.141-.063-.141-.064-.14-.066-.14-.068-.14-.068-.138-.07-.138-.072-.137-.073-.136-.074-.136-.076-.135-.077-.134-.078-.134-.08-.132-.08-.132-.083-.131-.083-.13-.085-.13-.087-.13-.087-.127-.09-.127-.09-.126-.091-.125-.093-.125-.094-.123-.095-.123-.097-.121-.097-.121-.1-.12-.1-.118-.101-.118-.103-.117-.104-.115-.105-.115-.106-.114-.107-.112-.109-.112-.11-.11-.11-.11-.112-.108-.113L4.874 27l-.106-.116-.105-.116-.103-.118-.103-.118-.101-.12-.1-.12-.1-.122-.097-.123-.097-.123-.095-.125-.094-.126-.093-.126-.091-.128-.09-.128-.09-.13-.087-.13-.087-.132-.085-.132-.084-.133-.082-.134-.081-.135-.08-.135-.079-.137-.077-.137-.075-.138-.075-.14-.072-.14-.072-.14-.07-.141-.069-.142-.067-.143-.066-.143-.064-.144-.063-.145-.061-.146-.06-.146-.059-.147-.057-.147-.055-.149-.054-.148-.053-.15-.05-.15-.05-.15-.048-.15-.047-.152-.045-.152-.043-.153-.042-.153-.04-.153-.039-.154-.037-.155-.036-.154-.034-.156-.032-.155-.03-.156-.03-.157-.028-.156-.026-.157-.024-.158-.023-.157-.022-.158-.02-.159-.017-.158-.017-.159-.014-.159-.014-.159-.011-.16-.01-.159-.008-.16-.007-.16-.005-.16-.003-.16-.002-.16v-.16ZM16.224 4.614l-.036-3.08-.035.003-.159.017-.159.018-.158.02-.158.022-.158.023-.157.024-.158.027-.156.027-.157.03-.156.03-.155.032-.156.034-.155.035-.154.037-.154.038-.153.04-.153.041-.153.043-.152.044-.152.046-.15.047-.15.048-.15.05-.15.052-.148.053-.148.054-.148.056-.146.057-.146.058-.145.06-.145.061-.144.063-.143.064-.143.066-.142.067-.14.068-.14.07-.14.07-.139.072-.138.074-.137.075-.136.076-.135.077-.135.079-.134.08-.132.081-.132.082-.13.084-.13.085-.13.087-.128.087-.127.089-.126.09-.125.09-.124.093-.124.093-.122.094-.12.096-.12.097-.12.098-.118.099-.117.1-.115.101-.115.103-.114.103-.112.105-.111.105-.11.107-.11.107-.107.109-.107.11-.106.11-.104.111-.103.113-.102.114-.1.114-.1.115-.099.116-.097.118-.095.118-.095.119-.093.12-.092.12-.09.121-.09.123-.088.123-.087.124-.086.124-.084.126-.083.126-.081.127-.08.128-.079.128-.077.129-.077.13-.074.13-.074.131-.071.132-.071.133-.07.133-.067.133-.066.135-.065.134-.064.136-.062.136-.06.136-.06.137-.058.138-.056.138-.055.138-.054.139-.052.14-.05.14-.05.14-.047.14-.046.141-.045.142-.043.141-.042.143-.04.142-.04.143-.036.143-.036.143-.035.144-.033.144-.031.144-.03.144-.028.145-.027.145-.026.145-.023.145-.023.145-.02.146-.02.145-.018.146-.017.146-.014.146-.014.145-.012.146-.01.146-.01.146-.006.146-.006.147-.005.146-.003.146-.001.146v.145l.002.146.003.146.004.145.006.146.008.145.009.145.01.145.012.145.014.145.015.144.016.145.018.144.02.143.02.144.023.143.023.143.025.142.027.143.028.141.03.142.03.141.033.14.034.141.035.14.036.14.038.139.04.139.04.138.043.138.044.137.045.137.046.136.048.136.049.135.05.134.052.134.053.134.055.133.056.132.057.131.058.132.06.13.061.13.062.129.064.128.065.128.066.127.068.126.068.125.07.125.072.124.072.123.074.123.075.122.076.12.077.12.078.12.08.118.08.118.083.116.083.116.084.115.086.114.086.113.088.113.089.11.09.111.09.11.092.108.093.108.094.106.096.106.096.104.097.104.098.103.1.101.1.1.1.1.103.099.103.097.104.096.104.096.106.094.107.093.108.092.108.09.11.09.11.09.11.087.113.086.113.085.113.085.114.082.116.082.115.08.117.08.117.078.119.077.119.076.12.075.12.073.12.072.122.071.122.07.123.068.124.068.124.066.125.064.125.064.126.062.127.061.127.06.127.058.128.057.129.056.13.054.129.054.13.052.13.05.132.05.13.048.133.046.132.046.133.044.133.042.133.042.134.04.134.038.134.038.135.036.135.035.135.033.136.032.136.03.135.03.137.028.136.027.137.025.136.024.138.022.137.022.137.02.137.018.138.017.137.016.138.014.138.013.138.012.138.01.137.01.138.007.138.006.138.005.138.004.138.002.137.001h.138l.138-.002.137-.003.137-.005.138-.006.137-.007.137-.009.136-.01.137-.01.136-.013.137-.014.136-.015.135-.017.136-.018.135-.019.135-.02.135-.022.134-.023.134-.025.134-.025.133-.027.133-.029.133-.03.132-.03.132-.032.131-.034.131-.034.131-.036.13-.037.13-.039.13-.04.128-.04.128-.043.128-.043.127-.045.127-.046.126-.047.126-.048.125-.05.124-.05.124-.052.123-.053.123-.054.122-.056.121-.056.121-.058.12-.059.12-.06.118-.06.118-.063.117-.064.117-.064.116-.066.115-.066.114-.068.114-.069.113-.07.112-.07.11-.073.111-.073.11-.074.109-.075.107-.077.108-.077.106-.078.105-.08.105-.08.104-.08.102-.083.102-.083.1-.084.1-.085.1-.086.098-.087.097-.087.096-.089.096-.09.094-.09.093-.091.093-.092.09-.093.091-.094.09-.095.088-.095.087-.096.086-.097.085-.098.084-.099.083-.1.082-.1.08-.1.08-.102.08-.102.077-.103.077-.104.075-.104.074-.106.073-.105.072-.107.071-.107.07-.107.069-.109.067-.109.066-.11.065-.11.064-.11.063-.111.062-.112.06-.112.06-.113.057-.114.057-.113.056-.115.054-.114.053-.116.052-.115.051-.116.05-.117.048-.117.047-.117.046-.118.045-.118.043-.119.042-.119.041-.119.04-.12.038-.12.038-.12.035-.12.035-.12.034-.122.032-.121.03-.121.03-.122.028-.122.028-.122.026-.123.024-.122.023-.123.022-.122.021-.123.02-.123.018-.124.017-.123.015-.123.015-.124.013-.123.011-.124.01-.123.01-.124.008-.123.007-.124.005-.124.005-.124.003-.123.001-.124v-.247l-.003-.123-.003-.123-.005-.123-.006-.123-.007-.123-.008-.123-.01-.122-.011-.123-.012-.122-.014-.122-.014-.121-.016-.122-.017-.121-.019-.121-.02-.121-.02-.12-.022-.12-.024-.12-.024-.12-.026-.12-.027-.119-.028-.118-.03-.119-.03-.118-.031-.117-.033-.117-.034-.117-.036-.117-.036-.115-.038-.116-.038-.115-.04-.115-.041-.114-.043-.114-.043-.113-.044-.113-.046-.112-.047-.111-.047-.112-.05-.11-.05-.11-.05-.11-.053-.109-.053-.108-.055-.108-.055-.107-.057-.107-.057-.106-.059-.105-.06-.104-.06-.104-.062-.104-.062-.102-.064-.102-.065-.102-.066-.1-.067-.1-.067-.1-.069-.098-.07-.097-.07-.097-.072-.096-.072-.096-.074-.095-.074-.093-.075-.093-.076-.093-.077-.091-.079-.09-.078-.09-.08-.09-.08-.088-.082-.087-.082-.086-.083-.086-.084-.085-.085-.084-.085-.083-.087-.082-.087-.08-.088-.081-.088-.08-.09-.078-.09-.077-.09-.077-.093-.076-.092-.074-.093-.074-.093-.073-.095-.071-.095-.071-.096-.07-.096-.069-.097-.068-.098-.067-.098-.066-.099-.064-.1-.064-.1-.063-.1-.062-.102-.06-.101-.06-.102-.059-.104-.058-.103-.056-.104-.056-.104-.054-.105-.054-.105-.052-.106-.051-.106-.05-.107-.05-.107-.048-.108-.047-.111-.047-.105-.043-.11-.044-.108-.043-.11-.041-.11-.04-.11-.04-.11-.038-.111-.037-.111-.036-.112-.035-.111-.034-.112-.032-.113-.032-.112-.03-.113-.03-.113-.028-.113-.027-.113-.026-.114-.025-.114-.023-.114-.023-.114-.021-.114-.02-.114-.02-.115-.017-.114-.017-.115-.016-.115-.014-.114-.014-.115-.012-.115-.011-.115-.01-.115-.01-.115-.007-.115-.007-.115-.005-.115-.004-.115-.004-.115-.002h-.253l.037 3.058H17.89l.084.001.084.002.084.003.084.004.084.005.084.005.084.006.084.007.085.008.084.01.084.009.084.01.084.012.084.012.084.013.084.014.084.014.083.016.084.016.083.018.084.018.083.018.083.02.083.02.083.022.083.022.082.023.083.024.082.025.082.026.082.026.081.027.082.028.08.03.082.029.08.03.08.032.081.032.08.033.08.034.079.034.079.036.079.036.078.037.078.038.078.038.078.04.077.04.076.041.077.042.076.042.075.044.076.044.075.045.074.046.074.046.074.047.073.048.072.049.073.05.072.05.07.05.072.053.07.052.07.053.07.054.069.055.068.055.068.057.067.056.067.058.066.058.066.06.065.059.065.06.064.061.063.062.063.062.063.063.061.064.061.064.06.065.06.066.06.066.058.067.058.068.058.068.056.069.056.07.055.07.055.07.054.071.053.072.053.072.052.073.05.074.05.074.05.075.05.075.048.075.047.077.047.076.046.078.045.077.044.079.044.079.043.079.042.08.04.08.041.08.04.082.039.081.038.082.037.083.037.083.035.083.035.084.034.084.033.085.032.085.031.085.03.086.03.086.03.086.027.087.027.087.026.087.026.088.024.088.023.088.023.09.022.088.02.09.02.089.02.09.017.09.018.09.016.09.015.091.015.091.013.091.013.091.011.092.01.092.01.092.01.092.007.092.007.092.006.093.005.092.004.093.003.093.002.093.002.093v.186l-.002.093-.003.093-.004.094-.004.093-.006.093-.006.094-.008.093-.008.094-.01.093-.01.093-.011.094-.012.093-.014.093-.014.093-.015.093-.016.093-.018.093-.018.093-.019.092-.02.093-.02.093-.023.092-.023.092-.024.092-.025.092-.026.091-.026.091-.028.092-.029.09-.03.092-.03.09-.032.09-.032.09-.034.09-.034.09-.036.089-.036.089-.037.089-.038.088-.04.088-.04.088-.04.087-.043.087-.043.087-.043.086-.045.086-.046.086-.046.085-.048.085-.048.084-.05.084-.05.084-.05.083-.052.082-.053.083-.054.081-.055.082-.055.08-.056.08-.057.08-.059.08-.058.079-.06.078-.06.078-.062.077-.063.076-.063.076-.064.076-.064.075-.066.074-.067.074-.067.073-.068.072-.068.072-.07.071-.07.071-.072.07-.071.07-.073.068-.073.068-.075.067-.075.067-.075.066-.077.065-.077.064-.077.064-.079.063-.08.063-.08.061-.08.061-.08.06-.083.06-.082.058-.084.058-.084.057-.084.056-.085.056-.086.054-.087.054-.087.053-.088.052-.088.052-.089.05-.09.05-.09.049-.09.048-.09.047-.092.046-.093.046-.092.044-.094.044-.093.042-.095.042-.094.041-.096.04-.095.04-.096.037-.097.038-.097.036-.098.036-.098.034-.098.034-.099.032-.099.032-.1.03-.1.03-.1.03-.1.027-.101.027-.102.026-.101.024-.102.024-.103.023-.102.022-.103.021-.104.02-.103.019-.104.018-.104.017-.104.016-.104.014-.105.014-.105.013-.105.012-.105.01-.106.01-.105.01-.106.007-.106.006-.106.006-.106.005-.107.003-.106.003-.106.001h-.214l-.106-.002-.107-.003-.107-.003-.107-.005-.107-.006-.106-.007-.107-.008-.107-.01-.107-.01-.107-.01-.106-.013-.107-.013-.107-.015-.106-.015-.107-.017-.106-.017-.106-.019-.106-.02-.106-.02-.106-.022-.105-.023-.106-.024-.105-.024-.105-.026-.105-.027-.105-.029-.105-.029-.104-.03-.104-.031-.103-.032-.104-.034-.103-.034-.103-.035-.102-.037-.103-.037-.102-.039-.101-.04-.102-.04-.1-.041-.101-.043-.1-.043-.1-.045-.1-.046-.098-.046-.099-.048-.098-.048-.098-.05-.097-.05-.097-.052-.096-.053-.096-.053-.095-.055-.095-.055-.095-.057-.094-.057-.093-.058-.092-.06-.093-.06-.091-.061-.091-.063-.09-.063-.09-.063-.09-.066-.089-.065-.088-.067-.087-.068-.087-.068-.086-.07-.085-.07-.085-.072-.084-.072-.083-.073-.083-.073-.082-.075-.081-.076-.08-.076-.08-.077-.08-.078-.078-.08-.078-.08-.076-.08-.076-.08-.075-.083-.075-.083-.073-.084-.073-.084-.072-.085-.071-.086-.07-.087-.07-.088-.068-.088-.068-.089-.067-.09-.066-.09-.065-.09-.064-.093-.063-.092-.063-.093-.061-.094-.06-.095-.06-.095-.059-.095-.057-.097-.057-.097-.056-.097-.054-.099-.054-.098-.053-.1-.052-.1-.05-.1-.05-.101-.05-.102-.047-.102-.047-.103-.046-.103-.044-.104-.044-.104-.042-.105-.042-.105-.04-.106-.04-.106-.038-.107-.038-.107-.036-.107-.035-.108-.034-.109-.033-.108-.032-.11-.03-.109-.03-.11-.029-.11-.027-.11-.026-.111-.026-.111-.024-.112-.022-.112-.022-.112-.02-.112-.02-.113-.019-.113-.017-.113-.016-.113-.015-.114-.014-.114-.012-.114-.011-.114-.01-.114-.01-.115-.008-.114-.006-.115-.006-.115-.004-.115-.003-.115-.002-.116-.001-.115v-.116l.002-.115.002-.116.004-.115.005-.116.007-.116.007-.115.009-.116.01-.116.011-.115.012-.116.014-.115.014-.116.016-.115.017-.115.019-.115.019-.115.02-.115.022-.115.024-.115.024-.114.025-.114.027-.114.027-.114.03-.114.03-.114.03-.113.033-.113.034-.112.035-.113.036-.112.037-.112.039-.112.04-.11.04-.112.042-.11.043-.11.044-.11.045-.11.047-.11.048-.108.048-.108.05-.108.051-.108.053-.107.053-.106.054-.107.056-.105.057-.105.057-.105.06-.104.06-.104.06-.103.063-.103.063-.102.064-.1.066-.102.066-.1.068-.1.069-.099.07-.098.07-.098.072-.097.073-.097.074-.096.074-.095.076-.094.077-.094.078-.093.08-.093.079-.091.08-.091.083-.09.083-.09.083-.088.085-.088.086-.087.087-.087.087-.085.089-.085.09-.084.09-.083.09-.082.093-.081.093-.08.094-.08.095-.079.095-.078.097-.077.097-.076.098-.075.1-.074.099-.073.1-.073.102-.071.102-.07.103-.07.104-.068.104-.068.106-.066.106-.066.106-.064.108-.064.108-.062.109-.062.11-.06.11-.06.11-.058.112-.057.112-.056.113-.055.113-.054.114-.053.115-.052.115-.05.116-.05.116-.049.117-.047.118-.046.118-.046.119-.044.119-.043.12-.041.12-.04.12-.04.12-.038.122-.038.122-.035.123-.035.122-.034.123-.032.124-.031.124-.03.125-.029.124-.028.125-.026.126-.025.125-.024.126-.023.127-.021.126-.02.127-.02.127-.017.128-.017.047-.005Zm.054 4.535-.037-3.091-.104.014-.112.017-.113.018-.111.019-.112.02-.111.021-.111.022-.11.024-.111.024-.11.026-.11.026-.11.028-.108.028-.105.029-.112.032-.108.031-.107.033-.107.034-.107.035-.106.036-.106.037-.105.038-.105.038-.104.04-.104.041-.103.042-.103.043-.103.044-.101.045-.102.045-.1.047-.1.048-.1.049-.1.05-.098.05-.098.051-.097.053-.097.053-.096.054-.095.055-.095.056-.094.057-.094.058-.093.059-.092.06-.091.06-.091.061-.09.062-.09.063-.089.064-.088.064-.087.066-.087.066-.085.067-.086.068-.084.069-.083.069-.083.07-.082.071-.081.072-.08.072-.08.073-.08.074-.077.075-.077.075-.077.076-.075.077-.075.077-.074.079-.073.078-.072.08-.071.08-.07.08-.07.082-.069.082-.067.082-.067.083-.066.084-.065.085-.064.085-.063.085-.063.086-.06.087-.061.087-.06.087-.058.089-.058.088-.056.09-.056.09-.055.09-.053.09-.053.091-.052.092-.05.092-.05.092-.05.093-.047.093-.047.094-.046.094-.045.094-.044.095-.043.095-.041.096-.041.096-.04.096-.039.096-.038.097-.037.097-.035.098-.035.098-.034.097-.032.099-.032.098-.03.099-.03.099-.029.099-.027.099-.027.1-.025.1-.024.1-.024.1-.022.1-.021.1-.02.1-.02.1-.018.102-.017.1-.016.101-.015.101-.013.101-.013.102-.012.1-.01.102-.01.101-.01.102-.007.1-.006.102-.006.101-.004.102-.004.1-.002.102-.002.101v.202l.002.101.003.1.004.101.005.101.006.1.007.1.008.101.009.1.01.1.01.1.012.1.013.098.015.1.015.098.016.099.017.099.018.098.019.098.02.097.02.098.023.097.023.097.024.096.024.096.026.096.027.096.028.095.029.095.03.095.03.094.032.094.032.093.034.093.034.093.035.092.037.092.037.091.038.09.039.091.04.09.04.09.042.089.043.089.043.088.044.087.046.088.046.086.046.086.048.086.049.085.049.085.05.083.051.084.052.083.053.082.053.082.054.08.056.081.055.08.057.08.057.078.059.078.058.077.06.077.06.076.062.076.061.074.063.075.063.073.064.073.065.072.065.071.066.07.067.07.067.07.068.069.069.068.07.067.07.066.07.066.071.065.072.064.072.063.073.063.074.062.074.06.075.06.075.06.076.06.076.057.077.057.078.057.077.055.079.055.079.054.08.053.08.052.08.052.08.05.082.05.082.049.082.048.082.047.084.047.083.045.084.045.084.044.085.043.085.042.085.04.086.041.086.04.086.038.087.038.087.037.087.036.088.035.088.034.088.033.089.033.088.031.09.03.089.03.09.03.089.027.09.027.09.026.09.026.09.024.091.023.09.023.092.021.091.02.091.02.092.02.091.017.092.017.091.016.092.015.092.014.092.014.092.012.092.012.092.01.092.01.092.009.092.008.093.007.092.006.092.005.092.004.092.003.092.002.092.002h.184l.091-.001.092-.002.092-.003.091-.004.091-.005.092-.006.09-.006.092-.008.09-.008.091-.01.09-.01.09-.01.09-.013.09-.012.09-.014.09-.015.089-.015.089-.016.089-.017.088-.018.088-.02.088-.019.088-.02.087-.022.088-.022.086-.023.087-.024.086-.025.086-.025.085-.026.085-.028.085-.028.085-.029.084-.03.083-.03.084-.03.082-.033.083-.032.082-.034.082-.034.081-.035.08-.036.081-.037.08-.037.08-.039.079-.038.078-.04.078-.04.078-.042.077-.041.077-.043.076-.043.075-.044.075-.045.075-.045.074-.046.073-.047.073-.048.073-.048.072-.049.07-.05.071-.05.07-.05.07-.051.07-.052.067-.053.068-.053.067-.054.067-.055.066-.055.065-.056.065-.056.063-.057.064-.057.063-.058.062-.059.061-.06.06-.059.06-.06.06-.061.059-.061.058-.062.057-.063.057-.063.056-.063.055-.064.055-.064.053-.065.053-.065.053-.066.052-.066.05-.067.05-.067.05-.068.049-.067.048-.069.047-.069.047-.069.045-.07.045-.07.044-.07.044-.07.043-.072.041-.071.042-.072.04-.072.04-.073.038-.072.038-.073.038-.074.036-.073.036-.075.035-.074.034-.075.033-.074.032-.075.032-.076.031-.075.03-.076.03-.076.028-.076.027-.077.027-.076.026-.077.025-.077.025-.077.023-.078.023-.077.022-.078.021-.078.02-.078.02-.078.018-.078.018-.078.017-.079.017-.078.015-.079.014-.078.014-.08.013-.078.012-.079.011-.079.01-.079.01-.079.009-.079.008-.078.007-.08.006-.079.006-.079.005-.079.003-.078.004-.08.002-.078.001-.079v-.236l-.002-.078-.003-.079-.003-.078-.005-.078-.005-.078-.005-.078-.007-.078-.008-.078-.008-.077-.009-.078-.01-.077-.01-.077-.012-.077-.012-.076-.012-.077-.014-.076-.015-.076-.015-.076-.016-.076-.017-.075-.017-.075-.019-.075-.018-.075-.02-.074-.02-.074-.022-.074-.022-.074-.023-.073-.023-.073-.024-.072-.025-.073-.026-.072-.026-.072-.027-.071-.028-.071L24.5 15l-.029-.071-.03-.07-.03-.07-.032-.07-.031-.068-.033-.069-.034-.068-.033-.067-.035-.068-.035-.067-.036-.066-.037-.066-.037-.066-.038-.065-.038-.065-.04-.064-.04-.064-.04-.064-.04-.063-.042-.062-.042-.062-.043-.062-.043-.06-.044-.061-.045-.06-.045-.06-.046-.06-.046-.058-.047-.058-.047-.057-.048-.057-.049-.057-.048-.056-.05-.055-.05-.055-.05-.054-.051-.054-.052-.053-.052-.053-.053-.052-.052-.052-.054-.05-.054-.051-.054-.05-.055-.049-.055-.049-.056-.048-.056-.047-.057-.047-.057-.046-.057-.046-.058-.045-.059-.044-.058-.044-.06-.043-.059-.042-.06-.042-.06-.041-.06-.04-.061-.04-.061-.04-.062-.039-.062-.038-.062-.037-.063-.037-.063-.036-.063-.035-.063-.035-.064-.034-.064-.034-.064-.032-.065-.033-.065-.03-.065-.032-.065-.03-.066-.03-.066-.028L20.55 11l-.066-.027-.067-.027-.066-.026-.067-.025-.067-.025-.068-.024-.067-.023-.068-.022-.067-.022-.068-.021-.068-.02-.069-.02-.068-.02-.068-.018-.069-.018-.069-.017-.069-.016-.068-.016-.07-.015-.068-.014-.07-.014-.068-.012-.07-.012-.069-.012-.07-.01-.069-.01-.07-.01-.068-.009-.07-.008-.07-.007-.069-.006-.07-.006-.068-.006-.07-.004-.07-.004-.068-.003-.07-.003-.069-.001-.07-.001h-.115l.035 3.02h.062l.04.001.039.002.04.001.04.003.04.002.04.003.04.004.04.004.04.004.04.004.04.005.04.006.04.006.04.006.04.007.04.007.04.008.041.008.04.009.04.008.04.01.04.01.04.01.04.01.04.011.04.012.04.012.04.012.039.013.04.013.039.014.04.014.038.014.04.015.039.015.039.016.039.016.039.017.038.017.039.017.038.018.039.018.038.02.038.018.038.02.038.02.037.02.038.02.037.022.037.022.037.022.037.022.036.023.037.023.036.024.036.024.036.025.035.024.035.026.036.025.035.027.034.026.035.027.034.027.034.028.034.028.034.028.033.03.033.028.033.03.032.03.032.03.032.031.032.031.032.032.03.031.031.033.03.032.031.033.03.033.03.034.03.034.028.034.029.035.028.035.028.035.028.036.027.036.027.036.027.037.026.037.026.037.026.038.025.038.025.038.024.039.024.039.024.039.023.04.023.04.023.04.022.04.022.04.021.041.021.042.021.041.02.042.02.042.02.042.018.043.019.043.018.043.018.043.017.043.017.044.016.044.016.044.015.045.015.044.015.045.014.045.014.046.013.045.013.046.012.046.012.046.011.046.011.047.01.046.01.047.01.047.009.047.008.047.008.048.008.047.007.048.006.048.006.048.006.048.005.049.004.048.004.048.004.049.003.049.002.048.002.05.002.048v.247l-.003.049-.002.049-.003.05-.003.049-.004.05-.004.049-.005.05-.005.05-.006.049-.006.05-.007.05-.008.049-.008.05-.008.049-.01.05-.009.05-.01.049-.01.05-.012.049-.011.05-.013.048-.012.05-.014.049-.014.05-.014.048-.015.05-.015.048-.017.049-.016.049-.017.049-.018.048-.018.048-.019.049-.019.048-.02.048-.02.048-.02.048-.022.047-.022.048-.022.047-.023.047-.023.047-.024.047-.025.047-.025.046-.026.046-.026.046-.026.046-.027.046-.028.045-.028.046-.029.044-.029.045-.03.045-.03.044-.03.044-.031.044-.032.043-.032.044-.033.043-.033.042-.033.043-.034.042-.035.042-.035.041-.035.042-.036.04-.037.041-.037.04-.037.04-.038.04-.039.04-.038.039-.04.038-.04.039-.04.038-.04.037-.041.038-.042.037-.042.036-.042.036-.043.036-.043.036-.044.035-.044.034-.044.034-.045.034-.046.034-.045.033-.047.032-.046.032-.047.032-.047.031-.048.031-.048.03-.049.03-.048.03-.05.03-.049.028-.05.028-.05.028-.05.027-.052.027-.051.026-.052.026-.052.025-.052.025-.053.024-.053.024-.053.023-.053.023-.054.023-.054.021-.055.022-.054.02-.056.02-.055.02-.055.02-.056.018-.056.019-.057.017-.056.017-.057.017-.057.016-.057.015-.058.015-.058.014-.058.014-.058.013-.058.013-.059.012-.058.011-.06.011-.059.01-.059.01-.06.01-.06.008-.059.008-.06.007-.06.007-.06.006-.06.006-.061.005-.06.004-.061.004-.061.003-.061.003-.061.002-.061.001-.062.001h-.122l-.062-.001-.061-.002-.062-.002-.061-.003-.062-.003-.062-.005-.061-.004-.062-.006-.062-.006-.062-.006-.061-.007-.062-.008-.062-.009-.062-.009-.061-.01-.062-.01-.061-.01-.062-.012-.061-.013-.062-.012-.061-.014-.062-.014-.06-.015-.062-.015-.06-.016-.062-.017-.06-.017-.061-.018-.06-.018-.061-.02-.06-.019-.061-.02-.06-.021-.06-.022-.06-.022-.06-.023-.059-.023-.059-.024-.059-.025-.059-.025-.058-.026-.059-.027-.058-.027-.058-.028-.058-.028-.057-.029-.058-.03-.057-.03-.056-.03-.057-.032-.056-.032-.056-.032-.056-.033-.055-.034-.056-.034-.054-.035-.055-.036-.054-.036-.054-.036-.054-.037-.053-.038-.053-.039-.053-.039-.052-.039-.052-.04-.051-.04-.051-.042-.051-.041-.05-.043-.05-.043-.05-.043-.05-.044-.048-.044-.048-.045-.048-.046-.048-.045-.047-.047-.047-.047-.046-.047-.046-.049-.045-.048-.045-.05-.044-.049-.045-.05-.043-.05-.043-.051-.043-.052-.041-.052-.042-.052-.041-.053-.04-.053-.04-.054-.04-.055-.039-.054-.038-.055-.038-.056-.038-.056-.037-.056-.036-.057-.036-.058-.035-.057-.034-.058-.034-.059-.034-.059-.033-.06-.032-.059-.032-.06-.03-.06-.031-.061-.03-.061-.03-.062-.028-.062-.028-.062-.028-.063-.027-.063-.026-.063-.025-.063-.025-.064-.025-.064-.023-.065-.023-.065-.023-.065-.022-.065-.02-.066-.021-.066-.02-.066-.019-.066-.018-.067-.018-.067-.017-.067-.016-.068-.016-.067-.015-.068-.014-.068-.014-.069-.013-.068-.012-.069-.012-.069-.01-.069-.01-.069-.01-.07-.009-.069-.008-.07-.007-.07-.007-.07-.005-.07-.006-.07-.004-.07-.004-.07-.003-.071-.002-.071-.001-.07-.001-.072V16.317l.002-.07.002-.072.003-.071.004-.071.004-.072.005-.07.006-.072.007-.071.007-.072.008-.07.01-.072.009-.071.01-.072.011-.07.012-.072.013-.071.013-.071.014-.071.015-.07.016-.072.016-.07.017-.071.018-.07.019-.07.02-.071.02-.07.02-.07.022-.07.022-.07.023-.07.024-.069.024-.07.026-.068.026-.07.027-.068.027-.068.028-.069.03-.068.029-.067.03-.068.032-.067.031-.067.033-.067.033-.067.034-.066.035-.066.036-.066.036-.066.037-.065.037-.065.039-.064.039-.064.04-.064.04-.064.041-.063.042-.063.042-.062.043-.063.044-.061.045-.062.045-.06.046-.061.046-.06.048-.06.048-.06.048-.059.05-.058.05-.058.05-.058.05-.057.053-.057.052-.056.053-.056.054-.056.054-.054.055-.055.055-.054.056-.053.057-.053.057-.052.058-.052.059-.051.059-.051.06-.05.06-.05.06-.05.062-.048.061-.048.063-.047.063-.047.063-.047.064-.045.065-.045.065-.045.066-.044.066-.043.067-.043.067-.042.067-.041.069-.041.068-.04.07-.04.069-.039.07-.038.07-.037.071-.037.072-.037.071-.035.072-.035.073-.034.073-.034.074-.032.073-.033.075-.031.074-.03.075-.03.076-.03.076-.028.076-.028.076-.027.077-.027.077-.025.078-.025.077-.024.079-.024.078-.022.079-.022.079-.021.079-.02.08-.02.08-.02.08-.017.08-.017.08-.017.081-.016.04-.007Zm.993 5.808-.922.22-.054-4.567-.043.01-.066.015-.065.016-.065.017-.065.017-.064.018-.065.019-.063.019-.064.02-.063.02-.064.02-.063.022-.062.022-.062.023-.062.024-.062.024-.061.024-.061.025-.061.026-.06.026-.06.027-.06.027-.06.028-.058.028-.059.03-.058.029-.058.03-.057.03-.057.032-.057.031-.056.033-.056.032-.056.034-.055.033-.054.035-.054.034-.054.036-.054.035-.053.037-.052.036-.052.037-.052.038-.051.038-.05.039-.051.039-.05.04-.05.04-.048.04-.049.04-.047.042-.048.041-.047.042-.046.043-.046.043-.046.043-.045.044-.044.044-.044.044-.044.045-.043.045-.042.046-.042.046-.041.046-.041.047-.04.047-.04.047-.04.048-.038.048-.038.048-.038.049-.037.049-.037.049-.035.05-.036.05-.035.05-.034.05-.034.05-.033.052-.033.05-.031.052-.032.052-.03.052-.031.052-.03.053-.03.053-.027.053-.029.053-.027.053-.027.054-.026.053-.026.054-.025.054-.024.055-.024.054-.023.055-.023.055-.022.055-.021.055-.021.055-.02.055-.02.056-.02.056-.018.055-.018.056-.017.056-.017.056-.016.056-.015.057-.015.056-.014.057-.014.056-.013.057-.013.056-.012.057-.01.057-.012.056-.01.057-.01.057-.008.057-.008.057-.008.056-.007.057-.007.057-.005.057-.006.057-.005.057-.004.056-.003.057-.003.057-.002.057-.002.056-.001.057v.225l.003.056.002.057.003.056.003.055.005.056.004.056.005.055.006.056.006.055.007.055.008.055.008.055.008.055.01.054.01.055.01.054.01.054.011.054.012.054.013.053.013.053.013.053.014.053.015.053.015.052.015.053.016.052.017.051.017.052.018.051.018.051.019.051.019.05.02.051.02.05.02.05.021.05.022.049.022.049.023.048.023.049.023.047.024.048.025.048.024.047.026.047.026.046.026.046.027.046.027.046.027.045.028.045.029.045.029.044.029.044.03.043.03.043.03.043.03.042.032.042.032.042.032.041.032.041.033.04.033.041.034.04.034.04.034.038.034.039.035.038.036.038.035.037.036.037.037.037.036.036.037.036.037.035.038.035.038.034.038.035.039.033.038.033.04.033.039.032.04.032.04.032.04.03.04.031.04.03.042.03.041.03.042.028.041.029.042.027.042.028.043.027.042.026.043.026.043.026.043.025.043.024.044.025.044.023.044.023.044.023.044.023.045.021.044.022.045.02.045.02.045.02.045.02.046.02.045.018.045.018.046.017.046.017.046.017.046.016.046.015.046.015.046.015.047.014.046.014.047.013.046.013.047.012.047.012.046.01.047.011.047.01.047.01.047.01.047.009.046.008.047.008.047.007.047.007.047.007.047.006.047.005.047.005.047.005.047.004.046.003.047.003.047.003.047.002.046.002.047.001.046.001h.139l.047-.002.046-.001.046-.002.046-.002.046-.003.045-.004.046-.003.045-.005.046-.004.045-.006.045-.005.045-.006.045-.006.045-.007.044-.008.045-.007.044-.009.044-.008.044-.01.044-.009.044-.01.043-.01.043-.01.043-.012.043-.011.043-.012.043-.012.042-.013.042-.013.042-.014.041-.014.042-.014.04-.015.042-.015.04-.015.041-.016.04-.017.04-.016.04-.017.04-.017.04-.018.039-.018.038-.019.039-.018.038-.02.038-.019.038-.02.038-.02.037-.02.037-.021.036-.021.037-.022.036-.022.036-.022.035-.023.035-.022.035-.023.035-.024.034-.024.034-.023.034-.025.033-.024.033-.025.033-.025.032-.026.032-.026.032-.026.031-.026.032-.026.03-.027.03-.027.03-.028.03-.027.03-.028.029-.028.029-.028.028-.029.028-.028.028-.03.027-.029.027-.03.026-.029.027-.03.026-.03.025-.03.025-.03.025-.03.024-.032.024-.03.024-.032.024-.031.022-.032.023-.032.022-.032.022-.032.021-.032.021-.032.021-.033.02-.032.02-.033.02-.033.019-.033.019-.033.018-.034.018-.033.018-.034.017-.033.017-.034.016-.034.016-.034.016-.034.015-.034.015-.034.015-.035.014-.034.014-.035.013-.034.013-.035.012-.034.013-.035.012-.035.01-.035.012-.034.01-.035.01-.035.01-.035.01-.035.01-.035.008-.035.008-.036.008-.035.008-.034.007-.036.007-.035.006-.035.006-.035.006-.035.005-.035.005-.035.005-.035.004-.035.003-.035.004-.035.003-.035.002-.035.003-.034.002-.035.001-.035.001-.034.001-.035v-.138l-.001-.034-.002-.034-.002-.034-.002-.034-.002-.034-.003-.033-.003-.034-.003-.034-.004-.033-.004-.034-.005-.033-.005-.033-.005-.032-.005-.034-.006-.032-.006-.033-.007-.032-.007-.033-.007-.032-.008-.032-.007-.032-.008-.031-.009-.032-.009-.031-.009-.032-.01-.03-.009-.032-.01-.03-.01-.031-.01-.03-.011-.03-.012-.03-.011-.03-.012-.03-.012-.03-.012-.03-.013-.029-.013-.029-.013-.028-.014-.029-.013-.028-.014-.028-.014-.028-.015-.028-.015-.027-.015-.028-.015-.027-.015-.027-.016-.026-.016-.027-.017-.026-.016-.026-.017-.026-.017-.025-.017-.026-.017-.025-.018-.024-.018-.025-.018-.024-.018-.024-.018-.024-.02-.024-.018-.023-.02-.023-.019-.023-.02-.023-.019-.022-.02-.022-.02-.022-.02-.022-.02-.021-.021-.021-.02-.021-.022-.02-.02-.02-.022-.02-.022-.02-.021-.02-.022-.02-.022-.018-.022-.019-.022-.018-.022-.018-.023-.018-.022-.018-.023-.017-.023-.017-.023-.017-.023-.016-.023-.016-.023-.016-.023-.016-.024-.015-.024-.016-.023-.014-.024-.015-.024-.014-.024-.014-.024-.014-.024-.013-.024-.013-.025-.013-.024-.013-.024-.012-.025-.012-.025-.012-.024-.011-.025-.011-.025-.011-.024-.01-.025-.011-.025-.01-.025-.01-.025-.01-.025-.008-.025-.01-.025-.008-.025-.008-.025-.008-.025-.008-.025-.008-.025-.007-.025-.007-.025-.007-.025-.006-.025-.006-.026-.006-.025-.006-.025-.005-.025-.005-.025-.005-.025-.004-.025-.004-.025-.004-.025-.004-.024-.004-.026-.003-.024-.003-.025-.002-.025-.002-.024-.003-.025-.002-.025-.001-.024-.002h-.025l-.024-.001-.024-.001h-.121l-.024.002-.023.001-.024.001-.024.002-.023.002-.024.002-.023.002-.023.003-.023.003-.023.003-.023.003-.023.004-.023.003-.023.004-.022.004-.022.005-.023.004-.022.005-.022.005Z" fill="#697077"/></svg>