<svg width="34" height="32" fill="none" xmlns="http://www.w3.org/2000/svg"><path d="M22.802 26.485 1.389 11.713C-.78 10.217-.043 7.101 2.663 6.368L25.42.191a3.222 3.222 0 0 1 4.316 2.975l-1.35 20.946c-.16 2.486-3.415 3.87-5.585 2.373Z" fill="#697077"/><path d="M16.01 30.13 3.396 5.46A3.441 3.441 0 0 1 6.985.495l23.378 3.608a3.442 3.442 0 0 1 2.539 4.968l-10.77 21.062a3.442 3.442 0 0 1-6.122-.002Z" fill="#697077"/><path d="M23.7 8.727 19.211 8 13.7 9.57l2.2 4.516 5.151 3.73a1.3 1.3 0 0 0 .37.184l1.957-4.015.322-5.258Z" fill="#fff"/></svg>