<svg width="22" height="32" fill="none" xmlns="http://www.w3.org/2000/svg"><path d="M10.667 19.982v8.12a1.173 1.173 0 1 1-2.348 0v-8.109c.327.239.719.372 1.123.382.441.012.873-.126 1.225-.393Zm9.996-2.348a1.123 1.123 0 0 0-1.123 1.123v1.416a1.173 1.173 0 1 0 2.347 0v-1.36a1.122 1.122 0 0 0-1.224-1.179ZM5.77 23.06a2.021 2.021 0 0 1-1.123-.382v8.144a1.18 1.18 0 1 0 2.359 0v-8.087c-.367.237-.8.35-1.236.325Zm11.232-7.862a1.123 1.123 0 0 0-1.179 1.123v6.256a1.18 1.18 0 1 0 2.359 0V16.4a1.123 1.123 0 0 0-1.236-1.18l.056-.022ZM13.273 17.6a2.056 2.056 0 0 1-1.179-.382v8.165a1.179 1.179 0 1 0 2.359 0V17.23a1.988 1.988 0 0 1-1.236.393l.057-.022ZM3.22 23.857V1.045A1.056 1.056 0 0 0 2.164 0h-.247A1.056 1.056 0 0 0 .86 1.045v22.812a1.056 1.056 0 0 0 1.056 1.056h.247a1.056 1.056 0 0 0 1.056-1.056Zm2.673-1.662h-.247a1.055 1.055 0 0 1-1.056-1.056V3.763a1.056 1.056 0 0 1 1.056-1.045h.247a1.056 1.056 0 0 1 1.056 1.045V21.16a1.056 1.056 0 0 1-1.056 1.056v-.022Zm3.718-2.674h-.259a1.045 1.045 0 0 1-1.044-1.044V6.458a1.046 1.046 0 0 1 1.044-1.055h.259a1.056 1.056 0 0 1 1.044 1.055v12.019a1.044 1.044 0 0 1-1.044 1.044Zm3.718-2.752h-.236a1.055 1.055 0 0 1-1.056-1.044v-6.47a1.057 1.057 0 0 1 1.056-1.123h.247a1.056 1.056 0 0 1 1.056 1.056v6.514a1.057 1.057 0 0 1-1.056 1.067h-.011Zm3.729-2.414h-.247a1.056 1.056 0 0 1-1.056-1.056v-1.674a1.056 1.056 0 0 1 1.056-1.044h.247a1.056 1.056 0 0 1 1.055 1.044V13.3a1.056 1.056 0 0 1-1.044 1.056h-.011Z" fill="#697077"/></svg>