<svg width="24" height="24" fill="none" xmlns="http://www.w3.org/2000/svg"><path d="M17.423 21h-6.346a.565.565 0 0 1-.56-.437.609.609 0 0 1-.006-.27c.153-.823.627-1.515 1.374-2 .662-.43 1.502-.668 2.365-.668.863 0 1.703.237 2.365.668.747.485 1.221 1.177 1.374 2a.609.609 0 0 1-.13.512.565.565 0 0 1-.436.195ZM15.632 13.337a1.856 1.856 0 0 0-1.382-.587c-.544 0-1.035.207-1.385.583-.349.376-.525.896-.484 1.453.08 1.1.918 1.995 1.87 1.995.95 0 1.787-.894 1.868-1.994a1.897 1.897 0 0 0-.487-1.45Z" fill="#21272A"/><path fill-rule="evenodd" clip-rule="evenodd" d="M9 3.75A.75.75 0 0 1 9.75 3h4.5a.75.75 0 0 1 0 1.5h-4.5A.75.75 0 0 1 9 3.75Z" fill="#21272A"/><path fill-rule="evenodd" clip-rule="evenodd" d="M6.75 2.25a1.5 1.5 0 0 0-1.5 1.5v16.5a1.5 1.5 0 0 0 1.5 1.5h10.5a1.5 1.5 0 0 0 1.5-1.5V3.75a1.5 1.5 0 0 0-1.5-1.5H6.75Zm-3 1.5a3 3 0 0 1 3-3h10.5a3 3 0 0 1 3 3v16.5a3 3 0 0 1-3 3H6.75a3 3 0 0 1-3-3V3.75Z" fill="#21272A"/></svg>