<svg width="24" height="24" fill="none" xmlns="http://www.w3.org/2000/svg"><g clip-path="url('#clip0_132_1162')" fill-rule="evenodd" clip-rule="evenodd" fill="#21272A"><path d="m19.815 6.762-.022.008a25.512 25.512 0 0 1-.668.218c-.448.14-1.082.325-1.828.511-1.483.37-3.45.75-5.297.75-1.847 0-3.825-.382-5.32-.753a33.799 33.799 0 0 1-2.374-.683l-.143-.049-.017-.006a.333.333 0 0 0-.28.06c-.067.054-.126.146-.117.301.005.079.03.133.109.202.098.086.262.172.501.252l4.334 1.402a.754.754 0 0 1 .034.012c.58.219 1.223.6 1.522 1.376.16.409.201.863.196 1.29a9.263 9.263 0 0 1-.136 1.358l-.277 1.389-.004.02-1.753 7.68v.005l-.002.004c-.01.043-.006.124.06.217.064.092.159.152.253.168a.277.277 0 0 0 .23-.052.674.674 0 0 0 .22-.352l1.73-5.346c.097-.3.183-.601.257-.907l.249-1.015a.75.75 0 0 1 1.457 0l.27 1.1c.06.249.13.494.21.738l1.76 5.434a.642.642 0 0 0 .218.345c.07.051.142.072.237.055.23-.04.34-.236.306-.401l-1.752-7.676a1.485 1.485 0 0 1-.004-.02l-.277-1.39a8.044 8.044 0 0 1-.122-1.403c.008-.432.071-.924.3-1.336.207-.38.544-.64.818-.81a4.59 4.59 0 0 1 .794-.382l.003-.001.004-.002 4.125-1.496c.314-.114.477-.191.57-.267a.164.164 0 0 0 .046-.052.477.477 0 0 0-.124-.445.243.243 0 0 0-.11-.06.4.4 0 0 0-.186.01ZM4.61 5.332h.001l.008.002a8.895 8.895 0 0 0 .162.056 32.31 32.31 0 0 0 2.261.65c1.448.36 3.29.708 4.958.708 1.669 0 3.499-.347 4.934-.704a31.573 31.573 0 0 0 2.368-.691 7.41 7.41 0 0 0 .031-.011l.008-.003h.001a.749.749 0 0 1 .051-.017c.663-.184 1.281-.021 1.722.375.418.377.635.924.635 1.463 0 .57-.24 1.003-.606 1.306-.318.263-.717.414-1.012.521l-4.122 1.495a3.104 3.104 0 0 0-.527.25c-.182.114-.266.208-.293.257l-.004.007c-.05.091-.105.29-.11.634-.006.323.032.702.095 1.098l.272 1.365 1.751 7.673.003.01c.227 1.067-.517 2.02-1.514 2.196-1.09.191-1.882-.578-2.143-1.42L12.002 17.8l-1.536 4.748c-.263.838-1.04 1.616-2.138 1.424-.993-.174-1.76-1.178-1.513-2.21l1.75-7.665.271-1.365c.064-.402.106-.773.11-1.098.004-.334-.033-.572-.094-.728v-.003c-.076-.195-.244-.356-.637-.506l-4.32-1.398-.006-.002c-.591-.197-1.57-.658-1.637-1.789A1.82 1.82 0 0 1 4.61 5.33Z"/><path d="M12 1.5a1.125 1.125 0 1 0 0 2.25 1.125 1.125 0 0 0 0-2.25ZM9.375 2.625a2.625 2.625 0 1 1 5.25 0 2.625 2.625 0 0 1-5.25 0Z"/></g><defs><clipPath id="clip0_132_1162"><path fill="#fff" d="M0 0h24v24H0z"/></clipPath></defs></svg>