<svg width="24" height="24" fill="none" xmlns="http://www.w3.org/2000/svg"><g clip-path="url('#clip0_132_1492')" fill-rule="evenodd" clip-rule="evenodd" fill="#21272A"><path d="m19.815 6.762-.022.008-.142.048a33.115 33.115 0 0 1-2.354.68c-1.483.37-3.45.75-5.297.75-1.847 0-3.825-.381-5.319-.752a33.8 33.8 0 0 1-2.374-.683 15.974 15.974 0 0 1-.16-.055.333.333 0 0 0-.281.06c-.067.054-.126.146-.117.301.005.079.03.133.11.202.097.086.262.172.5.252l4.335 1.402a.746.746 0 0 1 .033.012c.58.219 1.223.6 1.523 1.376.159.409.2.863.195 1.29a9.277 9.277 0 0 1-.136 1.358l-.276 1.389-.005.02-1.752 7.68-.002.005v.004c-.011.043-.006.124.059.217.064.092.16.152.253.168a.277.277 0 0 0 .23-.052.674.674 0 0 0 .22-.352l1.73-5.346c.097-.3.183-.601.257-.907l.249-1.015a.75.75 0 0 1 1.457 0l.27 1.1c.06.249.13.494.21.738l1.76 5.434.004.013c.05.165.137.275.215.333.069.05.142.07.236.054.23-.04.34-.236.306-.401l-1.752-7.676a.74.74 0 0 1-.004-.02l-.276-1.39a8.034 8.034 0 0 1-.121-1.403c.006-.432.07-.924.298-1.336.208-.38.544-.64.818-.81a4.59 4.59 0 0 1 .794-.382l.004-.001.004-.002 4.124-1.496c.314-.114.477-.191.57-.267a.164.164 0 0 0 .047-.052c.002-.006.014-.031.014-.098a.477.477 0 0 0-.138-.348.242.242 0 0 0-.11-.058.401.401 0 0 0-.187.008ZM4.61 5.332h.001l.008.002a9.067 9.067 0 0 0 .162.056 32.311 32.311 0 0 0 2.261.65c1.448.36 3.29.708 4.958.708 1.669 0 3.5-.347 4.934-.704a31.598 31.598 0 0 0 2.368-.691c.014-.005.025-.01.032-.011l.007-.003h.001a.749.749 0 0 1 .051-.017c.664-.184 1.281-.021 1.722.375.419.377.635.924.635 1.463 0 .57-.239 1.003-.606 1.306-.318.263-.717.414-1.012.521l-4.122 1.495a3.096 3.096 0 0 0-.527.25c-.182.114-.266.208-.293.257l-.003.007c-.052.091-.105.29-.111.634-.006.323.032.702.095 1.098l.272 1.365 1.752 7.673.002.01c.227 1.067-.517 2.02-1.513 2.196-1.09.191-1.883-.578-2.143-1.42L12 17.8l-1.536 4.748c-.263.838-1.04 1.616-2.138 1.424-.993-.174-1.76-1.178-1.513-2.21l1.75-7.665.271-1.365c.065-.402.107-.773.11-1.098.005-.334-.033-.572-.094-.728v-.003c-.076-.195-.244-.356-.637-.506l-4.32-1.398-.006-.002C3.297 8.8 2.32 8.34 2.252 7.208A1.82 1.82 0 0 1 4.61 5.33Z"/><path d="M12 1.5a1.125 1.125 0 1 0 0 2.25 1.125 1.125 0 0 0 0-2.25ZM9.375 2.625a2.625 2.625 0 1 1 5.25 0 2.625 2.625 0 0 1-5.25 0Z"/></g><defs><clipPath id="clip0_132_1492"><path fill="#fff" d="M0 0h24v24H0z"/></clipPath></defs></svg>