<svg width="24" height="24" fill="none" xmlns="http://www.w3.org/2000/svg"><path fill-rule="evenodd" clip-rule="evenodd" d="M5.248 1.5H15.377a3.383 3.383 0 0 1 3.373 3.373v.018l-.024 1.125a.75.75 0 1 1-1.5-.032l.024-1.115A1.883 1.883 0 0 0 15.374 3H5.25A2.259 2.259 0 0 0 3 5.251v10.123a1.882 1.882 0 0 0 1.876 1.876H6a.75.75 0 0 1 0 1.5H4.873A3.382 3.382 0 0 1 1.5 15.377V5.248A3.759 3.759 0 0 1 5.248 1.5Z" fill="#21272A"/><path fill-rule="evenodd" clip-rule="evenodd" d="M8.672 6.75c-1.062 0-1.922.86-1.922 1.922v10.406C6.75 20.14 7.61 21 8.672 21h10.406C20.14 21 21 20.14 21 19.078V8.672c0-1.062-.86-1.922-1.922-1.922H8.672ZM5.25 8.672A3.422 3.422 0 0 1 8.672 5.25h10.406A3.422 3.422 0 0 1 22.5 8.672v10.406a3.422 3.422 0 0 1-3.422 3.422H8.672a3.422 3.422 0 0 1-3.422-3.422V8.672Z" fill="#21272A"/></svg>