<svg width="124" height="125" viewBox="0 0 124 125" fill="none" xmlns="http://www.w3.org/2000/svg">
<path d="M63.5913 80.4337L63.9839 74.9364L68.7734 72.2032C73.3721 69.5381 77.5973 66.2754 81.3388 62.5002C94.9788 48.855 99.1431 32.8125 94.1263 27.7905C89.1043 22.7789 73.0618 26.9329 59.4166 40.578C55.4899 44.5047 52.1988 48.793 49.7136 53.1434L46.9753 57.9329L41.4831 58.3255C36.976 58.6416 32.6991 60.4359 29.3156 63.4302C35.7737 66.2721 41.6452 70.2933 46.6291 75.2877C51.6924 80.351 55.6811 86.2255 58.4866 92.6012C61.4809 89.2177 63.2752 84.9408 63.5913 80.4337ZM48.2308 95.0502C47.1917 96.4631 46.0466 97.7947 44.8053 99.0337C38.7499 105.089 29.6153 106.913 17.4013 104.51C15.0039 92.3015 16.8329 83.1669 22.8779 77.1115C24.1593 75.8405 25.4923 74.6935 26.8666 73.686C22.631 71.6169 18.1046 70.2056 13.4436 69.501C14.9442 64.7907 17.5542 60.5098 21.0541 57.0184C26.3158 51.7435 33.3072 48.5488 40.7391 48.0232C43.8587 42.625 47.6809 37.6647 52.1058 33.2724C69.2591 16.119 91.3414 10.3995 101.432 20.4849C111.517 30.5754 105.793 52.6577 88.6444 69.8059C84.2521 74.2307 79.2918 78.053 73.8936 81.1725C73.368 88.6045 70.1733 95.5958 64.8984 100.858C61.41 104.362 57.1282 106.975 52.4158 108.473C51.7112 103.812 50.2999 99.2858 48.2308 95.0502ZM39.3183 82.5985C38.4863 81.7646 37.5483 81.0437 36.5283 80.4544C34.2963 81.2294 31.6716 82.9344 29.2691 85.3317C28.1376 86.4684 26.7529 90.2865 26.7374 95.1742C31.6251 95.1587 35.4588 93.7585 36.5799 92.6425C38.9824 90.2349 40.6874 87.6154 41.4573 85.3834C40.8696 84.3637 40.1504 83.4256 39.3183 82.5934V82.5985ZM79.5046 42.4019C78.9999 41.9279 78.5957 41.3574 78.3158 40.7242C78.0359 40.091 77.8862 39.408 77.8754 38.7158C77.8646 38.0235 77.9931 37.3362 78.2532 36.6946C78.5133 36.053 78.8996 35.4702 79.3894 34.9809C79.8791 34.4915 80.4621 34.1055 81.1039 33.8459C81.7457 33.5863 82.4331 33.4583 83.1253 33.4696C83.8176 33.4808 84.5005 33.631 85.1335 33.9114C85.7665 34.1917 86.3367 34.5964 86.8103 35.1014C87.7011 36.0839 88.1801 37.3714 88.1479 38.6972C88.1157 40.0231 87.5749 41.2858 86.6374 42.224C85.7 43.1621 84.4376 43.7038 83.1117 43.7369C81.7859 43.7701 80.4981 43.292 79.5149 42.4019H79.5046Z" fill="#C1C7CD"/>
</svg>
