<svg width="24" height="25" viewBox="0 0 24 25" fill="none" xmlns="http://www.w3.org/2000/svg">
<path d="M12 22.5C6.477 22.5 2 18.023 2 12.5C2 6.977 6.477 2.5 12 2.5C17.523 2.5 22 6.977 22 12.5C22 18.023 17.523 22.5 12 22.5ZM12 20.5C14.1217 20.5 16.1566 19.6571 17.6569 18.1569C19.1571 16.6566 20 14.6217 20 12.5C20 10.3783 19.1571 8.34344 17.6569 6.84315C16.1566 5.34285 14.1217 4.5 12 4.5C9.87827 4.5 7.84344 5.34285 6.34315 6.84315C4.84285 8.34344 4 10.3783 4 12.5C4 14.6217 4.84285 16.6566 6.34315 18.1569C7.84344 19.6571 9.87827 20.5 12 20.5ZM12 7.5C12.2652 7.5 12.5196 7.60536 12.7071 7.79289C12.8946 7.98043 13 8.23478 13 8.5V13.5C13 13.7652 12.8946 14.0196 12.7071 14.2071C12.5196 14.3946 12.2652 14.5 12 14.5C11.7348 14.5 11.4804 14.3946 11.2929 14.2071C11.1054 14.0196 11 13.7652 11 13.5V8.5C11 8.23478 11.1054 7.98043 11.2929 7.79289C11.4804 7.60536 11.7348 7.5 12 7.5ZM12 17.5C11.7348 17.5 11.4804 17.3946 11.2929 17.2071C11.1054 17.0196 11 16.7652 11 16.5C11 16.2348 11.1054 15.9804 11.2929 15.7929C11.4804 15.6054 11.7348 15.5 12 15.5C12.2652 15.5 12.5196 15.6054 12.7071 15.7929C12.8946 15.9804 13 16.2348 13 16.5C13 16.7652 12.8946 17.0196 12.7071 17.2071C12.5196 17.3946 12.2652 17.5 12 17.5Z" fill="#DA1E28"/>
</svg>
