<svg width="24" height="25" viewBox="0 0 24 25" fill="none" xmlns="http://www.w3.org/2000/svg">
<path d="M13.3141 12.3998L16.8491 8.86382C16.9446 8.77157 17.0208 8.66123 17.0732 8.53922C17.1256 8.41722 17.1532 8.286 17.1543 8.15322C17.1555 8.02044 17.1302 7.88876 17.0799 7.76587C17.0296 7.64297 16.9554 7.53132 16.8615 7.43742C16.7676 7.34353 16.6559 7.26928 16.533 7.219C16.4101 7.16872 16.2784 7.14342 16.1457 7.14457C16.0129 7.14572 15.8817 7.17331 15.7597 7.22572C15.6377 7.27813 15.5273 7.35431 15.4351 7.44982L11.8991 10.9848L8.36406 7.44982C8.27182 7.35431 8.16147 7.27813 8.03947 7.22572C7.91746 7.17331 7.78624 7.14572 7.65346 7.14457C7.52069 7.14342 7.38901 7.16872 7.26611 7.219C7.14321 7.26928 7.03156 7.34353 6.93767 7.43742C6.84378 7.53132 6.76952 7.64297 6.71924 7.76587C6.66896 7.88876 6.64366 8.02044 6.64481 8.15322C6.64597 8.286 6.67355 8.41722 6.72596 8.53922C6.77837 8.66123 6.85455 8.77157 6.95006 8.86382L10.4851 12.3988L6.95006 15.9348C6.85455 16.0271 6.77837 16.1374 6.72596 16.2594C6.67355 16.3814 6.64597 16.5126 6.64481 16.6454C6.64366 16.7782 6.66896 16.9099 6.71924 17.0328C6.76952 17.1557 6.84378 17.2673 6.93767 17.3612C7.03156 17.4551 7.14321 17.5294 7.26611 17.5796C7.38901 17.6299 7.52069 17.6552 7.65346 17.6541C7.78624 17.6529 7.91746 17.6253 8.03947 17.5729C8.16147 17.5205 8.27182 17.4443 8.36406 17.3488L11.8991 13.8138L15.4351 17.3488C15.5273 17.4443 15.6377 17.5205 15.7597 17.5729C15.8817 17.6253 16.0129 17.6529 16.1457 17.6541C16.2784 17.6552 16.4101 17.6299 16.533 17.5796C16.6559 17.5294 16.7676 17.4551 16.8615 17.3612C16.9554 17.2673 17.0296 17.1557 17.0799 17.0328C17.1302 16.9099 17.1555 16.7782 17.1543 16.6454C17.1532 16.5126 17.1256 16.3814 17.0732 16.2594C17.0208 16.1374 16.9446 16.0271 16.8491 15.9348L13.3141 12.3988V12.3998Z" fill="#21272A"/>
</svg>
