<svg width="32" height="32" viewBox="0 0 32 32" fill="none" xmlns="http://www.w3.org/2000/svg">
<path fill-rule="evenodd" clip-rule="evenodd" d="M0.720703 16.3482L0.722247 16.1879L0.725431 16.0275L0.730263 15.8671L0.736735 15.7067L0.744863 15.5463L0.754631 15.3859L0.766055 15.2256L0.779119 15.0653L0.793839 14.905L0.810207 14.7448L0.828223 14.5848L0.847879 14.4248L0.869191 14.265L0.892151 14.1053L0.916751 13.9458L0.942999 13.7865L0.970895 13.6273L1.00042 13.4684L1.0316 13.3097L1.06442 13.1512L1.09887 12.993L1.13495 12.835L1.17268 12.6774L1.21202 12.5201L1.25301 12.3631L1.29561 12.2064L1.33984 12.0501L1.38569 11.8942L1.43315 11.7386L1.48222 11.5835L1.53291 11.4288L1.58521 11.2745L1.6391 11.1206L1.69459 10.9673L1.75168 10.8144L1.81035 10.662L1.87062 10.5102L1.93246 10.3588L1.99587 10.2081L2.06086 10.0578L2.12741 9.90816L2.19552 9.75912L2.26518 9.61072L2.3364 9.46288L2.40916 9.31568L2.48346 9.1692L2.55928 9.02336L2.63663 8.87816L2.7155 8.73376L2.79587 8.59L2.87776 8.44696L2.96114 8.30472L3.04601 8.1632L3.13236 8.02248L3.22019 7.88256L3.30949 7.74344L3.40025 7.6052L3.49246 7.46768L3.58612 7.33112L3.68122 7.19536L3.77774 7.06048L3.87567 6.92656L3.97502 6.79344L4.07578 6.66136L4.17793 6.53016L4.28146 6.39987L4.38636 6.27059L4.49263 6.14229L4.60026 6.01498L4.70923 5.88866L4.81954 5.76338L4.93118 5.63913L5.04413 5.51592L5.15839 5.39378L5.27394 5.2727L5.39078 5.15272L5.5089 5.03383L5.62827 4.91606L5.7489 4.79941L5.87077 4.6839L5.99388 4.56954L6.1182 4.45634L6.24373 4.34433L6.37046 4.2335L6.49837 4.12386L6.62745 4.01544L6.75769 3.90825L6.88908 3.80229L7.02161 3.69758L7.15526 3.59412L7.28998 3.49194L7.4259 3.39104L7.56286 3.29144L7.70086 3.19314L7.8399 3.09616L7.98006 3.0005L8.12118 2.90618L8.26334 2.81321L8.40654 2.72159L8.55078 2.63135L8.6959 2.54249L8.84206 2.45501L8.9891 2.36894L9.1371 2.28427L9.28606 2.20102L9.4359 2.11921L9.58662 2.03882L9.73822 1.9599L9.8907 1.88242L10.0441 1.80641L10.1982 1.73187L10.3533 1.65882L10.509 1.58726L10.6657 1.5172L10.823 1.44865L10.9812 1.38162L11.1401 1.31611L11.2997 1.25214L11.46 1.1897L11.621 1.12882L11.7827 1.06948L11.9451 1.01172L12.1081 0.95552L12.2718 0.900896L12.4361 0.847864L12.6009 0.796416L12.7665 0.746568L12.9325 0.698328L13.0991 0.651696L13.2663 0.606672L13.434 0.563272L13.6021 0.521504L13.7708 0.481376L13.94 0.442872L14.1096 0.406024L14.2796 0.370816L14.4501 0.337264L14.6209 0.305376L14.7922 0.275144L14.9639 0.246584L15.1359 0.219696L15.3082 0.19448L15.4809 0.170952L15.6538 0.149104L15.8271 0.128944L16.0006 0.110464L16.1744 0.093696L16.3484 0.078616L16.5226 0.0652321L16.697 0.0535601L17.6349 0L17.6885 4.51894L17.7191 4.51858L17.8486 4.5184L17.9781 4.51949L18.1077 4.52185L18.2373 4.52549L18.3669 4.5304L18.4966 4.53658L18.6263 4.54404L18.756 4.55278L18.8856 4.56279L19.0153 4.57409L19.1448 4.58666L19.2743 4.60052L19.4037 4.61565L19.533 4.63206L19.6622 4.64974L19.7913 4.6687L19.9203 4.68895L20.0492 4.71047L20.1778 4.73326L20.3064 4.75734L20.4347 4.78268L20.5628 4.8093L20.6908 4.83719L20.8185 4.86635L20.9459 4.89678L21.0732 4.92847L21.2001 4.96144L21.3268 4.99566L21.4532 5.03115L21.5793 5.0679L21.7051 5.1059L21.8305 5.14515L21.9557 5.18566L22.0805 5.22742L22.2049 5.27042L22.3289 5.31467L22.4525 5.36015L22.5757 5.40688L22.6985 5.45483L22.8209 5.50402L22.9429 5.55444L23.0643 5.60607L23.1853 5.65893L23.3059 5.713L23.4259 5.76828L23.5454 5.82476L23.6645 5.88245L23.7829 5.94134L23.9009 6.00142L24.0182 6.06268L24.135 6.12513L24.2513 6.18876L24.3669 6.25356L24.4819 6.31953L24.5963 6.38666L24.7101 6.45496L24.8232 6.5244L24.9357 6.59496L25.0474 6.66672L25.1585 6.73952L25.2689 6.81352L25.3787 6.88864L25.4877 6.9648L25.596 7.04216L25.7035 7.12056L25.8102 7.20008L25.9163 7.28072L26.0215 7.3624L26.126 7.4452L26.2296 7.52896L26.3325 7.61384L26.4345 7.69984L26.5357 7.7868L26.6361 7.8748L26.7356 7.96384L26.8341 8.05392L26.9319 8.14504L27.0288 8.23712L27.1248 8.33016L27.2198 8.42424L27.314 8.51928L27.4072 8.61536L27.4995 8.71232L27.5908 8.81024L27.6812 8.90912L27.7705 9.00896L27.8589 9.10968L27.9464 9.21136L28.0328 9.31392L28.1182 9.41736L28.2026 9.52176L28.286 9.62696L28.3683 9.73304L28.4496 9.84L28.5298 9.94784L28.6089 10.0565L28.687 10.166L28.764 10.2763L28.8399 10.3874L28.9147 10.4993L28.9884 10.612L29.0609 10.7255L29.1323 10.8398L29.2026 10.9547L29.2717 11.0705L29.3397 11.187L29.4065 11.3042L29.4722 11.4221L29.5367 11.5407L29.6 11.66L29.6621 11.78L29.7229 11.9006L29.7826 12.0219L29.8411 12.1439L29.8984 12.2665L29.9544 12.3897L30.0092 12.5135L30.0627 12.6379L30.1149 12.763L30.166 12.8885L30.2157 13.0146L30.2642 13.1413L30.3114 13.2686L30.3573 13.3962L30.402 13.5246L30.4453 13.6533L30.4874 13.7826L30.5281 13.9122L30.5676 14.0424L30.6057 14.173L30.6425 14.3041L30.6779 14.4356L30.7121 14.5675L30.7448 14.6998L30.7763 14.8325L30.8064 14.9655L30.8351 15.099L30.8625 15.2326L30.8885 15.3668L30.9132 15.5012L30.9365 15.6359L30.9585 15.7709L30.979 15.9062L30.9982 16.0418L31.016 16.1775L31.0324 16.3136L31.0474 16.4498L31.061 16.5863L31.0733 16.723L31.0841 16.8598L31.0936 16.9969L31.1016 17.1341L31.1082 17.2714L31.1135 17.4089L31.1173 17.5464L31.1197 17.6841L31.1207 17.8218L31.1203 17.9597L31.1185 18.0976L31.1152 18.2356L31.1105 18.3735L31.1045 18.5115L31.097 18.6495L31.0881 18.7875L31.0777 18.9255L31.066 19.0634L31.0528 19.2014L31.0382 19.3392L31.0221 19.4769L31.0047 19.6146L30.9859 19.7521L30.9656 19.8895L30.9439 20.0268L30.9208 20.1639L30.8962 20.3009L30.8703 20.4377L30.8429 20.5743L30.8141 20.7107L30.7839 20.8469L30.7523 20.9829L30.7193 21.1186L30.6849 21.254L30.649 21.3891L30.6118 21.524L30.5732 21.6586L30.5332 21.7928L30.4917 21.9268L30.4489 22.0603L30.4047 22.1936L30.3591 22.3264L30.3121 22.4589L30.2637 22.591L30.214 22.7226L30.1629 22.8538L30.1104 22.9846L30.0565 23.1149L30.0013 23.2447L29.9448 23.3742L29.8869 23.503L29.8276 23.6314L29.7669 23.7592L29.705 23.8865L29.6417 24.0133L29.5771 24.1394L29.5111 24.2651L29.4439 24.3901L29.3753 24.5146L29.3054 24.6383L29.2342 24.7615L29.1617 24.8841L29.088 25.0059L29.0129 25.1272L28.9365 25.2477L28.8589 25.3675L28.7801 25.4866L28.7 25.605L28.6186 25.7227L28.536 25.8397L28.4521 25.9558L28.367 26.0713L28.2807 26.1859L28.1932 26.2998L28.1045 26.4127L28.0145 26.525L27.9234 26.6363L27.8311 26.7468L27.7376 26.8565L27.6429 26.9653L27.5471 27.0732L27.4501 27.1802L27.3521 27.2864L27.2529 27.3916L27.1525 27.4959L27.051 27.5992L26.9484 27.7016L26.8447 27.803L26.74 27.9035L26.6341 28.003L26.5273 28.1015L26.4193 28.199L26.3102 28.2954L26.2002 28.3909L26.0891 28.4854L25.977 28.5787L25.8639 28.671L25.7498 28.7622L25.6347 28.8524L25.5186 28.9414L25.4016 29.0294L25.2836 29.1162L25.1647 29.202L25.0448 29.2866L24.924 29.3701L24.8023 29.4524L24.6797 29.5335L24.5562 29.6135L24.4319 29.6924L24.3067 29.77L24.1806 29.8465L24.0537 29.9217L23.9259 29.9958L23.7974 30.0686L23.668 30.1401L23.5379 30.2105L23.4069 30.2795L23.2753 30.3474L23.1428 30.414L23.0096 30.4793L22.8757 30.5433L22.741 30.6061L22.6057 30.6675L22.4697 30.7277L22.3329 30.7865L22.1956 30.844L22.0576 30.9002L21.9189 30.9551L21.7797 31.0086L21.6397 31.0609L21.4993 31.1117L21.3581 31.1612L21.2165 31.2093L21.0744 31.2561L20.9316 31.3014L20.7883 31.3454L20.6445 31.3881L20.5003 31.4293L20.3555 31.4691L20.2103 31.5076L20.0645 31.5446L19.9185 31.5802L19.7719 31.6144L19.6249 31.6471L19.4775 31.6785L19.3297 31.7084L19.1816 31.7369L19.0331 31.7639L18.8843 31.7894L18.7351 31.8136L18.5857 31.8363L18.4358 31.8575L18.2858 31.8773L18.1355 31.8956L17.9849 31.9124L17.8341 31.9278L17.683 31.9417L17.5318 31.9541L17.3804 31.965L17.2288 31.9745L17.0769 31.9825L16.925 31.989L16.773 31.9939L16.6208 31.9974L16.4685 31.9994L16.3161 32L16.1637 31.999L16.0113 31.9966L15.8587 31.9926L15.7061 31.9871L15.5536 31.9802L15.401 31.9718L15.2485 31.9618L15.096 31.9503L14.9436 31.9374L14.7912 31.9229L14.6389 31.907L14.4867 31.8895L14.3346 31.8706L14.1826 31.8501L14.0309 31.8281L13.8792 31.8046L13.7277 31.7797L13.5765 31.7533L13.4253 31.7253L13.2745 31.6958L13.1239 31.665L12.9736 31.6325L12.8234 31.5986L12.6737 31.5632L12.5241 31.5263L12.3749 31.4879L12.2261 31.4481L12.0776 31.4068L11.9294 31.364L11.7816 31.3198L11.6342 31.274L11.4873 31.2268L11.3407 31.1782L11.1945 31.128L11.0489 31.0764L10.9037 31.0234L10.7589 30.969L10.6147 30.913L10.471 30.8557L10.3278 30.7969L10.1852 30.7366L10.0431 30.675L9.90158 30.612L9.76062 30.5475L9.6203 30.4816L9.48062 30.4143L9.34158 30.3456L9.2031 30.2755L9.06534 30.2041L8.9283 30.1312L8.79182 30.057L8.65614 29.9814L8.52118 29.9045L8.38694 29.8262L8.25342 29.7465L8.1207 29.6655L7.9887 29.5831L7.8575 29.4995L7.72718 29.4145L7.59758 29.3282L7.46886 29.2406L7.34102 29.1517L7.21398 29.0615L7.08783 28.97L6.96257 28.8773L6.8382 28.7832L6.71475 28.6879L6.59222 28.5914L6.47063 28.4936L6.35 28.3946L6.23033 28.2944L6.11163 28.193L5.99393 28.0903L5.87723 27.9864L5.76155 27.8814L5.6469 27.7752L5.53329 27.6678L5.42074 27.5593L5.30925 27.4495L5.19883 27.3387L5.08951 27.2268L4.9813 27.1137L4.87419 26.9995L4.76822 26.8842L4.66338 26.7678L4.5597 26.6504L4.45717 26.5319L4.35582 26.4123L4.25565 26.2918L4.15668 26.1701L4.05891 26.0474L3.96237 25.9238L3.86705 25.7991L3.77297 25.6734L3.68014 25.5468L3.58857 25.4192L3.49826 25.2906L3.40925 25.1612L3.32152 25.0308L3.2351 24.8994L3.14998 24.7673L3.06618 24.6342L2.98372 24.5002L2.9026 24.3654L2.82282 24.2296L2.74442 24.0931L2.66737 23.9558L2.5917 23.8176L2.51742 23.6786L2.44452 23.5388L2.37304 23.3983L2.30296 23.257L2.23431 23.115L2.16709 22.9722L2.1013 22.8288L2.03695 22.6846L1.97406 22.5398L1.91262 22.3942L1.85266 22.248L1.79417 22.1011L1.73716 21.9536L1.68165 21.8055L1.62762 21.6568L1.5751 21.5075L1.52409 21.3577L1.47459 21.2072L1.42662 21.0562L1.38018 20.9047L1.33527 20.7527L1.2919 20.6002L1.25008 20.4471L1.20981 20.2937L1.1711 20.1398L1.13394 19.9854L1.09837 19.8306L1.06436 19.6753L1.03193 19.5197L1.00108 19.3637L0.971815 19.2074L0.944143 19.0506L0.918071 18.8936L0.893591 18.7362L0.870719 18.5786L0.849455 18.4206L0.829807 18.2623L0.811767 18.1038L0.795343 17.9451L0.780543 17.7862L0.767367 17.627L0.755815 17.4677L0.745895 17.3082L0.737607 17.1485L0.730951 16.9886L0.725927 16.8287L0.722543 16.6686L0.720807 16.5085L0.720703 16.3482ZM16.2232 4.61359L16.1867 1.53343L16.1521 1.53678L15.993 1.5537L15.8344 1.57217L15.6758 1.5922L15.5179 1.61372L15.3601 1.63681L15.2025 1.66144L15.0454 1.68758L14.8885 1.71529L14.7323 1.74443L14.5759 1.77521L14.4206 1.80737L14.2651 1.84115L14.1104 1.87637L13.9558 1.91315L13.802 1.95134L13.6485 1.99107L13.4955 2.03228L13.3429 2.07498L13.1911 2.1191L13.0395 2.16475L12.8887 2.21182L12.7383 2.26038L12.5887 2.31028L12.4393 2.36176L12.2908 2.41462L12.1429 2.46887L11.9955 2.52461L11.8489 2.5817L11.703 2.64018L11.5576 2.70015L11.4129 2.76149L11.2689 2.82422L11.1257 2.88828L10.9832 2.95373L10.8415 3.0205L10.7003 3.08874L10.5601 3.15822L10.4207 3.22906L10.2821 3.30124L10.1442 3.37475L10.0073 3.44952L9.87102 3.52567L9.73558 3.60314L9.60134 3.68172L9.4675 3.76183L9.33494 3.84301L9.20326 3.92545L9.07222 4.00924L8.94222 4.09426L8.81318 4.18051L8.68534 4.26778L8.55798 4.3566L8.4319 4.44637L8.30678 4.53738L8.18254 4.62963L8.05942 4.72298L7.93742 4.81746L7.81614 4.91326L7.69622 5.00997L7.57718 5.10795L7.45926 5.207L7.34238 5.3072L7.2267 5.40836L7.11189 5.5108L6.99838 5.61415L6.88585 5.7187L6.77462 5.82412L6.6644 5.93069L6.55541 6.03822L6.44753 6.14681L6.3407 6.25652L6.23526 6.36698L6.13102 6.4784L6.0277 6.59112L5.92581 6.70456L5.82517 6.8188L5.72556 6.93424L5.6274 7.0504L5.53033 7.1676L5.43456 7.2856L5.34005 7.40456L5.24677 7.52432L5.15486 7.64488L5.06416 7.76632L4.9747 7.88872L4.88669 8.01168L4.79985 8.13568L4.71439 8.26032L4.63026 8.38576L4.54738 8.512L4.46591 8.63896L4.38578 8.76656L4.30698 8.89496L4.2296 9.024L4.15349 9.15384L4.07874 9.2844L4.00547 9.41544L3.93351 9.5472L3.86293 9.67968L3.79378 9.81272L3.72598 9.9464L3.65965 10.0806L3.5947 10.2154L3.53118 10.3507L3.46904 10.4867L3.40838 10.6231L3.34909 10.7602L3.29125 10.8977L3.23489 11.0356L3.17994 11.1741L3.12642 11.313L3.07438 11.4524L3.02378 11.5922L2.97468 11.7324L2.92699 11.8731L2.88078 12.0142L2.83606 12.1556L2.79281 12.2973L2.751 12.4395L2.7107 12.5819L2.67188 12.7247L2.63453 12.8678L2.59866 13.0112L2.5643 13.1548L2.53142 13.2987L2.50002 13.4429L2.47013 13.5873L2.44173 13.7318L2.41482 13.8766L2.38941 14.0216L2.3655 14.1668L2.34309 14.3121L2.32218 14.4575L2.30277 14.6031L2.28486 14.7488L2.26845 14.8946L2.25354 15.0405L2.24014 15.1864L2.22824 15.3323L2.21784 15.4784L2.20894 15.6245L2.20154 15.7705L2.19565 15.9166L2.19125 16.0626L2.18835 16.2086L2.18694 16.3545L2.18704 16.5004L2.18862 16.6462L2.1917 16.7919L2.19627 16.9375L2.20233 17.083L2.20988 17.2283L2.2189 17.3734L2.22942 17.5185L2.24141 17.6633L2.25488 17.8079L2.26982 17.9524L2.28623 18.0966L2.30411 18.2406L2.32346 18.3842L2.34426 18.5277L2.36654 18.6709L2.39025 18.8137L2.41542 18.9562L2.44204 19.0985L2.4701 19.2403L2.49959 19.3819L2.53052 19.523L2.56288 19.6638L2.59666 19.8042L2.63186 19.9442L2.66849 20.0838L2.7065 20.2229L2.74594 20.3616L2.78678 20.4998L2.829 20.6376L2.87262 20.7749L2.9176 20.9116L2.96397 21.0478L3.01171 21.1835L3.06082 21.3187L3.11126 21.4533L3.1631 21.5874L3.21624 21.7208L3.27073 21.8537L3.32656 21.9859L3.3837 22.1175L3.44218 22.2486L3.50195 22.379L3.56303 22.5086L3.6254 22.6377L3.68906 22.766L3.754 22.8937L3.82022 23.0206L3.88769 23.1469L3.95642 23.2724L4.0264 23.3971L4.09762 23.5211L4.17006 23.6444L4.24374 23.7668L4.3186 23.8885L4.39471 24.0094L4.47198 24.1294L4.55046 24.2486L4.63012 24.367L4.71093 24.4846L4.7929 24.6013L4.87604 24.7171L4.9603 24.8321L5.04571 24.9462L5.13221 25.0593L5.21986 25.1715L5.30857 25.2828L5.39839 25.3932L5.48932 25.5027L5.58126 25.6112L5.6743 25.7187L5.76838 25.8253L5.86352 25.9309L5.95966 26.0354L6.05681 26.139L6.15498 26.2416L6.25414 26.3432L6.35432 26.4438L6.45544 26.5432L6.55755 26.6417L6.66058 26.739L6.76455 26.8354L6.86949 26.9307L6.97532 27.0249L7.082 27.1179L7.18966 27.2099L7.29822 27.3008L7.4075 27.3906L7.51782 27.4793L7.62886 27.5667L7.74078 27.6531L7.8535 27.7384L7.9671 27.8225L8.08142 27.9054L8.19654 27.9871L8.31238 28.0677L8.4291 28.1471L8.54646 28.2253L8.6647 28.3023L8.7835 28.3782L8.9031 28.4527L9.02342 28.5262L9.1443 28.5983L9.26598 28.6693L9.38822 28.739L9.51118 28.8074L9.6347 28.8746L9.75894 28.9406L9.88366 29.0054L10.009 29.0689L10.135 29.131L10.2616 29.192L10.3886 29.2517L10.5162 29.3101L10.6443 29.3671L10.773 29.423L10.9021 29.4774L11.0318 29.5307L11.1619 29.5826L11.2925 29.6332L11.4235 29.6826L11.5549 29.7306L11.6867 29.7772L11.819 29.8226L11.9517 29.8666L12.0847 29.9094L12.218 29.9507L12.3518 29.9908L12.4858 30.0295L12.6202 30.0669L12.7549 30.103L12.8899 30.1377L13.0252 30.171L13.1606 30.203L13.2965 30.2338L13.4325 30.263L13.5686 30.291L13.7051 30.3177L13.8417 30.343L13.9785 30.3669L14.1155 30.3894L14.2526 30.4106L14.3899 30.4305L14.5273 30.449L14.6648 30.4662L14.8024 30.4819L14.9401 30.4963L15.0778 30.5094L15.2157 30.5211L15.3535 30.5315L15.4913 30.5405L15.6293 30.5482L15.7671 30.5544L15.9049 30.5594L16.0428 30.563L16.1806 30.5651L16.3183 30.566L16.456 30.5655L16.5936 30.5637L16.731 30.5606L16.8684 30.556L17.0057 30.5502L17.1428 30.543L17.2797 30.5344L17.4165 30.5246L17.5531 30.5134L17.6895 30.5008L17.8257 30.4869L17.9617 30.4717L18.0973 30.4552L18.2329 30.4374L18.3681 30.4182L18.503 30.3977L18.6377 30.3759L18.7721 30.3528L18.9061 30.3284L19.0398 30.3027L19.1732 30.2758L19.3062 30.2474L19.4389 30.2179L19.5711 30.187L19.703 30.1549L19.8345 30.1215L19.9655 30.0868L20.0961 30.0509L20.2263 30.0137L20.356 29.9752L20.4853 29.9355L20.614 29.8946L20.7423 29.8524L20.8701 29.809L20.9972 29.7644L21.124 29.7185L21.2501 29.6714L21.3757 29.6231L21.5008 29.5737L21.6252 29.523L21.749 29.4711L21.8723 29.4181L21.9949 29.3638L22.1169 29.3085L22.2383 29.2519L22.359 29.1942L22.479 29.1354L22.5985 29.0753L22.7171 29.0142L22.8351 28.9519L22.9525 28.8885L23.0689 28.824L23.1848 28.7584L23.2998 28.6918L23.4143 28.6239L23.5277 28.5551L23.6407 28.4851L23.7526 28.4142L23.8638 28.3421L23.9743 28.269L24.084 28.1947L24.1926 28.1197L24.3005 28.0434L24.4077 27.9662L24.5139 27.8881L24.6193 27.8088L24.7237 27.7287L24.8275 27.6474L24.9301 27.5654L25.0319 27.4823L25.1329 27.3982L25.2329 27.3132L25.3319 27.2274L25.4301 27.1405L25.5272 27.0528L25.6234 26.9642L25.7187 26.8746L25.8129 26.7843L25.9062 26.693L25.9985 26.6008L26.0898 26.5078L26.1801 26.414L26.2693 26.3194L26.3575 26.2241L26.4449 26.1276L26.5309 26.0306L26.6161 25.9327L26.7001 25.8342L26.7832 25.7347L26.8651 25.6346L26.9459 25.5338L27.0257 25.4321L27.1044 25.3298L27.1821 25.2267L27.2585 25.123L27.3339 25.0186L27.4083 24.9134L27.4813 24.8078L27.5533 24.7013L27.6241 24.5943L27.6939 24.4866L27.7626 24.3782L27.83 24.2694L27.8962 24.1599L27.9614 24.0496L28.0253 23.9391L28.0881 23.8278L28.1497 23.716L28.2101 23.6038L28.2693 23.4909L28.3274 23.3774L28.3841 23.2639L28.4398 23.1494L28.4943 23.0346L28.5475 22.9194L28.5995 22.8037L28.6503 22.6875L28.6998 22.571L28.7482 22.4539L28.7953 22.3365L28.8412 22.219L28.8858 22.1006L28.9292 21.9822L28.9714 21.8632L29.0124 21.744L29.0521 21.6244L29.0904 21.5048L29.1277 21.3843L29.1635 21.264L29.1981 21.1433L29.2316 21.0224L29.2637 20.901L29.2945 20.7797L29.3242 20.6579L29.3525 20.5359L29.3797 20.4138L29.4055 20.2914L29.43 20.1691L29.4533 20.0462L29.4753 19.9237L29.496 19.8006L29.5154 19.6775L29.5336 19.5544L29.5505 19.431L29.5661 19.3078L29.5805 19.1841L29.5936 19.0608L29.6054 18.9371L29.6159 18.8137L29.6252 18.6898L29.6332 18.5665L29.6399 18.4427L29.6453 18.3189L29.6495 18.1954L29.6525 18.0721L29.6541 17.9483L29.6545 17.8248L29.6536 17.7014L29.6514 17.5782L29.648 17.4549L29.6433 17.3321L29.6373 17.2088L29.6301 17.0861L29.6217 16.9634L29.612 16.841L29.601 16.7185L29.5889 16.5965L29.5754 16.4744L29.5607 16.3527L29.5448 16.2311L29.5277 16.1099L29.5092 15.9886L29.4896 15.8679L29.4688 15.7476L29.4467 15.6272L29.4233 15.5072L29.3989 15.3877L29.3731 15.2681L29.3463 15.1494L29.3181 15.0305L29.2889 14.9124L29.2582 14.7942L29.2265 14.6768L29.1937 14.5596L29.1596 14.4426L29.1244 14.3264L29.088 14.2106L29.0503 14.0948L29.0117 13.9799L28.9717 13.8651L28.9307 13.751L28.8885 13.6372L28.8452 13.5242L28.8006 13.4113L28.755 13.299L28.7084 13.1875L28.6606 13.0765L28.6115 12.9656L28.5617 12.8558L28.5104 12.746L28.4582 12.6373L28.4049 12.529L28.3505 12.421L28.2951 12.314L28.2385 12.2074L28.1809 12.1014L28.1225 11.9963L28.0627 11.8915L28.0021 11.7876L27.9402 11.6842L27.8777 11.5818L27.8137 11.4796L27.7491 11.3784L27.6833 11.2777L27.6165 11.1778L27.5489 11.0789L27.4801 10.9803L27.4105 10.8826L27.3399 10.7857L27.2683 10.6896L27.1958 10.5941L27.1224 10.4995L27.0481 10.4056L26.9728 10.3126L26.8966 10.2203L26.8195 10.1288L26.7415 10.0382L26.6627 9.94832L26.5831 9.85936L26.5025 9.7712L26.4209 9.68376L26.3389 9.59752L26.2556 9.51176L26.1718 9.4272L26.0871 9.34328L26.0017 9.2604L25.9151 9.17816L25.8282 9.0972L25.7402 9.01688L25.6515 8.93752L25.5623 8.8592L25.4722 8.78176L25.3811 8.70504L25.2895 8.62944L25.1973 8.5548L25.1042 8.48112L25.0105 8.40832L24.9162 8.33672L24.8209 8.26568L24.7253 8.196L24.6289 8.1272L24.5318 8.05928L24.4343 7.99248L24.3357 7.92648L24.2372 7.86184L24.1375 7.79792L24.0375 7.73512L23.9367 7.67328L23.8355 7.61248L23.7337 7.5528L23.6316 7.49424L23.5285 7.4364L23.4253 7.37992L23.3213 7.32432L23.2169 7.26984L23.1121 7.21648L23.0067 7.16408L22.9009 7.11272L22.7946 7.06256L22.6878 7.01336L22.5808 6.96536L22.4732 6.91832L22.3617 6.87096L22.2569 6.82768L22.1479 6.78384L22.039 6.74136L21.9293 6.69968L21.8195 6.65936L21.7093 6.62L21.5988 6.58184L21.4878 6.54464L21.3768 6.50872L21.2653 6.47384L21.1535 6.44008L21.0417 6.40752L20.9293 6.37597L20.8166 6.3455L20.7041 6.31628L20.5913 6.28817L20.4777 6.26109L20.3646 6.23526L20.2509 6.21046L20.1373 6.18686L20.0232 6.16433L19.9093 6.14298L19.795 6.12274L19.6809 6.10368L19.5661 6.08568L19.4517 6.06887L19.3371 6.05318L19.2223 6.03861L19.1075 6.02518L18.9927 6.01291L18.8778 6.00176L18.7629 5.99174L18.6478 5.98286L18.5327 5.9751L18.4179 5.96849L18.303 5.96301L18.1877 5.95865L18.0731 5.95543L17.9582 5.95334L17.8434 5.95238L17.7285 5.95254L17.7054 5.9528L17.7417 9.01056L17.8069 9.01024L17.8908 9.01072L17.9747 9.012L18.0587 9.01416L18.1428 9.01712L18.2269 9.02096L18.3109 9.0256L18.3951 9.03104L18.4793 9.03736L18.5634 9.04448L18.6476 9.05248L18.7317 9.06128L18.8158 9.07096L18.8999 9.08144L18.9839 9.09272L19.0679 9.10496L19.1518 9.11792L19.2357 9.13176L19.3195 9.14648L19.4032 9.162L19.4868 9.1784L19.5703 9.1956L19.6537 9.2136L19.737 9.23248L19.8201 9.25224L19.9032 9.2728L19.986 9.29416L20.0687 9.3164L20.1513 9.33944L20.2337 9.36336L20.3159 9.38808L20.3979 9.4136L20.4797 9.44L20.5613 9.4672L20.6427 9.49528L20.7238 9.52416L20.8048 9.55384L20.8854 9.58432L20.9659 9.61568L21.0461 9.64784L21.126 9.6808L21.2056 9.71464L21.2849 9.7492L21.364 9.78464L21.4427 9.8208L21.5211 9.85784L21.5993 9.89568L21.677 9.93432L21.7545 9.97376L21.8316 10.014L21.9083 10.055L21.9847 10.0968L22.0607 10.1394L22.1363 10.1827L22.2116 10.2269L22.2865 10.2718L22.3609 10.3175L22.4349 10.364L22.5085 10.4113L22.5817 10.4593L22.6544 10.508L22.7267 10.5575L22.7985 10.6078L22.8699 10.6588L22.9408 10.7106L23.0112 10.7631L23.0812 10.8163L23.1505 10.8703L23.2195 10.925L23.2879 10.9804L23.3558 11.0366L23.4232 11.0934L23.4901 11.151L23.5564 11.2092L23.6221 11.2682L23.6873 11.3278L23.7519 11.3882L23.816 11.4492L23.8794 11.5109L23.9423 11.5733L24.0046 11.6363L24.0663 11.7001L24.1274 11.7644L24.1878 11.8294L24.2477 11.8951L24.3069 11.9614L24.3654 12.0283L24.4233 12.0959L24.4806 12.1641L24.5373 12.2329L24.5932 12.3023L24.6485 12.3723L24.703 12.443L24.7569 12.5142L24.8101 12.586L24.8626 12.6583L24.9145 12.7313L24.9655 12.8048L25.0159 12.8789L25.0655 12.9535L25.1144 13.0286L25.1625 13.1044L25.21 13.1806L25.2567 13.2574L25.3026 13.3346L25.3477 13.4125L25.3921 13.4907L25.4357 13.5695L25.4785 13.6488L25.5206 13.7286L25.5619 13.8088L25.6023 13.8895L25.642 13.9707L25.6809 14.0523L25.7189 14.1343L25.7561 14.2169L25.7925 14.2998L25.8281 14.3831L25.8628 14.4669L25.8967 14.551L25.9297 14.6356L25.9619 14.7205L25.9933 14.8058L26.0237 14.8915L26.0534 14.9776L26.0822 15.064L26.1101 15.1508L26.1371 15.2378L26.1633 15.3253L26.1885 15.413L26.2129 15.5011L26.2364 15.5895L26.259 15.6782L26.2807 15.7671L26.3015 15.8563L26.3214 15.9458L26.3404 16.0356L26.3585 16.1256L26.3756 16.2158L26.3918 16.3064L26.4072 16.3971L26.4216 16.488L26.435 16.5792L26.4476 16.6705L26.4592 16.762L26.4699 16.8538L26.4796 16.9457L26.4884 17.0377L26.4963 17.1299L26.5032 17.2222L26.5092 17.3147L26.5141 17.4073L26.5182 17.5L26.5213 17.5929L26.5235 17.6858L26.5247 17.7788L26.5249 17.8719L26.5242 17.965L26.5225 18.0582L26.5199 18.1515L26.5163 18.2449L26.5117 18.3382L26.5062 18.4315L26.4997 18.525L26.4923 18.6183L26.4838 18.7117L26.4745 18.805L26.4641 18.8983L26.4528 18.9917L26.4405 19.0849L26.4272 19.1781L26.4129 19.2712L26.3977 19.3642L26.3816 19.4572L26.3644 19.5501L26.3463 19.6429L26.3272 19.7355L26.3071 19.8281L26.2861 19.9205L26.2641 20.0127L26.2412 20.1048L26.2173 20.1968L26.1924 20.2886L26.1665 20.3802L26.1397 20.4715L26.112 20.5627L26.0833 20.6538L26.0535 20.7446L26.0229 20.835L25.9913 20.9254L25.9588 21.0154L25.9253 21.1052L25.8908 21.1947L25.8554 21.284L25.8191 21.373L25.7818 21.4617L25.7436 21.55L25.7045 21.6381L25.6644 21.7258L25.6233 21.8132L25.5814 21.9002L25.5385 21.987L25.4947 22.0733L25.45 22.1593L25.4044 22.2448L25.3578 22.33L25.3104 22.4148L25.2621 22.4992L25.2128 22.5831L25.1626 22.6667L25.1116 22.7498L25.0597 22.8325L25.0068 22.9146L24.9531 22.9964L24.8985 23.0776L24.843 23.1584L24.7867 23.2387L24.7295 23.3185L24.6714 23.3978L24.6125 23.4766L24.5528 23.5548L24.4921 23.6325L24.4307 23.7096L24.3684 23.7862L24.3053 23.8622L24.2413 23.9378L24.1765 24.0126L24.1109 24.087L24.0445 24.1606L23.9773 24.2338L23.9093 24.3062L23.8406 24.3782L23.771 24.4494L23.7007 24.52L23.6295 24.5899L23.5577 24.6593L23.4849 24.7279L23.4116 24.7958L23.3374 24.8632L23.2625 24.9298L23.1869 24.9957L23.1105 25.061L23.0334 25.1254L22.9556 25.1893L22.8771 25.2523L22.7978 25.3146L22.7179 25.3762L22.6373 25.4371L22.5561 25.4972L22.4741 25.5566L22.3915 25.6152L22.3082 25.673L22.2243 25.73L22.1397 25.7862L22.0545 25.8417L21.9686 25.8963L21.8822 25.9502L21.7951 26.0031L21.7075 26.0554L21.6192 26.1067L21.5304 26.1572L21.4409 26.2069L21.3509 26.2558L21.2604 26.3038L21.1693 26.3509L21.0776 26.3971L20.9854 26.4425L20.8927 26.487L20.7994 26.5306L20.7057 26.5734L20.6114 26.6152L20.5167 26.6562L20.4214 26.6962L20.3257 26.7353L20.2296 26.7735L20.1329 26.8108L20.0359 26.8472L19.9384 26.8826L19.8405 26.9171L19.7421 26.9506L19.6433 26.9833L19.5441 27.0149L19.4446 27.0456L19.3447 27.0754L19.2444 27.1041L19.1437 27.1319L19.0427 27.1587L18.9413 27.1846L18.8397 27.2094L18.7377 27.2334L18.6353 27.2562L18.5327 27.2782L18.4297 27.299L18.3265 27.319L18.2231 27.3379L18.1193 27.3558L18.0153 27.3727L17.9112 27.3886L17.8067 27.4034L17.702 27.4173L17.5971 27.4302L17.4921 27.4419L17.3868 27.4527L17.2813 27.4625L17.1757 27.4712L17.07 27.4789L16.9641 27.4855L16.858 27.4911L16.7518 27.4957L16.6455 27.4992L16.5391 27.5017L16.4326 27.5031L16.326 27.5035L16.2193 27.5029L16.1127 27.5011L16.0059 27.4984L15.8991 27.4946L15.7923 27.4897L15.6854 27.4838L15.5786 27.4768L15.4717 27.4688L15.3649 27.4597L15.2581 27.4495L15.1513 27.4383L15.0446 27.4261L14.938 27.4128L14.8313 27.3984L14.7249 27.383L14.6185 27.3665L14.5121 27.349L14.4059 27.3303L14.2998 27.3107L14.1939 27.29L14.0881 27.2682L13.9825 27.2454L13.877 27.2215L13.7717 27.1966L13.6666 27.1706L13.5617 27.1435L13.457 27.1154L13.3525 27.0863L13.2484 27.0562L13.1444 27.025L13.0406 26.9927L12.9372 26.9594L12.8341 26.925L12.7311 26.8897L12.6285 26.8533L12.5263 26.8158L12.4243 26.7774L12.3227 26.7378L12.2214 26.6974L12.1205 26.6558L12.0199 26.6132L11.9197 26.5697L11.82 26.525L11.7205 26.4794L11.6216 26.4329L11.523 26.3853L11.4249 26.3366L11.3271 26.287L11.2299 26.2365L11.1331 26.1849L11.0368 26.1323L10.9409 26.0788L10.8456 26.0242L10.7507 25.9688L10.6564 25.9123L10.5625 25.8549L10.4693 25.7966L10.3765 25.7372L10.2844 25.677L10.1928 25.6157L10.1017 25.5535L10.0113 25.4905L9.92142 25.4265L9.83214 25.3615L9.7435 25.2957L9.65542 25.2289L9.56806 25.1612L9.48134 25.0926L9.39526 25.0231L9.30982 24.9528L9.22502 24.8815L9.14094 24.8094L9.05758 24.7364L8.97486 24.6626L8.89286 24.5878L8.81166 24.5123L8.7311 24.4359L8.65126 24.3586L8.57222 24.2806L8.49398 24.2017L8.41646 24.1219L8.33966 24.0414L8.26366 23.9601L8.18854 23.878L8.11414 23.795L8.04054 23.7114L7.96782 23.6269L7.89582 23.5417L7.82478 23.4557L7.75446 23.3689L7.6851 23.2814L7.61654 23.1932L7.54886 23.1042L7.48206 23.0146L7.41606 22.9242L7.35102 22.8331L7.28694 22.7414L7.22366 22.6489L7.16134 22.5558L7.09995 22.462L7.03948 22.3675L6.97994 22.2724L6.92134 22.1766L6.86369 22.0802L6.80701 21.9833L6.75128 21.8856L6.69652 21.7874L6.64274 21.6886L6.58995 21.5892L6.53814 21.4892L6.48734 21.3886L6.43754 21.2875L6.38874 21.1858L6.34097 21.0837L6.29422 20.9809L6.24849 20.8777L6.2038 20.7739L6.16015 20.6696L6.11754 20.5649L6.076 20.4597L6.0355 20.3539L5.99607 20.2478L5.9577 20.1412L5.92042 20.0341L5.88421 19.9266L5.84908 19.8187L5.81504 19.7104L5.7821 19.6018L5.75025 19.4926L5.7195 19.3832L5.68986 19.2734L5.66134 19.1631L5.63393 19.0526L5.60764 18.9418L5.58248 18.8306L5.55844 18.719L5.53554 18.6073L5.51377 18.4952L5.49313 18.3828L5.47365 18.2702L5.45531 18.1573L5.43812 18.0442L5.42208 17.9308L5.4072 17.8172L5.39348 17.7034L5.38092 17.5894L5.36952 17.4752L5.35929 17.3608L5.35023 17.2462L5.34234 17.1316L5.33562 17.0167L5.33009 16.9018L5.32573 16.7867L5.32255 16.6715L5.32055 16.5562L5.31974 16.4408L5.32011 16.3254L5.32166 16.2098L5.32442 16.0943L5.32834 15.9787L5.33347 15.863L5.33979 15.7474L5.3473 15.6318L5.356 15.5162L5.36589 15.4005L5.37698 15.285L5.38926 15.1694L5.40274 15.0539L5.41741 14.9385L5.43327 14.8231L5.45033 14.7078L5.46858 14.5927L5.48802 14.4777L5.50866 14.3628L5.5305 14.248L5.55352 14.1334L5.57773 14.019L5.60314 13.9046L5.62973 13.7906L5.6575 13.6766L5.68646 13.563L5.71662 13.4495L5.74794 13.3362L5.78046 13.2233L5.81415 13.1106L5.84902 12.9981L5.88506 12.8858L5.92228 12.774L5.96066 12.6624L6.00022 12.5511L6.04094 12.4402L6.08282 12.3295L6.12586 12.2193L6.17006 12.1094L6.21542 11.9998L6.26192 11.8907L6.30957 11.7819L6.35837 11.6736L6.4083 11.5657L6.45937 11.4582L6.51157 11.3511L6.5649 11.2446L6.61936 11.1384L6.67494 11.0328L6.73162 10.9276L6.78943 10.823L6.84834 10.7188L6.90835 10.6151L6.96946 10.5121L7.03167 10.4095L7.09496 10.3075L7.15934 10.2061L7.22478 10.1052L7.29134 10.005L7.35886 9.90528L7.42758 9.80624L7.49726 9.70776L7.56798 9.60992L7.63982 9.5128L7.71262 9.41624L7.78654 9.3204L7.86142 9.2252L7.93734 9.13072L8.01422 9.03696L8.09214 8.94384L8.1711 8.85144L8.25102 8.75976L8.3319 8.66888L8.41382 8.57872L8.49662 8.48928L8.58046 8.40064L8.66526 8.31272L8.75094 8.22568L8.83758 8.13936L8.92518 8.05384L9.01374 7.9692L9.10318 7.88528L9.1935 7.80232L9.28478 7.72008L9.37694 7.6388L9.4699 7.55832L9.56382 7.47872L9.65862 7.4L9.75422 7.32216L9.8507 7.2452L9.94806 7.1692L10.0462 7.09408L10.1452 7.01992L10.245 6.94664L10.3456 6.87432L10.4469 6.80296L10.5492 6.73256L10.6521 6.66312L10.7558 6.59472L10.8604 6.5272L10.9656 6.46072L11.0716 6.39523L11.1783 6.33074L11.2857 6.26727L11.3938 6.20482L11.5027 6.1434L11.6122 6.08301L11.7224 6.02367L11.8333 5.96538L11.9448 5.90815L12.0569 5.85198L12.1697 5.79689L12.2832 5.74287L12.3973 5.68994L12.5119 5.6381L12.6272 5.58736L12.743 5.53773L12.8594 5.48921L12.9764 5.4418L13.0938 5.39552L13.2119 5.35037L13.3305 5.30635L13.4496 5.26348L13.5692 5.22175L13.6893 5.18118L13.8098 5.14176L13.9308 5.10351L14.0523 5.06642L14.1742 5.03051L14.2966 4.99578L14.4193 4.96223L14.5425 4.92987L14.6661 4.8987L14.7901 4.86874L14.9145 4.83998L15.0392 4.81241L15.1642 4.78606L15.2896 4.76092L15.4153 4.73701L15.5413 4.71431L15.6677 4.69284L15.7943 4.6726L15.9212 4.65359L16.0483 4.63582L16.1757 4.61929L16.2232 4.61359ZM16.2769 9.14888L16.2403 6.05751L16.1359 6.0721L16.0237 6.08893L15.9113 6.10687L15.7997 6.12584L15.688 6.14597L15.5768 6.16713L15.4658 6.18938L15.3553 6.21266L15.2449 6.23706L15.1349 6.26253L15.0251 6.28905L14.9158 6.31662L14.8066 6.34529L14.7017 6.37392L14.59 6.40568L14.4821 6.43744L14.3746 6.47024L14.2677 6.504L14.1611 6.53888L14.0549 6.5748L13.9491 6.61168L13.8439 6.64952L13.7391 6.68848L13.6348 6.72832L13.5309 6.76928L13.4277 6.81112L13.3246 6.85408L13.2223 6.89792L13.1205 6.94272L13.0193 6.98848L12.9185 7.03528L12.8181 7.08304L12.7187 7.1316L12.6194 7.18128L12.5212 7.23176L12.4231 7.28336L12.326 7.3356L12.229 7.38912L12.133 7.4432L12.0377 7.49832L11.9428 7.5544L11.8486 7.61128L11.7549 7.6692L11.6622 7.72776L11.5699 7.78736L11.4785 7.84776L11.3877 7.90896L11.2975 7.97112L11.2079 8.03416L11.1193 8.09776L11.0313 8.16248L10.9439 8.22792L10.8573 8.29416L10.7716 8.36112L10.6864 8.42904L10.6021 8.4976L10.5186 8.56696L10.4357 8.63728L10.3539 8.70808L10.2726 8.77984L10.1921 8.85232L10.1125 8.92544L10.0338 8.99928L9.95566 9.074L9.87862 9.1492L9.8023 9.2252L9.7267 9.302L9.65206 9.37936L9.57822 9.45752L9.50526 9.53624L9.43318 9.6156L9.3619 9.69568L9.29142 9.77648L9.22214 9.85768L9.1535 9.93968L9.08574 10.0223L9.01894 10.1054L8.9531 10.1891L8.88798 10.2736L8.8239 10.3585L8.7607 10.444L8.69846 10.5301L8.6371 10.6167L8.57678 10.7038L8.51734 10.7914L8.45878 10.8797L8.40118 10.9684L8.34462 11.0575L8.28902 11.1472L8.2343 11.2375L8.18054 11.3281L8.12782 11.4192L8.07598 11.5108L8.02526 11.6026L7.97542 11.6951L7.92646 11.7881L7.8787 11.8812L7.83182 11.975L7.78598 12.069L7.7411 12.1634L7.69726 12.2582L7.65438 12.3534L7.61254 12.4489L7.57166 12.5447L7.5319 12.6409L7.4931 12.7374L7.45526 12.8342L7.41846 12.9314L7.38278 13.0287L7.34798 13.1265L7.31438 13.2243L7.28166 13.3226L7.25006 13.421L7.21942 13.5198L7.1899 13.6186L7.16134 13.7178L7.1339 13.817L7.10743 13.9166L7.08202 14.0163L7.05766 14.1162L7.03435 14.2163L7.01207 14.3165L6.99083 14.4169L6.97066 14.5174L6.95152 14.6179L6.93342 14.7187L6.91639 14.8195L6.90038 14.9205L6.88545 15.0214L6.87154 15.1225L6.85869 15.2236L6.84688 15.3248L6.83612 15.426L6.82641 15.5273L6.81774 15.6286L6.81013 15.7298L6.80355 15.8311L6.79802 15.9324L6.79353 16.0336L6.79009 16.1348L6.78768 16.2359L6.78632 16.337L6.78599 16.4382L6.7867 16.5391L6.78846 16.64L6.79124 16.7408L6.79505 16.8414L6.7999 16.9421L6.80577 17.0426L6.81266 17.1428L6.82059 17.243L6.82954 17.343L6.8395 17.4429L6.85049 17.5426L6.86248 17.6421L6.8755 17.7414L6.88951 17.8405L6.90454 17.9394L6.92057 18.038L6.9376 18.1365L6.95563 18.2347L6.97465 18.3326L6.99466 18.4303L7.01566 18.5277L7.03765 18.6249L7.06059 18.7216L7.08454 18.8182L7.10946 18.9144L7.13534 19.0103L7.16214 19.1058L7.18998 19.2011L7.2187 19.296L7.24846 19.3906L7.2791 19.4848L7.3107 19.5786L7.34326 19.6719L7.3767 19.765L7.4111 19.8576L7.44646 19.9498L7.4827 20.0416L7.51982 20.133L7.5579 20.2239L7.59686 20.3144L7.63678 20.4044L7.6775 20.494L7.71918 20.583L7.76174 20.6717L7.8051 20.7598L7.84942 20.8474L7.89454 20.9346L7.94054 21.0213L7.98742 21.1074L8.0351 21.193L8.08366 21.278L8.13302 21.3625L8.18326 21.4464L8.2343 21.5298L8.28614 21.6126L8.33878 21.6949L8.3923 21.7766L8.44646 21.8576L8.50158 21.9382L8.55734 22.018L8.61398 22.0973L8.67134 22.1759L8.7295 22.2539L8.78838 22.3313L8.84806 22.4081L8.90838 22.4842L8.9695 22.5596L9.03134 22.6344L9.0939 22.7086L9.15718 22.7819L9.22118 22.8548L9.28582 22.9268L9.35118 22.9982L9.41718 23.0689L9.4839 23.1389L9.55126 23.2082L9.61934 23.2767L9.68798 23.3446L9.75734 23.4117L9.82734 23.4781L9.89782 23.5437L9.9691 23.6086L10.0409 23.6727L10.1133 23.7361L10.1863 23.7987L10.2599 23.8606L10.3341 23.9217L10.4088 23.9819L10.4841 24.0414L10.5599 24.1002L10.6363 24.1582L10.7133 24.2153L10.7906 24.2716L10.8685 24.3271L10.947 24.3818L11.026 24.4358L11.1055 24.4889L11.1854 24.5411L11.2658 24.5926L11.3467 24.6432L11.428 24.693L11.5097 24.7419L11.592 24.79L11.6745 24.8372L11.7577 24.8836L11.841 24.9291L11.9249 24.9738L12.0092 25.0177L12.0937 25.0606L12.1788 25.1027L12.2642 25.1439L12.3499 25.1843L12.4359 25.2238L12.5224 25.2624L12.609 25.3001L12.6961 25.3369L12.7834 25.3729L12.8711 25.4079L12.9589 25.4421L13.0472 25.4754L13.1357 25.5078L13.2244 25.5393L13.3133 25.5698L13.4026 25.5996L13.4921 25.6283L13.5817 25.6562L13.6717 25.6832L13.7617 25.7093L13.852 25.7345L13.9425 25.7587L14.0331 25.7822L14.1239 25.8046L14.2149 25.8261L14.306 25.8467L14.3973 25.8665L14.4886 25.8853L14.5801 25.9031L14.6717 25.9201L14.7633 25.9362L14.8552 25.9514L14.947 25.9655L15.0389 25.9789L15.1309 25.9913L15.2229 26.0028L15.315 26.0134L15.4071 26.023L15.4993 26.0318L15.5914 26.0396L15.6836 26.0465L15.7757 26.0526L15.8678 26.0576L15.9599 26.0618L16.0521 26.0651L16.1441 26.0675L16.236 26.069L16.3279 26.0695L16.4197 26.0692L16.5115 26.0679L16.6032 26.0658L16.6947 26.0628L16.7862 26.0589L16.8775 26.054L16.9687 26.0483L17.0597 26.0417L17.1507 26.0342L17.2414 26.0258L17.3321 26.0165L17.4225 26.0063L17.5128 25.9953L17.6029 25.9834L17.6927 25.9706L17.7824 25.957L17.8718 25.9424L17.9609 25.927L18.05 25.9107L18.1387 25.8936L18.2272 25.8757L18.3155 25.8568L18.4033 25.8371L18.491 25.8166L18.5784 25.7952L18.6655 25.773L18.7523 25.75L18.8388 25.7261L18.9249 25.7014L19.0108 25.6758L19.0962 25.6495L19.1813 25.6223L19.2662 25.5943L19.3506 25.5655L19.4347 25.5359L19.5184 25.5055L19.6017 25.4743L19.6845 25.4423L19.767 25.4095L19.8492 25.3759L19.9309 25.3416L20.0121 25.3065L20.0929 25.2706L20.1733 25.234L20.2533 25.1966L20.3328 25.1584L20.4117 25.1196L20.4904 25.0798L20.5684 25.0395L20.6461 24.9983L20.723 24.9566L20.7997 24.914L20.8758 24.8707L20.9513 24.8267L21.0265 24.782L21.101 24.7366L21.1749 24.6906L21.2485 24.6438L21.3213 24.5964L21.3937 24.5482L21.4657 24.4994L21.5369 24.4499L21.6074 24.3999L21.6777 24.349L21.7471 24.2978L21.8161 24.2457L21.8845 24.193L21.952 24.1398L22.0193 24.0858L22.0858 24.0312L22.1515 23.9762L22.2169 23.9202L22.2815 23.864L22.3454 23.8072L22.4089 23.7495L22.4715 23.6916L22.5336 23.633L22.595 23.5738L22.6557 23.5141L22.7157 23.4538L22.7752 23.393L22.8339 23.3316L22.8918 23.2698L22.9492 23.2074L23.0059 23.1445L23.0617 23.0812L23.1171 23.0172L23.1716 22.9529L23.2253 22.8881L23.2785 22.8226L23.3309 22.757L23.3825 22.6907L23.4335 22.6241L23.4837 22.5569L23.5332 22.4894L23.5818 22.4215L23.6299 22.353L23.6771 22.2842L23.7236 22.215L23.7694 22.1454L23.8142 22.0755L23.8585 22.0051L23.902 21.9343L23.9447 21.8633L23.9865 21.7918L24.0278 21.7199L24.0681 21.648L24.1077 21.5754L24.1465 21.5026L24.1845 21.4296L24.2218 21.356L24.2581 21.2826L24.2939 21.2083L24.3286 21.1343L24.3629 21.0595L24.396 20.9849L24.4285 20.9096L24.4602 20.8344L24.491 20.7589L24.5211 20.683L24.5504 20.607L24.5787 20.5309L24.6065 20.4543L24.6332 20.3777L24.6592 20.3009L24.6844 20.2238L24.7088 20.1466L24.7324 20.0692L24.7551 19.9918L24.777 19.914L24.7981 19.8362L24.8184 19.7582L24.8378 19.6802L24.8565 19.6021L24.8743 19.5236L24.8913 19.4452L24.9075 19.3667L24.9228 19.2882L24.9373 19.2096L24.951 19.1306L24.9639 19.052L24.976 18.9731L24.9872 18.8942L24.9976 18.8154L25.0072 18.7364L25.016 18.6572L25.0239 18.5786L25.0311 18.4993L25.0374 18.4203L25.0429 18.3415L25.0476 18.2625L25.0514 18.1836L25.0545 18.1048L25.0567 18.0258L25.0581 17.9472L25.0587 17.8683L25.0585 17.7897L25.0575 17.711L25.0557 17.6327L25.053 17.5542L25.0496 17.4759L25.0453 17.3979L25.0403 17.3197L25.0345 17.2417L25.0279 17.1641L25.0205 17.0862L25.0122 17.0089L25.0032 16.9314L24.9934 16.8542L24.9829 16.7772L24.9715 16.7002L24.9593 16.6236L24.9465 16.5472L24.9328 16.471L24.9183 16.395L24.903 16.3189L24.887 16.2434L24.8703 16.1681L24.8528 16.0929L24.8345 16.0178L24.8155 15.9434L24.7957 15.8688L24.7752 15.7948L24.7539 15.7209L24.7319 15.6474L24.7092 15.5741L24.6857 15.501L24.6615 15.4285L24.6366 15.3562L24.6109 15.2839L24.5846 15.2123L24.5575 15.1409L24.5297 15.0699L24.5013 14.9991L24.4721 14.9286L24.4422 14.8588L24.4116 14.789L24.3804 14.7198L24.3485 14.651L24.3158 14.5824L24.2825 14.5142L24.2486 14.4466L24.2139 14.3791L24.1787 14.3123L24.1428 14.2459L24.1061 14.1796L24.069 14.1141L24.0311 14.0488L23.9926 13.9841L23.9534 13.9196L23.9138 13.8558L23.8733 13.7922L23.8325 13.7294L23.7909 13.6669L23.7487 13.6049L23.7058 13.5432L23.6625 13.4822L23.6186 13.4217L23.574 13.3614L23.5289 13.3019L23.4832 13.2428L23.4371 13.1843L23.3902 13.1262L23.3429 13.0686L23.2949 13.0116L23.2465 12.955L23.1977 12.8992L23.1481 12.8437L23.0981 12.7889L23.0476 12.7345L22.9967 12.6809L22.945 12.6275L22.8931 12.575L22.8405 12.5227L22.7875 12.4713L22.7341 12.4204L22.6802 12.37L22.6257 12.3202L22.5709 12.271L22.5156 12.2225L22.4597 12.1743L22.4037 12.1271L22.347 12.0802L22.29 12.034L22.2325 11.9885L22.1746 11.9434L22.1164 11.899L22.0579 11.8554L21.9987 11.8122L21.9391 11.7696L21.8795 11.7279L21.8191 11.6866L21.7588 11.6462L21.6979 11.6062L21.6366 11.5668L21.5749 11.5281L21.5132 11.4902L21.4508 11.4527L21.3883 11.4161L21.3253 11.3799L21.2623 11.3446L21.1988 11.3099L21.1349 11.2758L21.0709 11.2423L21.0066 11.2097L20.942 11.1775L20.877 11.1461L20.812 11.1154L20.7468 11.0854L20.6809 11.0558L20.6153 11.0272L20.5492 10.9992L20.4828 10.9718L20.4163 10.9451L20.3497 10.9192L20.2829 10.8939L20.2156 10.8692L20.1485 10.8454L20.0809 10.8221L20.0133 10.7995L19.9457 10.7777L19.8777 10.7566L19.8098 10.7361L19.7413 10.7162L19.6731 10.6972L19.6047 10.6788L19.5361 10.6611L19.4675 10.6441L19.3985 10.6278L19.3297 10.6122L19.2609 10.5973L19.1918 10.583L19.1225 10.5694L19.0537 10.5567L18.9843 10.5446L18.9151 10.5331L18.8456 10.5223L18.7765 10.5123L18.7068 10.5029L18.6376 10.4943L18.5681 10.4863L18.4987 10.479L18.4293 10.4725L18.3598 10.4666L18.2906 10.4614L18.221 10.4569L18.1517 10.453L18.0826 10.4499L18.013 10.4474L17.944 10.4457L17.8749 10.4446L17.8058 10.4442L17.7586 10.4444L17.7944 13.4647L17.8157 13.4648L17.8554 13.4654L17.8952 13.4663L17.935 13.4676L17.9749 13.4694L18.0148 13.4716L18.0547 13.4742L18.0947 13.4772L18.1347 13.4806L18.1748 13.4845L18.2149 13.4887L18.2549 13.4934L18.2951 13.4985L18.3352 13.504L18.3753 13.5099L18.4155 13.5163L18.4557 13.5231L18.4957 13.5303L18.5359 13.538L18.576 13.546L18.6161 13.5546L18.6561 13.5634L18.6962 13.5728L18.7361 13.5826L18.7761 13.5927L18.8161 13.6034L18.8559 13.6144L18.8957 13.6258L18.9355 13.6378L18.9752 13.6501L19.0148 13.6629L19.0544 13.6761L19.0938 13.6897L19.1333 13.7037L19.1725 13.7182L19.2117 13.733L19.2509 13.7483L19.2899 13.7641L19.3288 13.7802L19.3676 13.7968L19.4063 13.8138L19.4449 13.8313L19.4833 13.8491L19.5217 13.8674L19.5598 13.8861L19.5979 13.9052L19.6357 13.9248L19.6735 13.9447L19.7111 13.9651L19.7485 13.9859L19.7858 14.0071L19.8229 14.0287L19.8598 14.0507L19.8966 14.0732L19.9332 14.0961L19.9696 14.1194L20.0057 14.143L20.0417 14.167L20.0776 14.1916L20.1132 14.2165L20.1485 14.2418L20.1837 14.2674L20.2187 14.2935L20.2534 14.32L20.2879 14.3469L20.3222 14.3742L20.3562 14.4018L20.39 14.4298L20.4236 14.4583L20.4569 14.4871L20.4899 14.5163L20.5227 14.5459L20.5552 14.5759L20.5874 14.6062L20.6193 14.637L20.6511 14.6681L20.6825 14.6995L20.7136 14.7314L20.7445 14.7635L20.7749 14.7961L20.8052 14.829L20.8351 14.8623L20.8648 14.8959L20.8941 14.9299L20.923 14.9642L20.9517 14.9989L20.9801 15.0339L21.0081 15.0693L21.0357 15.105L21.0631 15.141L21.0901 15.1774L21.1168 15.2141L21.143 15.251L21.169 15.2884L21.1946 15.3261L21.2198 15.3641L21.2447 15.4023L21.2693 15.441L21.2933 15.4798L21.3171 15.519L21.3405 15.5586L21.3634 15.5983L21.3861 15.6384L21.4082 15.6788L21.4301 15.7194L21.4515 15.7604L21.4725 15.8016L21.4931 15.843L21.5133 15.8848L21.533 15.9269L21.5524 15.9691L21.5713 16.0117L21.5899 16.0545L21.608 16.0975L21.6257 16.1408L21.6429 16.1843L21.6597 16.2281L21.6761 16.2721L21.692 16.3163L21.7074 16.3608L21.7225 16.4054L21.737 16.4503L21.7511 16.4954L21.7648 16.5407L21.778 16.5862L21.7907 16.632L21.803 16.6778L21.8149 16.7239L21.8261 16.7702L21.837 16.8167L21.8474 16.8633L21.8573 16.9102L21.8668 16.9571L21.8757 17.0042L21.8841 17.0515L21.8921 17.099L21.8997 17.1465L21.9066 17.1942L21.9131 17.2421L21.9191 17.2901L21.9246 17.3382L21.9297 17.3865L21.9341 17.4348L21.9381 17.4833L21.9417 17.5319L21.9446 17.5806L21.9471 17.6294L21.949 17.6782L21.9505 17.7272L21.9514 17.7762L21.9519 17.8254L21.9517 17.8745L21.9512 17.9238L21.9501 17.9731L21.9484 18.0225L21.9462 18.0719L21.9435 18.1214L21.9403 18.1709L21.9365 18.2204L21.9322 18.27L21.9274 18.3196L21.9221 18.3692L21.9162 18.4188L21.9098 18.4685L21.9029 18.5182L21.8955 18.5678L21.8875 18.6174L21.8789 18.667L21.8699 18.7166L21.8603 18.7662L21.8502 18.8157L21.8395 18.8652L21.8283 18.9146L21.8166 18.9641L21.8043 19.0134L21.7915 19.0628L21.7782 19.112L21.7643 19.1612L21.7499 19.2102L21.7349 19.2593L21.7195 19.3082L21.7035 19.357L21.6869 19.4058L21.6699 19.4545L21.6522 19.503L21.6341 19.5514L21.6154 19.5997L21.5962 19.6479L21.5765 19.6959L21.5562 19.7438L21.5354 19.7916L21.5141 19.8393L21.4922 19.8867L21.4698 19.934L21.4469 19.9812L21.4235 20.0282L21.3995 20.075L21.375 20.1216L21.35 20.168L21.3245 20.2142L21.2985 20.2603L21.2719 20.3062L21.2448 20.3518L21.2173 20.3972L21.1891 20.4425L21.1605 20.4874L21.1314 20.5322L21.1017 20.5767L21.0717 20.621L21.041 20.665L21.0099 20.7088L20.9782 20.7523L20.9461 20.7956L20.9135 20.8386L20.8804 20.8813L20.8468 20.9238L20.8127 20.9659L20.7781 21.0078L20.7431 21.0494L20.7076 21.0906L20.6715 21.1316L20.635 21.1722L20.5981 21.2126L20.5606 21.2526L20.5228 21.2923L20.4844 21.3318L20.4456 21.3708L20.4063 21.4094L20.3666 21.4478L20.3264 21.4858L20.2857 21.5234L20.2447 21.5607L20.2032 21.5977L20.1613 21.6342L20.1189 21.6704L20.0761 21.7062L20.0328 21.7416L19.9891 21.7766L19.945 21.8112L19.9005 21.8454L19.8557 21.8793L19.8103 21.9127L19.7646 21.9457L19.7185 21.9782L19.672 22.0105L19.625 22.0422L19.5777 22.0735L19.5301 22.1043L19.482 22.1348L19.4335 22.1648L19.3847 22.1943L19.3355 22.2234L19.286 22.252L19.2361 22.2802L19.1857 22.3078L19.1352 22.3351L19.0842 22.3618L19.0329 22.3882L18.9813 22.4139L18.9293 22.4393L18.877 22.4641L18.8244 22.4884L18.7715 22.5122L18.7182 22.5355L18.6647 22.5584L18.6109 22.5807L18.5567 22.6025L18.5022 22.6238L18.4475 22.6446L18.3925 22.6648L18.3372 22.6846L18.2817 22.7038L18.2258 22.7224L18.1697 22.7406L18.1134 22.7581L18.0569 22.7751L18 22.7917L17.9429 22.8076L17.8857 22.823L17.8281 22.8378L17.7704 22.8522L17.7124 22.8658L17.6542 22.879L17.5958 22.8916L17.5373 22.9037L17.4785 22.9151L17.4195 22.926L17.3604 22.9363L17.301 22.9461L17.2416 22.9552L17.1819 22.9638L17.1221 22.9718L17.0621 22.9792L17.0021 22.986L16.9418 22.9922L16.8814 22.9978L16.8209 23.0028L16.7603 23.0073L16.6995 23.011L16.6387 23.0143L16.5777 23.017L16.5167 23.019L16.4555 23.0203L16.3943 23.0211L16.333 23.0214L16.2717 23.021L16.2102 23.0199L16.1487 23.0182L16.0872 23.016L16.0256 23.0131L15.9639 23.0096L15.9022 23.0055L15.8405 23.0008L15.7789 22.9954L15.7171 22.9894L15.6554 22.9829L15.5937 22.9756L15.532 22.9678L15.4702 22.9593L15.4085 22.9502L15.3469 22.9405L15.2853 22.9302L15.2237 22.9192L15.1621 22.9076L15.1006 22.8954L15.0392 22.8826L14.9778 22.8691L14.9165 22.855L14.8553 22.8402L14.7941 22.825L14.7331 22.809L14.6722 22.7923L14.6113 22.7751L14.5507 22.7573L14.4901 22.7388L14.4296 22.7197L14.3693 22.7L14.309 22.6797L14.249 22.6587L14.1891 22.6371L14.1293 22.6149L14.0698 22.5921L14.0104 22.5686L13.9512 22.5446L13.8921 22.5199L13.8333 22.4946L13.7747 22.4687L13.7162 22.4422L13.6581 22.4151L13.6 22.3874L13.5422 22.359L13.4847 22.3301L13.4274 22.3006L13.3704 22.2704L13.3136 22.2397L13.257 22.2083L13.2008 22.1764L13.1447 22.1438L13.089 22.1107L13.0336 22.077L12.9785 22.0427L12.9236 22.0078L12.869 21.9724L12.8148 21.9363L12.7609 21.8997L12.7073 21.8625L12.6541 21.8247L12.6011 21.7864L12.5485 21.7474L12.4963 21.708L12.4445 21.668L12.3929 21.6274L12.3418 21.5862L12.291 21.5446L12.2406 21.5023L12.1906 21.4595L12.141 21.4162L12.0918 21.3723L12.043 21.3279L11.9946 21.283L11.9466 21.2375L11.8991 21.1915L11.8519 21.145L11.8053 21.098L11.759 21.0505L11.7132 21.0024L11.6678 20.9539L11.6229 20.9048L11.5785 20.8553L11.5345 20.8053L11.4911 20.7547L11.4481 20.7038L11.4055 20.6522L11.3635 20.6002L11.322 20.5478L11.2809 20.495L11.2404 20.4416L11.2004 20.3878L11.1609 20.3335L11.122 20.2788L11.0835 20.2236L11.0456 20.168L11.0082 20.112L10.9714 20.0555L10.9352 19.9986L10.8994 19.9414L10.8643 19.8837L10.8297 19.8255L10.7957 19.767L10.7622 19.7081L10.7293 19.6488L10.697 19.5891L10.6653 19.529L10.6342 19.4686L10.6037 19.4078L10.5737 19.3466L10.5445 19.285L10.5157 19.2232L10.4877 19.161L10.4602 19.0984L10.4333 19.0354L10.4071 18.9722L10.3815 18.9086L10.3565 18.8448L10.3322 18.7806L10.3086 18.7161L10.2856 18.6513L10.2632 18.5862L10.2414 18.5209L10.2204 18.4552L10.2 18.3893L10.1802 18.3231L10.1611 18.2566L10.1427 18.1899L10.125 18.123L10.1079 18.0558L10.0916 17.9883L10.0759 17.9207L10.0609 17.8528L10.0465 17.7847L10.0329 17.7164L10.02 17.6479L10.0077 17.5792L9.99622 17.5103L9.98542 17.4413L9.97526 17.372L9.96582 17.3026L9.95718 17.233L9.94918 17.1634L9.9419 17.0934L9.93534 17.0234L9.9295 16.9533L9.92438 16.883L9.91998 16.8126L9.9163 16.7422L9.91334 16.6716L9.9111 16.6009L9.90966 16.5301L9.90894 16.4593L9.90886 16.3883L9.90958 16.3173L9.9111 16.2462L9.91326 16.1751L9.91622 16.1039L9.9199 16.0327L9.9243 15.9615L9.92942 15.8902L9.93534 15.819L9.94198 15.7477L9.94934 15.6764L9.9575 15.6051L9.96638 15.5338L9.97598 15.4626L9.98638 15.3914L9.9975 15.3202L10.0094 15.2491L10.022 15.178L10.0353 15.107L10.0495 15.036L10.0644 14.9651L10.08 14.8943L10.0963 14.8236L10.1134 14.753L10.1313 14.6825L10.1499 14.6121L10.1693 14.5418L10.1893 14.4717L10.2101 14.4016L10.2317 14.3318L10.2541 14.262L10.2771 14.1924L10.3009 14.123L10.3255 14.0538L10.3508 13.9847L10.3768 13.9158L10.4036 13.8472L10.4311 13.7787L10.4593 13.7104L10.4883 13.6424L10.518 13.5746L10.5485 13.507L10.5796 13.4396L10.6115 13.3725L10.6441 13.3057L10.6774 13.239L10.7114 13.1727L10.7462 13.1067L10.7817 13.041L10.8179 12.9755L10.8548 12.9103L10.8924 12.8454L10.9307 12.781L10.9697 12.7167L11.0094 12.6528L11.0499 12.5893L11.091 12.526L11.1328 12.4631L11.1753 12.4006L11.2185 12.3385L11.2623 12.2767L11.3069 12.2154L11.3521 12.1543L11.3979 12.0937L11.4445 12.0335L11.4917 11.9737L11.5396 11.9143L11.5881 11.8553L11.6373 11.7968L11.6871 11.7386L11.7376 11.681L11.7887 11.6238L11.8405 11.567L11.8929 11.5107L11.9459 11.4549L11.9996 11.3995L12.0538 11.3446L12.1087 11.2902L12.1642 11.2363L12.2203 11.183L12.277 11.1301L12.3343 11.0777L12.3921 11.0258L12.4506 10.9745L12.5097 10.9238L12.5693 10.8734L12.6296 10.8238L12.6903 10.7746L12.7517 10.726L12.8135 10.678L12.876 10.6306L12.9389 10.5837L13.0025 10.5374L13.0665 10.4917L13.1311 10.4466L13.1962 10.402L13.2619 10.3581L13.328 10.3148L13.3946 10.2722L13.4618 10.2301L13.5294 10.1886L13.5976 10.1478L13.6661 10.1077L13.7353 10.0682L13.8048 10.0293L13.8748 9.99104L13.9453 9.95352L14.0161 9.91664L14.0875 9.8804L14.1593 9.84488L14.2315 9.81L14.3041 9.77584L14.3772 9.74232L14.4506 9.70952L14.5245 9.67744L14.5988 9.646L14.6734 9.61528L14.7484 9.58536L14.8238 9.55608L14.8996 9.52752L14.9757 9.49968L15.0521 9.47264L15.129 9.44624L15.2061 9.42064L15.2837 9.39576L15.3614 9.3716L15.4396 9.34824L15.518 9.3256L15.5967 9.30376L15.6757 9.28264L15.755 9.26224L15.8346 9.24264L15.9145 9.22384L15.9946 9.20584L16.0749 9.18856L16.1556 9.17208L16.2364 9.1564L16.2769 9.14888ZM17.2705 14.9571L16.3484 15.1774L16.2942 10.6098L16.2508 10.6196L16.1853 10.635L16.12 10.6511L16.0551 10.6678L15.9903 10.685L15.9259 10.703L15.8615 10.7216L15.7977 10.7406L15.7338 10.7605L15.6707 10.7807L15.6074 10.8018L15.5445 10.8234L15.482 10.8455L15.4197 10.8682L15.3579 10.8915L15.2962 10.9155L15.2349 10.94L15.1739 10.965L15.113 10.9908L15.0529 11.0169L14.9929 11.0438L14.9333 11.071L14.8739 11.099L14.815 11.1274L14.7563 11.1565L14.6982 11.186L14.6404 11.2161L14.5829 11.2467L14.5259 11.2778L14.4692 11.3095L14.4129 11.3418L14.3572 11.3744L14.3014 11.4078L14.2464 11.4414L14.1918 11.4757L14.1376 11.5104L14.0837 11.5457L14.0303 11.5814L13.9773 11.6177L13.9248 11.6543L13.8728 11.6914L13.821 11.7291L13.7698 11.7673L13.7191 11.8058L13.6688 11.8449L13.619 11.8842L13.5697 11.9242L13.5208 11.9646L13.4723 12.0054L13.4245 12.0466L13.377 12.0882L13.3301 12.1302L13.2836 12.1727L13.2376 12.2157L13.1921 12.259L13.1472 12.3026L13.1026 12.3467L13.0587 12.3911L13.0153 12.436L12.9724 12.4811L12.9298 12.5269L12.888 12.5727L12.8466 12.619L12.8057 12.6658L12.7655 12.7126L12.7257 12.7601L12.6865 12.8076L12.6477 12.8558L12.6097 12.904L12.572 12.9527L12.5349 13.0018L12.4985 13.051L12.4625 13.1005L12.4271 13.1503L12.3922 13.2006L12.3579 13.251L12.3242 13.3018L12.2911 13.3526L12.2585 13.4038L12.2265 13.4554L12.1951 13.5071L12.1641 13.5593L12.1339 13.6114L12.1041 13.6639L12.0749 13.7166L12.0465 13.7695L12.0185 13.8226L11.9911 13.876L11.9642 13.9297L11.9381 13.9833L11.9124 14.0374L11.8873 14.0914L11.8629 14.1458L11.839 14.2002L11.8157 14.255L11.7931 14.3097L11.771 14.3647L11.7496 14.4198L11.7286 14.4751L11.7084 14.5304L11.6887 14.586L11.6696 14.6417L11.6511 14.6974L11.6332 14.7533L11.6159 14.8094L11.5992 14.8654L11.5832 14.9215L11.5677 14.9778L11.5527 15.0342L11.5385 15.0906L11.5248 15.1471L11.5117 15.2037L11.4992 15.2603L11.4873 15.317L11.4761 15.3737L11.4653 15.4304L11.4553 15.4873L11.4458 15.544L11.4369 15.6008L11.4286 15.6578L11.4209 15.7145L11.4139 15.7714L11.4074 15.8282L11.4015 15.885L11.3962 15.942L11.3915 15.9987L11.3874 16.0555L11.3839 16.1123L11.3809 16.169L11.3786 16.2256L11.3769 16.2822L11.3757 16.3388L11.3751 16.3953L11.3752 16.4517L11.3757 16.508L11.3769 16.5643L11.3787 16.6205L11.381 16.6766L11.3839 16.7326L11.3874 16.7884L11.3915 16.8442L11.3961 16.8998L11.4013 16.9554L11.4071 17.0109L11.4134 17.066L11.4203 17.1213L11.4277 17.1762L11.4358 17.2311L11.4444 17.2858L11.4535 17.3403L11.4632 17.3948L11.4734 17.449L11.4842 17.503L11.4955 17.5568L11.5074 17.6106L11.5198 17.664L11.5328 17.7174L11.5462 17.7703L11.5603 17.8234L11.5748 17.8759L11.5898 17.9285L11.6054 17.9806L11.6215 18.0327L11.6381 18.0845L11.6553 18.1359L11.6729 18.1874L11.6911 18.2384L11.7097 18.2891L11.7289 18.3398L11.7485 18.3901L11.7687 18.4401L11.7893 18.4898L11.8104 18.5393L11.8321 18.5886L11.8541 18.6375L11.8767 18.6862L11.8997 18.7345L11.9232 18.7825L11.9473 18.8304L11.9716 18.8778L11.9965 18.9249L12.0218 18.9718L12.0477 19.0182L12.0739 19.0645L12.1005 19.1104L12.1277 19.1558L12.1553 19.2011L12.1832 19.246L12.2116 19.2905L12.2405 19.3347L12.2697 19.3786L12.2993 19.4222L12.3293 19.4651L12.3598 19.508L12.3907 19.5504L12.4219 19.5924L12.4537 19.6342L12.4857 19.6754L12.5181 19.7163L12.5509 19.7569L12.5841 19.7971L12.6175 19.8368L12.6515 19.8762L12.6857 19.9153L12.7203 19.9538L12.7554 19.9921L12.7906 20.0298L12.8263 20.0673L12.8623 20.1042L12.8985 20.1408L12.9353 20.177L12.9722 20.2127L13.0095 20.2481L13.0471 20.283L13.085 20.3174L13.1233 20.3515L13.1617 20.3851L13.2005 20.4183L13.2396 20.4511L13.2789 20.4834L13.3186 20.5154L13.3586 20.5468L13.3987 20.5778L13.4392 20.6083L13.4799 20.6385L13.5209 20.6682L13.5621 20.6974L13.6035 20.7262L13.6452 20.7545L13.6871 20.7823L13.7292 20.8097L13.7715 20.8366L13.8142 20.8632L13.8569 20.8891L13.8999 20.9147L13.9432 20.9398L13.9865 20.9644L14.03 20.9886L14.0739 21.0123L14.1178 21.0355L14.1619 21.0582L14.2061 21.0805L14.2507 21.1023L14.2952 21.1236L14.3401 21.1445L14.3849 21.1649L14.4299 21.1847L14.4752 21.2042L14.5205 21.2231L14.5659 21.2416L14.6115 21.2596L14.6572 21.277L14.7031 21.2941L14.7489 21.3106L14.795 21.3267L14.841 21.3422L14.8872 21.3574L14.9335 21.372L14.9799 21.3862L15.0263 21.3998L15.0728 21.413L15.1194 21.4256L15.1661 21.4378L15.2127 21.4495L15.2594 21.4608L15.3061 21.4715L15.3529 21.4818L15.3998 21.4916L15.4467 21.5009L15.4936 21.5098L15.5405 21.5181L15.5874 21.526L15.6344 21.5334L15.6813 21.5403L15.7281 21.5467L15.7751 21.5526L15.822 21.5582L15.8689 21.5632L15.9158 21.5677L15.9627 21.5718L16.0095 21.5754L16.0562 21.5785L16.103 21.5811L16.1497 21.5833L16.1962 21.585L16.2429 21.5862L16.2893 21.587L16.3357 21.5874L16.3821 21.5872L16.4284 21.5866L16.4747 21.5855L16.5209 21.584L16.5668 21.5821L16.6127 21.5796L16.6587 21.5767L16.7043 21.5734L16.75 21.5696L16.7954 21.5654L16.8409 21.5607L16.8861 21.5555L16.9312 21.55L16.9763 21.544L17.0211 21.5375L17.0657 21.5306L17.1105 21.5234L17.1549 21.5156L17.1991 21.5074L17.2433 21.4988L17.2873 21.4898L17.3309 21.4803L17.3745 21.4705L17.418 21.4602L17.4613 21.4494L17.5043 21.4384L17.5472 21.4269L17.5898 21.415L17.6325 21.4026L17.6747 21.3898L17.7166 21.3767L17.7587 21.3631L17.8003 21.3492L17.8417 21.335L17.8829 21.3202L17.9239 21.3051L17.9648 21.2896L18.0053 21.2738L18.0456 21.2575L18.0857 21.241L18.1255 21.2239L18.1652 21.2066L18.2044 21.1889L18.2436 21.1708L18.2824 21.1524L18.3209 21.1336L18.3593 21.1145L18.3972 21.095L18.435 21.0752L18.4725 21.055L18.5097 21.0345L18.5466 21.0137L18.5833 20.9925L18.6197 20.971L18.6557 20.9491L18.6915 20.927L18.727 20.9045L18.7622 20.8818L18.7972 20.8586L18.8317 20.8353L18.8661 20.8115L18.9001 20.7875L18.9337 20.7633L18.967 20.7386L19.0001 20.7138L19.0328 20.6886L19.0652 20.6631L19.0973 20.6374L19.129 20.6114L19.1605 20.5852L19.1915 20.5586L19.2222 20.5318L19.2527 20.5048L19.2828 20.4774L19.3125 20.4499L19.3418 20.4222L19.3709 20.3941L19.3997 20.3658L19.4281 20.3373L19.4561 20.3086L19.4837 20.2795L19.5109 20.2504L19.538 20.2209L19.5645 20.1914L19.5908 20.1614L19.6166 20.1314L19.6421 20.1012L19.6673 20.0706L19.692 20.0401L19.7165 20.0092L19.7405 19.9782L19.7641 19.947L19.7875 19.9156L19.8104 19.8842L19.8329 19.8523L19.8552 19.8204L19.8769 19.7885L19.8984 19.7562L19.9195 19.7238L19.9401 19.6914L19.9604 19.6587L19.9803 19.6259L19.9998 19.593L20.019 19.5599L20.0377 19.5267L20.0561 19.4934L20.0741 19.4599L20.0917 19.4265L20.1089 19.3928L20.1258 19.359L20.1423 19.3252L20.1584 19.2911L20.1741 19.2571L20.1893 19.223L20.2042 19.1888L20.2188 19.1544L20.2329 19.1201L20.2467 19.0854L20.26 19.0511L20.273 19.0162L20.2855 18.9819L20.2977 18.947L20.3096 18.9122L20.3209 18.8774L20.332 18.8426L20.3426 18.8078L20.3529 18.7726L20.3627 18.7378L20.3723 18.7026L20.3813 18.6678L20.3901 18.6326L20.3984 18.5974L20.4063 18.5625L20.4138 18.5276L20.421 18.4922L20.4278 18.4573L20.4342 18.422L20.4402 18.3871L20.4459 18.3521L20.4512 18.317L20.4561 18.2818L20.4605 18.2468L20.4647 18.2119L20.4685 18.1771L20.4718 18.142L20.4749 18.1072L20.4775 18.0723L20.4797 18.0375L20.4817 18.0028L20.4832 17.9682L20.4843 17.9337L20.4851 17.899L20.4856 17.8643L20.4857 17.83L20.4853 17.7957L20.4847 17.7614L20.4837 17.7273L20.4823 17.693L20.4805 17.6593L20.4785 17.6249L20.4761 17.5914L20.4733 17.5577L20.4701 17.5238L20.4666 17.4902L20.4629 17.457L20.4586 17.4234L20.4541 17.3904L20.4493 17.3572L20.4441 17.3245L20.4385 17.2914L20.4327 17.2586L20.4265 17.2262L20.4201 17.1938L20.4132 17.1613L20.406 17.1292L20.3985 17.0971L20.3907 17.0653L20.3826 17.0337L20.3741 17.0018L20.3654 16.9706L20.3563 16.9391L20.3469 16.9082L20.3373 16.8772L20.3273 16.8465L20.3169 16.8158L20.3063 16.7853L20.2955 16.7552L20.2843 16.7252L20.2728 16.6951L20.261 16.6655L20.2489 16.6358L20.2367 16.6067L20.224 16.5774L20.2112 16.5485L20.198 16.5198L20.1845 16.4912L20.1709 16.4629L20.1569 16.4347L20.1426 16.4067L20.1281 16.379L20.1133 16.3515L20.0984 16.3242L20.0831 16.2971L20.0675 16.2702L20.0518 16.2436L20.0358 16.2172L20.0195 16.1909L20.003 16.165L19.9863 16.1393L19.9693 16.1138L19.9521 16.0884L19.9348 16.0634L19.9171 16.0386L19.8993 16.014L19.8812 15.9897L19.8629 15.9656L19.8445 15.9418L19.8257 15.9181L19.8068 15.8948L19.7877 15.8717L19.7684 15.8488L19.7489 15.8262L19.7293 15.8038L19.7093 15.7818L19.6893 15.7599L19.669 15.7382L19.6486 15.717L19.628 15.6959L19.6072 15.675L19.5863 15.6546L19.5652 15.6343L19.544 15.6143L19.5224 15.5945L19.5009 15.575L19.4792 15.5558L19.4573 15.5369L19.4353 15.5182L19.4131 15.4998L19.3908 15.4817L19.3684 15.4638L19.3458 15.4462L19.3231 15.4289L19.3003 15.4119L19.2773 15.3951L19.2542 15.3786L19.2311 15.3625L19.2078 15.3465L19.1845 15.3309L19.1609 15.3155L19.1373 15.3004L19.1137 15.2856L19.0897 15.271L19.0659 15.2568L19.042 15.2429L19.0179 15.2292L18.9937 15.2158L18.9695 15.2026L18.9453 15.1898L18.9209 15.1772L18.8965 15.165L18.8719 15.1529L18.8474 15.1412L18.8228 15.1298L18.7981 15.1186L18.7734 15.1078L18.7485 15.0971L18.7239 15.0869L18.6989 15.0769L18.674 15.0671L18.6491 15.0577L18.6241 15.0485L18.5992 15.0396L18.5741 15.031L18.5491 15.0226L18.5241 15.0146L18.499 15.0067L18.4739 14.9992L18.4489 14.992L18.4237 14.985L18.3987 14.9784L18.3736 14.972L18.3485 14.9658L18.3233 14.96L18.2983 14.9544L18.2732 14.9491L18.2481 14.9441L18.2232 14.9393L18.1982 14.9348L18.1731 14.9306L18.1483 14.9266L18.1232 14.923L18.0985 14.9195L18.0735 14.9163L18.0487 14.9134L18.0241 14.9108L17.9993 14.9085L17.9746 14.9063L17.95 14.9045L17.9254 14.9029L17.9009 14.9015L17.8764 14.9005L17.8521 14.8997L17.8277 14.899L17.8035 14.8987L17.7793 14.8986L17.7552 14.8989L17.7311 14.8993L17.7072 14.8999L17.6833 14.9009L17.6596 14.902L17.6357 14.9034L17.6122 14.905L17.5887 14.9069L17.5653 14.909L17.542 14.9114L17.5186 14.9139L17.4956 14.9167L17.4725 14.9198L17.4497 14.923L17.4268 14.9266L17.4041 14.9302L17.3815 14.9342L17.3592 14.9383L17.3367 14.9427L17.3145 14.9473L17.2924 14.9521L17.2705 14.9571Z" fill="#697077"/>
</svg>
