<svg width="24" height="25" viewBox="0 0 24 25" fill="none" xmlns="http://www.w3.org/2000/svg">
<path d="M10.5 16.9995C11.2879 16.9995 12.0682 16.8443 12.7961 16.5428C13.5241 16.2413 14.1855 15.7993 14.7427 15.2422C15.2998 14.685 15.7418 14.0236 16.0433 13.2956C16.3448 12.5677 16.5 11.7875 16.5 10.9995C16.5 10.2116 16.3448 9.43138 16.0433 8.70343C15.7418 7.97547 15.2998 7.31404 14.7427 6.75689C14.1855 6.19973 13.5241 5.75778 12.7961 5.45625C12.0682 5.15472 11.2879 4.99953 10.5 4.99953C8.90872 4.99953 7.38259 5.63167 6.25737 6.75689C5.13216 7.8821 4.50002 9.40823 4.50002 10.9995C4.50002 12.5908 5.13216 14.1169 6.25737 15.2422C7.38259 16.3674 8.90872 16.9995 10.5 16.9995ZM16.82 15.9055L20.4 19.4855C20.4955 19.5778 20.5716 19.6882 20.6239 19.8103C20.6762 19.9323 20.7037 20.0636 20.7048 20.1963C20.7058 20.3291 20.6804 20.4608 20.63 20.5836C20.5797 20.7065 20.5053 20.8181 20.4114 20.9119C20.3174 21.0057 20.2057 21.0799 20.0828 21.1301C19.9599 21.1803 19.8282 21.2055 19.6954 21.2043C19.5626 21.203 19.4314 21.1753 19.3095 21.1229C19.1875 21.0704 19.0772 20.9941 18.985 20.8985L15.405 17.3185C13.7975 18.5664 11.7748 19.1547 9.74877 18.9637C7.72273 18.7727 5.84562 17.8168 4.49957 16.2906C3.15351 14.7643 2.4397 12.7825 2.50344 10.7485C2.56718 8.71443 3.40368 6.78115 4.84266 5.34217C6.28164 3.9032 8.21492 3.06669 10.2489 3.00295C12.283 2.93921 14.2648 3.65302 15.7911 4.99908C17.3173 6.34513 18.2732 8.22224 18.4642 10.2483C18.6552 12.2743 18.0669 14.297 16.819 15.9045L16.82 15.9055Z" fill="#697077"/>
</svg>
