<svg width="34" height="32" viewBox="0 0 34 32" fill="none" xmlns="http://www.w3.org/2000/svg">
<path d="M22.8019 26.4845L1.38925 11.714C-0.780657 10.2173 -0.0430317 7.10088 2.66279 6.36802L25.4206 0.191307C25.9026 0.0173566 26.4192 -0.0391112 26.9276 0.0265948C27.4358 0.0923008 27.9211 0.278283 28.3431 0.569108C28.7651 0.859932 29.1117 1.24721 29.354 1.6988C29.5963 2.15038 29.7274 2.65326 29.7365 3.16568L28.3878 24.1116C28.2278 26.5978 24.9718 27.9812 22.8019 26.4845Z" fill="#697077"/>
<path d="M16.0105 30.1304L3.39561 5.46055C3.10724 4.89618 2.98035 4.26312 3.02892 3.63121C3.07748 2.9993 3.29963 2.39308 3.67084 1.8794C4.04207 1.36572 4.54794 0.96454 5.13268 0.720098C5.71742 0.475655 6.35831 0.397452 6.98467 0.494119L30.3631 4.10227C30.9013 4.18535 31.4121 4.395 31.8536 4.71398C32.295 5.03297 32.6544 5.45218 32.9023 5.93714C33.1501 6.4221 33.2794 6.95895 33.2792 7.50358C33.2791 8.04819 33.1497 8.58502 32.9018 9.0699L22.1323 30.1316C21.8431 30.6943 21.4043 31.1665 20.8642 31.4961C20.3241 31.8257 19.7037 32 19.071 31.9999C18.4383 31.9997 17.8179 31.8252 17.2779 31.4955C16.7379 31.1656 16.2994 30.6933 16.0105 30.1304Z" fill="#697077"/>
<path d="M23.7 8.72693L19.2112 8L13.7 9.57011L15.8997 14.0856L21.051 17.8153C21.1646 17.8966 21.2896 17.959 21.4215 18L23.3781 13.9852L23.7 8.72693Z" fill="white"/>
</svg>
