<svg width="24" height="25" viewBox="0 0 24 25" fill="none" xmlns="http://www.w3.org/2000/svg">
<path d="M10.5 16.9995C11.2879 16.9995 12.0681 16.8443 12.7961 16.5428C13.5241 16.2413 14.1855 15.7993 14.7426 15.2422C15.2998 14.685 15.7417 14.0236 16.0433 13.2956C16.3448 12.5677 16.5 11.7875 16.5 10.9995C16.5 10.2116 16.3448 9.43138 16.0433 8.70343C15.7417 7.97547 15.2998 7.31404 14.7426 6.75689C14.1855 6.19973 13.5241 5.75778 12.7961 5.45625C12.0681 5.15472 11.2879 4.99953 10.5 4.99953C8.9087 4.99953 7.38258 5.63167 6.25736 6.75689C5.13214 7.8821 4.5 9.40823 4.5 10.9995C4.5 12.5908 5.13214 14.1169 6.25736 15.2422C7.38258 16.3674 8.9087 16.9995 10.5 16.9995ZM16.82 15.9055L20.4 19.4855C20.4954 19.5778 20.5715 19.6882 20.6239 19.8103C20.6762 19.9323 20.7037 20.0636 20.7047 20.1963C20.7058 20.3291 20.6804 20.4608 20.63 20.5836C20.5797 20.7065 20.5053 20.8181 20.4114 20.9119C20.3174 21.0057 20.2057 21.0799 20.0828 21.1301C19.9599 21.1803 19.8282 21.2055 19.6954 21.2043C19.5626 21.203 19.4314 21.1753 19.3094 21.1229C19.1875 21.0704 19.0772 20.9941 18.985 20.8985L15.405 17.3185C13.7975 18.5664 11.7748 19.1547 9.74875 18.9637C7.72271 18.7727 5.8456 17.8168 4.49955 16.2906C3.1535 14.7643 2.43968 12.7825 2.50343 10.7485C2.56717 8.71443 3.40367 6.78115 4.84265 5.34217C6.28162 3.9032 8.2149 3.06669 10.2489 3.00295C12.2829 2.93921 14.2648 3.65302 15.7911 4.99908C17.3173 6.34513 18.2732 8.22224 18.4642 10.2483C18.6552 12.2743 18.0668 14.297 16.819 15.9045L16.82 15.9055Z" fill="#697077"/>
</svg>
