<svg width="33" height="32" viewBox="0 0 33 32" fill="none" xmlns="http://www.w3.org/2000/svg">
<path fill-rule="evenodd" clip-rule="evenodd" d="M16.5952 32C25.4318 32 32.5953 24.8366 32.5953 16C32.5953 7.16345 25.4318 0 16.5952 0C7.75865 0 0.595215 7.16345 0.595215 16C0.595215 24.8366 7.75865 32 16.5952 32ZM21.5867 7.45348C21.8296 6.59044 20.9921 6.08011 20.2272 6.62504L9.54972 14.2317C8.72019 14.8226 8.85067 16 9.74572 16H12.5574V15.9782H18.0372L13.5722 17.5537L11.6038 24.5466C11.3608 25.4096 12.1983 25.9199 12.9632 25.375L23.6408 17.7684C24.4703 17.1774 24.3397 16 23.4448 16H19.1809L21.5867 7.45348Z" fill="#697077"/>
</svg>
