<svg width="24" height="30" viewBox="0 0 24 30" fill="none" xmlns="http://www.w3.org/2000/svg">
<path d="M13.5111 4.65002V0.400024H0.111084V29.6H13.5111V25.35C10.7661 25.35 8.13348 24.2595 6.19252 22.3185C4.25152 20.3775 3.16108 17.745 3.16108 15C3.16108 12.255 4.25152 9.62243 6.19252 7.68147C8.13348 5.74047 10.7661 4.65002 13.5111 4.65002Z" fill="#697077"/>
<path d="M13.5112 4.65002V25.35C16.2562 25.35 18.8888 24.2595 20.8298 22.3185C22.7708 20.3775 23.8612 17.745 23.8612 15C23.8612 12.255 22.7708 9.62243 20.8298 7.68147C18.8888 5.74047 16.2562 4.65002 13.5112 4.65002Z" fill="#697077"/>
</svg>
