<svg width="22" height="32" viewBox="0 0 22 32" fill="none" xmlns="http://www.w3.org/2000/svg">
<path d="M10.6666 19.9817V28.1025C10.6666 28.4138 10.543 28.7124 10.3228 28.9324C10.1028 29.1526 9.80424 29.2762 9.49289 29.2762C9.18165 29.2762 8.8831 29.1526 8.66295 28.9324C8.4428 28.7124 8.31914 28.4138 8.31914 28.1025V19.993C8.64599 20.2317 9.03776 20.3649 9.44234 20.3749C9.88331 20.3874 10.3154 20.2487 10.6666 19.9817ZM20.6631 17.6343C20.3652 17.6343 20.0795 17.7526 19.8689 17.9632C19.6583 18.1738 19.5399 18.4596 19.5399 18.7575V20.1727C19.5399 20.484 19.6636 20.7826 19.8837 21.0026C20.1038 21.2228 20.4023 21.3464 20.7137 21.3464C21.025 21.3464 21.3236 21.2228 21.5436 21.0026C21.7637 20.7826 21.8874 20.484 21.8874 20.1727V18.8136C21.8962 18.6526 21.8701 18.4915 21.811 18.3414C21.752 18.1914 21.6613 18.0557 21.5451 17.9438C21.4289 17.8319 21.29 17.7464 21.1379 17.6929C20.9857 17.6395 20.8237 17.6195 20.6631 17.6343ZM5.76947 23.0593C5.36531 23.0472 4.97406 22.9142 4.64627 22.6774V30.8206C4.64627 31.1335 4.77052 31.4335 4.9917 31.6546C5.21287 31.8758 5.51284 32 5.82563 32C6.13842 32 6.4384 31.8758 6.65957 31.6546C6.88075 31.4335 7.00499 31.1335 7.00499 30.8206V22.7336C6.63821 22.9707 6.20545 23.0848 5.76947 23.0593ZM17.0015 15.1969C16.8493 15.1893 16.6972 15.2127 16.5543 15.2658C16.4116 15.3188 16.2811 15.4003 16.1707 15.5053C16.0604 15.6105 15.9726 15.7368 15.9127 15.8769C15.8528 16.017 15.8219 16.1678 15.8221 16.3201V22.5763C15.8221 22.8892 15.9464 23.1892 16.1675 23.4103C16.3888 23.6315 16.6887 23.7557 17.0015 23.7557C17.3143 23.7557 17.6143 23.6315 17.8355 23.4103C18.0566 23.1892 18.1808 22.8892 18.1808 22.5763V16.3987C18.1898 16.2367 18.1635 16.0746 18.1038 15.9236C18.044 15.7727 17.9524 15.6364 17.8349 15.5243C17.7174 15.4122 17.5771 15.3269 17.4236 15.2743C17.27 15.2216 17.1068 15.2029 16.9453 15.2194L17.0015 15.1969ZM13.2725 17.6006C12.8493 17.5976 12.4376 17.4643 12.0931 17.2187V25.3843C12.0931 25.6972 12.2173 25.9972 12.4385 26.2183C12.6597 26.4395 12.9596 26.5637 13.2725 26.5637C13.5853 26.5637 13.8852 26.4395 14.1064 26.2183C14.3276 25.9972 14.4518 25.6972 14.4518 25.3843V17.2299C14.0955 17.4953 13.6605 17.6337 13.2163 17.623L13.2725 17.6006ZM3.21981 23.8568V1.04458C3.21685 0.766506 3.10431 0.500847 2.90662 0.305264C2.70894 0.109681 2.44208 -1.12311e-05 2.164 8.625e-10H1.91689C1.63881 -1.12311e-05 1.37195 0.109681 1.17427 0.305264C0.976583 0.500847 0.864038 0.766506 0.861084 1.04458V23.8568C0.861084 24.1368 0.972326 24.4054 1.17032 24.6034C1.36832 24.8014 1.63688 24.9126 1.91689 24.9126H2.164C2.44402 24.9126 2.71257 24.8014 2.91057 24.6034C3.10858 24.4054 3.21981 24.1368 3.21981 23.8568ZM5.89302 22.1945H5.64592C5.36591 22.1945 5.09735 22.0833 4.89935 21.8852C4.70135 21.6872 4.59011 21.4187 4.59011 21.1386V3.76272C4.59308 3.48466 4.70561 3.21898 4.90329 3.02341C5.10098 2.82783 5.36784 2.71814 5.64592 2.71815H5.89302C6.17111 2.71814 6.43797 2.82783 6.63565 3.02341C6.83333 3.21898 6.94588 3.48466 6.94883 3.76272V21.1611C6.94883 21.4411 6.83759 21.7097 6.63959 21.9077C6.4416 22.1057 6.17304 22.2169 5.89302 22.2169V22.1945ZM9.61082 19.5212H9.35248C9.0755 19.5212 8.80975 19.4112 8.61387 19.2153C8.41798 19.0194 8.30791 18.7538 8.30791 18.4767V6.45841C8.30645 6.32029 8.33239 6.18325 8.38417 6.05521C8.43595 5.92718 8.51267 5.8107 8.60982 5.71251C8.70698 5.61432 8.82267 5.53637 8.95015 5.48318C9.07764 5.42998 9.21433 5.40259 9.35248 5.4026H9.61082C9.88893 5.40556 10.1546 5.5181 10.3501 5.71578C10.5458 5.91346 10.6554 6.18032 10.6554 6.45841V18.4767C10.6554 18.7538 10.5453 19.0194 10.3494 19.2153C10.1536 19.4112 9.88791 19.5212 9.61082 19.5212ZM13.3286 16.7694H13.0927C12.8146 16.7694 12.5478 16.6598 12.3501 16.4641C12.1524 16.2686 12.0399 16.0029 12.0369 15.7248V9.25518C12.0277 9.11096 12.0482 8.9664 12.0971 8.83038C12.146 8.69448 12.2224 8.56991 12.3213 8.46467C12.4203 8.35931 12.5398 8.27552 12.6726 8.21824C12.8052 8.16107 12.9482 8.13164 13.0927 8.13198H13.3398C13.6199 8.13198 13.8884 8.24317 14.0864 8.44119C14.2845 8.63921 14.3957 8.90777 14.3957 9.18779V15.7024C14.3971 15.842 14.3709 15.9805 14.3185 16.1098C14.2662 16.2392 14.1887 16.357 14.0904 16.4562C13.9922 16.5554 13.8754 16.6342 13.7464 16.688C13.6176 16.7418 13.4795 16.7694 13.3398 16.7694H13.3286ZM17.0576 14.3545H16.8105C16.5305 14.3545 16.262 14.2433 16.0639 14.0453C15.8659 13.8473 15.7547 13.5787 15.7547 13.2987V11.6251C15.7577 11.347 15.8702 11.0814 16.0679 10.8858C16.2656 10.6902 16.5324 10.5806 16.8105 10.5806H17.0576C17.3357 10.5806 17.6026 10.6902 17.8003 10.8858C17.998 11.0814 18.1105 11.347 18.1135 11.6251V13.2987C18.1135 13.5768 18.0038 13.8437 17.8082 14.0414C17.6126 14.239 17.347 14.3516 17.0689 14.3545H17.0576Z" fill="#697077"/>
</svg>
