<svg width="1054" height="150" viewBox="0 0 1054 150" fill="none" xmlns="http://www.w3.org/2000/svg">
<path d="M4 131.708L49.906 124L94.9922 110.305L140.078 103.5L185.984 117L231.071 114L276.976 110.305L322.882 88.5665H367.969L413.875 95.5L458.961 106L504.867 98.5L549.953 65L595.859 58.5L640.945 68.0029L686.031 71.5L731.937 65L777.024 78.5L822.929 80.5L868.016 88.5665L913.922 102L959.008 95.5L1004.91 74.5L1050 33.0079" stroke="#A2A9B0" stroke-width="2" stroke-linecap="round" stroke-linejoin="round"/>
<path d="M4 131.708L49.906 124L94.9922 110.305L140.078 103.5L185.984 117L231.071 114L276.976 110.305L322.882 88.5665H367.969L413.875 95.5L458.961 106L504.867 98.5L549.953 65L595.859 58.5L640.945 68.0029L686.031 71.5L731.937 65L777.024 78.5L822.929 80.5L868.016 88.5665L913.922 102L959.008 95.5L1004.91 74.5L1050 33.0079" stroke="#A2A9B0" stroke-width="8" stroke-linecap="round" stroke-linejoin="round" stroke-dasharray="0.01 50"/>
<path d="M4 131.708L49.906 124L94.9922 110.305L140.078 103.5L185.984 117L231.071 114L276.977 110.305L322.882 88.5665H367.969L413.875 95.5L458.961 106L504.867 98.5L549.953 65L595.859 58.5L640.945 68.0029L686.031 71.5L731.937 65L777.023 78.5L822.929 80.5L868.016 88.5665L913.922 102L959.008 95.5L1004.91 74.5L1050 33.0079" stroke="white" stroke-width="6" stroke-linecap="round" stroke-linejoin="round" stroke-dasharray="0.01 50"/>
<path d="M4 145.708L49.906 109.5L94.9922 95.5L140.078 77.5L185.984 79.5L231.071 71.5L276.976 79.5L322.882 71.5L367.969 75.5H413.875L458.961 82.5H504.867L549.953 71.5L595.859 63.0029L640.945 57.5H686.031L731.937 51.5L777.024 45L822.929 51.5L868.016 63.0029L913.922 86.5L959.008 84.5L999.974 63.7845L1024.99 40L1050 4.00793" stroke="#C1C7CD" stroke-width="2" stroke-linecap="round" stroke-linejoin="round"/>
<path d="M4 145.708L49.906 109.5L94.9922 95.5L140.078 77.5L185.984 79.5L231.071 71.5L276.976 79.5L322.882 71.5L367.969 75.5H413.875L458.961 82.5H504.867L549.953 71.5L595.859 63.0029L640.945 57.5H686.031L731.937 51.5L777.024 45L822.929 51.5L868.016 63.0029L913.922 86.5L959.008 84.5L999.974 63.7845L1024.99 40L1050 4.00793" stroke="#C1C7CD" stroke-width="8" stroke-linecap="round" stroke-linejoin="round" stroke-dasharray="0.01 50"/>
<path d="M4 145.708L49.906 109.5L94.9922 95.5L140.078 77.5L185.984 79.5L231.071 71.5L276.976 79.5L322.882 71.5L367.969 75.5H413.875L458.961 82.5H504.867L549.953 71.5L595.859 63.0029L640.945 57.5H686.031L731.937 51.5L777.023 45L822.929 51.5L868.016 63.0029L913.922 86.5L959.008 84.5L999.974 63.7845L1024.99 40L1050 4.00793" stroke="white" stroke-width="6" stroke-linecap="round" stroke-linejoin="round" stroke-dasharray="0.01 50"/>
</svg>
