<svg width="256" height="214" viewBox="0 0 256 214" fill="none" xmlns="http://www.w3.org/2000/svg">
<path fill-rule="evenodd" clip-rule="evenodd" d="M2.45954 152.972C6.61563 173.866 15.9069 193.328 29.4149 209.639C33.6419 214.744 41.2893 214.711 45.9756 210.025C50.6618 205.338 50.5991 197.778 46.4801 192.587C32.4056 174.846 23.9996 152.405 23.9996 128C23.9996 70.5624 70.562 24 128 24C185.437 24 232 70.5624 232 128C232 152.404 223.594 174.845 209.52 192.586C205.401 197.778 205.338 205.338 210.024 210.024C214.711 214.711 222.358 214.744 226.585 209.639C240.093 193.328 249.385 173.866 253.541 152.972C258.479 128.142 255.945 102.405 246.257 79.0165C236.569 55.6276 220.163 35.6367 199.113 21.5719C178.064 7.50707 153.316 1.50945e-07 128 0C102.684 -1.50945e-07 77.9366 7.50707 56.8871 21.5719C35.8376 35.6367 19.4315 55.6276 9.74348 79.0165C0.0554604 102.405 -2.47937 128.142 2.45954 152.972Z" fill="#DDE1E6"/>
</svg>
