<svg width="219" height="208" viewBox="0 0 219 208" fill="none" xmlns="http://www.w3.org/2000/svg">
<path fill-rule="evenodd" clip-rule="evenodd" d="M9.40145 170.993C14.3754 182.885 21.2085 193.937 29.6402 203.765C33.7974 208.611 41.1333 208.575 45.7145 204.128C50.4924 199.49 50.4309 191.858 46.2386 186.684C40.9957 180.214 36.5806 173.138 33.0988 165.609C30.8241 160.698 28.9421 155.579 27.4915 150.289C25.0355 141.355 23.8498 132.117 23.9845 122.831C24.1052 114.503 25.2865 106.242 27.487 98.2322C28.9403 92.9283 30.8274 87.796 33.109 82.8733C38.6861 70.8217 46.6467 59.9469 56.5418 50.8676C65.003 43.1039 74.7349 36.785 85.3239 32.1611C90.4367 29.925 95.7693 28.0783 101.282 26.66C111.402 24.0492 121.889 22.9318 132.39 23.3624C139.921 23.6713 147.377 24.7729 154.627 26.6366C160.225 28.0716 165.638 29.9484 170.824 32.2261C171.382 32.4708 171.938 32.7204 172.492 32.9749C181.544 37.1325 189.912 42.5285 197.346 48.9825C202.176 53.1757 209.422 53.6464 214.255 49.456C219.293 45.0869 219.757 37.3725 214.789 32.9237C205.281 24.4101 194.481 17.3286 182.746 11.9385C167.278 4.83371 150.499 0.811847 133.402 0.110735C116.305 -0.590375 99.2367 2.0435 83.2064 7.85663C67.176 13.6697 52.5092 22.5441 40.0731 33.9549C27.6371 45.3657 17.6844 59.0812 10.8035 74.2905C3.92259 89.4998 0.253248 105.894 0.012432 122.504C-0.228384 139.113 2.96422 155.601 9.40145 170.993Z" fill="#878D96"/>
</svg>
