<svg width="24" height="24" viewBox="0 0 24 24" fill="none" xmlns="http://www.w3.org/2000/svg">
<path d="M13.3141 11.8998L16.8491 8.36382C16.9446 8.27157 17.0208 8.16123 17.0732 8.03922C17.1256 7.91722 17.1532 7.786 17.1543 7.65322C17.1555 7.52044 17.1302 7.38876 17.0799 7.26587C17.0296 7.14297 16.9554 7.03132 16.8615 6.93742C16.7676 6.84353 16.6559 6.76928 16.533 6.719C16.4101 6.66872 16.2784 6.64342 16.1457 6.64457C16.0129 6.64572 15.8817 6.67331 15.7597 6.72572C15.6377 6.77813 15.5273 6.85431 15.4351 6.94982L11.8991 10.4848L8.36406 6.94982C8.27182 6.85431 8.16147 6.77813 8.03947 6.72572C7.91746 6.67331 7.78624 6.64572 7.65346 6.64457C7.52069 6.64342 7.38901 6.66872 7.26611 6.719C7.14321 6.76928 7.03156 6.84353 6.93767 6.93742C6.84378 7.03132 6.76952 7.14297 6.71924 7.26587C6.66896 7.38876 6.64366 7.52044 6.64481 7.65322C6.64597 7.786 6.67355 7.91722 6.72596 8.03922C6.77837 8.16123 6.85455 8.27157 6.95006 8.36382L10.4851 11.8988L6.95006 15.4348C6.85455 15.5271 6.77837 15.6374 6.72596 15.7594C6.67355 15.8814 6.64597 16.0126 6.64481 16.1454C6.64366 16.2782 6.66896 16.4099 6.71924 16.5328C6.76952 16.6557 6.84378 16.7673 6.93767 16.8612C7.03156 16.9551 7.14321 17.0294 7.26611 17.0796C7.38901 17.1299 7.52069 17.1552 7.65346 17.1541C7.78624 17.1529 7.91746 17.1253 8.03947 17.0729C8.16147 17.0205 8.27182 16.9443 8.36406 16.8488L11.8991 13.3138L15.4351 16.8488C15.5273 16.9443 15.6377 17.0205 15.7597 17.0729C15.8817 17.1253 16.0129 17.1529 16.1457 17.1541C16.2784 17.1552 16.4101 17.1299 16.533 17.0796C16.6559 17.0294 16.7676 16.9551 16.8615 16.8612C16.9554 16.7673 17.0296 16.6557 17.0799 16.5328C17.1302 16.4099 17.1555 16.2782 17.1543 16.1454C17.1532 16.0126 17.1256 15.8814 17.0732 15.7594C17.0208 15.6374 16.9446 15.5271 16.8491 15.4348L13.3141 11.8988V11.8998Z" fill="#21272A"/>
</svg>
