<svg width="24" height="24" viewBox="0 0 24 24" fill="none" xmlns="http://www.w3.org/2000/svg">
<g clip-path="url(#clip0_87_1083)">
<path fill-rule="evenodd" clip-rule="evenodd" d="M19.8146 6.76246C19.8082 6.76468 19.8009 6.76721 19.7927 6.77006C19.7598 6.78146 19.712 6.79785 19.6504 6.81851C19.5273 6.85982 19.3491 6.91828 19.1248 6.98816C18.6766 7.12781 18.0428 7.31359 17.2966 7.49939C15.8138 7.86859 13.8471 8.24818 12.0001 8.24818C10.1531 8.24818 8.17466 7.86692 6.68083 7.49626C5.92896 7.3097 5.28945 7.12316 4.83698 6.98296C4.61059 6.91282 4.43059 6.85414 4.30629 6.81268C4.24413 6.79194 4.19587 6.7755 4.16265 6.76407C4.15655 6.76197 4.15096 6.76004 4.14588 6.75829C4.03338 6.73439 3.9343 6.76403 3.86545 6.8188C3.79878 6.87184 3.73979 6.96445 3.74881 7.11915C3.75356 7.19769 3.77894 7.25251 3.85791 7.32123C3.95621 7.40678 4.12047 7.4933 4.35933 7.57317L8.69336 8.97554C8.7047 8.97921 8.71596 8.98315 8.72713 8.98736C9.30681 9.20599 9.9502 9.58788 10.2493 10.3627C10.4084 10.7718 10.4505 11.2257 10.4452 11.653C10.4399 12.087 10.3844 12.5442 10.3139 12.9833C10.3124 12.9926 10.3108 13.0017 10.309 13.0109L10.0324 14.3998C10.031 14.4066 10.0296 14.4134 10.028 14.4202L8.27538 22.0997C8.27494 22.1017 8.2745 22.1036 8.27405 22.1055C8.27375 22.1067 8.27345 22.108 8.27315 22.1093C8.26268 22.1525 8.26728 22.2328 8.33252 22.3259C8.39717 22.4182 8.49194 22.478 8.58552 22.4944C8.68043 22.511 8.74987 22.4904 8.81538 22.4416C8.89151 22.3849 8.97945 22.2734 9.03401 22.0981C9.03484 22.0954 9.03568 22.0928 9.03654 22.0901L10.7662 16.744L10.7663 16.7439C10.8631 16.445 10.9486 16.1429 11.023 15.8375L11.2716 14.8217C11.3538 14.4862 11.6545 14.2501 11.9999 14.2501C12.3454 14.25 12.6462 14.4859 12.7285 14.8214L12.9985 15.922L12.9986 15.9222C13.0595 16.1708 13.1294 16.4167 13.2084 16.6597L13.2086 16.6603L14.9692 22.0945C14.9706 22.0986 14.9719 22.1027 14.9731 22.1069C15.0235 22.2722 15.1094 22.3821 15.1876 22.4397C15.2564 22.4904 15.3295 22.5111 15.424 22.4945C15.654 22.4541 15.7632 22.258 15.7303 22.0928L13.9783 14.4169C13.9768 14.4102 13.9753 14.4033 13.9739 14.3965L13.6974 13.0076C13.6956 12.9985 13.6939 12.9893 13.6924 12.9801C13.621 12.5351 13.5683 12.0552 13.5758 11.6048C13.583 11.1718 13.646 10.6798 13.8746 10.2682C14.0824 9.88883 14.419 9.62796 14.6928 9.45821C14.9791 9.2807 15.2753 9.15525 15.4868 9.07593C15.4879 9.0755 15.4891 9.07506 15.4903 9.07464C15.4917 9.07412 15.493 9.07361 15.4944 9.0731L19.6187 7.5776C19.6189 7.57753 19.6191 7.57746 19.6193 7.57739C19.9329 7.46324 20.096 7.38616 20.1882 7.30994C20.2231 7.28108 20.2323 7.26406 20.2354 7.25766C20.2381 7.25217 20.2501 7.2267 20.2501 7.16021C20.2501 7.00637 20.1856 6.87874 20.1118 6.8123C20.078 6.78195 20.0419 6.76315 20.0015 6.75386C19.9644 6.74534 19.9043 6.74038 19.8146 6.76246ZM4.6097 5.33146L4.6112 5.33198L4.61861 5.33458C4.62549 5.33698 4.63624 5.34072 4.6507 5.34569C4.67963 5.35565 4.72342 5.37057 4.78092 5.38975C4.89594 5.42811 5.06568 5.48347 5.28093 5.55017C5.71176 5.68366 6.32323 5.86204 7.04207 6.04041C8.48965 6.39959 10.3316 6.74818 12.0001 6.74818C13.6687 6.74818 15.4989 6.40121 16.9341 6.04384C17.6469 5.86636 18.2524 5.68886 18.6786 5.55605C18.8916 5.4897 19.0595 5.43463 19.1731 5.39648C19.2299 5.3774 19.2732 5.36257 19.3017 5.35268C19.316 5.34773 19.3266 5.34403 19.3334 5.34164L19.3407 5.33908L19.3421 5.33856C19.3589 5.33257 19.3759 5.32719 19.3931 5.32241C20.0565 5.13814 20.6743 5.30062 21.1151 5.69722C21.5334 6.07364 21.7501 6.62076 21.7501 7.16021C21.7501 7.73023 21.5109 8.16265 21.1441 8.46595C20.8261 8.72882 20.4269 8.87974 20.1316 8.98719L16.0098 10.4818C15.8471 10.543 15.6527 10.628 15.4832 10.7331C15.3008 10.8462 15.2167 10.94 15.19 10.9891C15.1888 10.9914 15.1875 10.9936 15.1863 10.9959C15.1352 11.0875 15.0813 11.2862 15.0756 11.6297C15.0702 11.9533 15.1081 12.332 15.1713 12.7286L15.443 14.0934L17.1943 21.766C17.1951 21.7695 17.1959 21.7731 17.1966 21.7767C17.4238 22.8435 16.6798 23.7969 15.6834 23.9719C14.5933 24.1633 13.8006 23.3941 13.5405 22.5514L12.0011 17.8001L10.4649 22.5483C10.2022 23.3861 9.4248 24.1638 8.32722 23.972C7.33359 23.7983 6.56767 22.7941 6.81392 21.7619L8.56332 14.0966L8.83507 12.7319C8.89927 12.3297 8.94134 11.9591 8.94533 11.6345C8.94945 11.2999 8.91196 11.0621 8.85108 10.9058L8.85013 10.9033C8.77504 10.7085 8.60668 10.5476 8.21361 10.3969L3.89423 8.99925C3.89213 8.99857 3.89004 8.99789 3.88795 8.99719C3.29656 8.80006 2.31892 8.3389 2.25145 7.20816L2.25141 7.20753C2.17327 5.87915 3.37645 5.00014 4.55274 5.31381C4.5719 5.31892 4.59085 5.32479 4.60955 5.3314C4.60959 5.33142 4.60965 5.33144 4.6097 5.33146Z" fill="#21272A"/>
<path fill-rule="evenodd" clip-rule="evenodd" d="M12 1.5C11.3787 1.5 10.875 2.00368 10.875 2.625C10.875 3.24632 11.3787 3.75 12 3.75C12.6213 3.75 13.125 3.24632 13.125 2.625C13.125 2.00368 12.6213 1.5 12 1.5ZM9.375 2.625C9.375 1.17525 10.5503 0 12 0C13.4497 0 14.625 1.17525 14.625 2.625C14.625 4.07475 13.4497 5.25 12 5.25C10.5503 5.25 9.375 4.07475 9.375 2.625Z" fill="#21272A"/>
</g>
<defs>
<clipPath id="clip0_87_1083">
<rect width="24" height="24" fill="white"/>
</clipPath>
</defs>
</svg>
