<svg width="24" height="24" viewBox="0 0 24 24" fill="none" xmlns="http://www.w3.org/2000/svg">
<g clip-path="url(#clip0_132_1162)">
<path fill-rule="evenodd" clip-rule="evenodd" d="M19.8146 6.76234C19.8082 6.76455 19.8009 6.76709 19.7927 6.76994C19.7598 6.78134 19.712 6.79772 19.6504 6.81839C19.5273 6.8597 19.3491 6.91816 19.1248 6.98803C18.6766 7.12768 18.0428 7.31347 17.2966 7.49927C15.8138 7.86846 13.8471 8.24806 12.0001 8.24806C10.1531 8.24806 8.17466 7.8668 6.68083 7.49614C5.92896 7.30958 5.28945 7.12304 4.83698 6.98284C4.61059 6.91269 4.43059 6.85401 4.30629 6.81255C4.24413 6.79182 4.19587 6.77538 4.16265 6.76395C4.15655 6.76185 4.15096 6.75992 4.14588 6.75817C4.03338 6.73427 3.9343 6.76391 3.86545 6.81868C3.79878 6.87172 3.73979 6.96433 3.74881 7.11903C3.75356 7.19757 3.77894 7.25239 3.85791 7.32111C3.95621 7.40665 4.12047 7.49317 4.35933 7.57305L8.69336 8.97542C8.7047 8.97909 8.71596 8.98303 8.72713 8.98724C9.30681 9.20587 9.9502 9.58775 10.2493 10.3626C10.4084 10.7717 10.4505 11.2256 10.4452 11.6528C10.4399 12.0869 10.3844 12.5441 10.3139 12.9832C10.3124 12.9924 10.3108 13.0016 10.309 13.0108L10.0324 14.3997C10.031 14.4065 10.0296 14.4133 10.028 14.4201L8.27538 22.0996C8.27494 22.1015 8.2745 22.1035 8.27405 22.1054C8.27375 22.1066 8.27345 22.1079 8.27315 22.1091C8.26268 22.1524 8.26728 22.2327 8.33252 22.3258C8.39717 22.4181 8.49194 22.4779 8.58552 22.4943C8.68043 22.5108 8.74987 22.4902 8.81538 22.4415C8.89151 22.3848 8.97945 22.2732 9.03401 22.098C9.03484 22.0953 9.03568 22.0926 9.03654 22.09L10.7662 16.7439L10.7663 16.7437C10.8631 16.4449 10.9486 16.1427 11.023 15.8373L11.2716 14.8216C11.3538 14.486 11.6545 14.25 11.9999 14.2499C12.3454 14.2498 12.6462 14.4857 12.7285 14.8212L12.9985 15.9219L12.9986 15.9221C13.0595 16.1707 13.1294 16.4165 13.2084 16.6596L13.2086 16.6602L14.9692 22.0944C14.9706 22.0985 14.9719 22.1026 14.9731 22.1067C15.0235 22.2721 15.1094 22.382 15.1876 22.4396C15.2564 22.4903 15.3295 22.5109 15.424 22.4944C15.654 22.454 15.7632 22.2579 15.7303 22.0926L13.9783 14.4168C13.9768 14.41 13.9753 14.4032 13.9739 14.3964L13.6974 13.0075C13.6956 12.9983 13.6939 12.9891 13.6924 12.9799C13.621 12.5349 13.5683 12.0551 13.5758 11.6047C13.583 11.1716 13.646 10.6797 13.8746 10.2681C14.0824 9.88871 14.419 9.62783 14.6928 9.45809C14.9791 9.28058 15.2753 9.15513 15.4868 9.07581C15.4879 9.07537 15.4891 9.07494 15.4903 9.07451C15.4917 9.074 15.493 9.07349 15.4944 9.07298L19.6187 7.57748C19.6189 7.57741 19.6191 7.57734 19.6193 7.57727C19.9329 7.46311 20.096 7.38604 20.1882 7.30982C20.2231 7.28096 20.2323 7.26393 20.2354 7.25754C20.2381 7.25205 20.2501 7.22658 20.2501 7.16009C20.2501 7.00625 20.1856 6.87861 20.1118 6.81217C20.078 6.78182 20.0419 6.76303 20.0015 6.75374C19.9644 6.74522 19.9043 6.74026 19.8146 6.76234ZM4.6097 5.33133L4.6112 5.33186L4.61861 5.33446C4.62549 5.33686 4.63624 5.34059 4.6507 5.34557C4.67963 5.35552 4.72342 5.37045 4.78092 5.38962C4.89594 5.42799 5.06568 5.48335 5.28093 5.55005C5.71176 5.68354 6.32323 5.86192 7.04207 6.04029C8.48965 6.39947 10.3316 6.74806 12.0001 6.74806C13.6687 6.74806 15.4989 6.40108 16.9341 6.04371C17.6469 5.86623 18.2524 5.68874 18.6786 5.55593C18.8916 5.48957 19.0595 5.43451 19.1731 5.39635C19.2299 5.37728 19.2732 5.36245 19.3017 5.35256C19.316 5.34761 19.3266 5.34391 19.3334 5.34152L19.3407 5.33895L19.3421 5.33844C19.3589 5.33245 19.3759 5.32707 19.3931 5.32229C20.0565 5.13801 20.6743 5.3005 21.1151 5.6971C21.5334 6.07351 21.7501 6.62064 21.7501 7.16009C21.7501 7.73011 21.5109 8.16253 21.1441 8.46582C20.8261 8.72869 20.4269 8.87962 20.1316 8.98707L16.0098 10.4817C15.8471 10.5429 15.6527 10.6279 15.4832 10.7329C15.3008 10.846 15.2167 10.9399 15.19 10.989C15.1888 10.9912 15.1875 10.9935 15.1863 10.9958C15.1352 11.0873 15.0813 11.286 15.0756 11.6296C15.0702 11.9532 15.1081 12.3319 15.1713 12.7285L15.443 14.0932L17.1943 21.7658C17.1951 21.7694 17.1959 21.773 17.1966 21.7765C17.4238 22.8434 16.6798 23.7968 15.6834 23.9718C14.5933 24.1631 13.8006 23.394 13.5405 22.5512L12.0011 17.7999L10.4649 22.5481C10.2022 23.386 9.4248 24.1637 8.32722 23.9719C7.33359 23.7982 6.56767 22.794 6.81392 21.7618L8.56332 14.0965L8.83507 12.7317C8.89927 12.3295 8.94134 11.959 8.94533 11.6344C8.94945 11.2998 8.91196 11.062 8.85108 10.9057L8.85013 10.9032C8.77504 10.7084 8.60668 10.5475 8.21361 10.3968L3.89423 8.99913C3.89213 8.99845 3.89004 8.99776 3.88795 8.99707C3.29656 8.79994 2.31892 8.33878 2.25145 7.20804L2.25141 7.20741C2.17327 5.87902 3.37645 5.00001 4.55274 5.31369C4.5719 5.3188 4.59085 5.32467 4.60955 5.33128C4.60959 5.3313 4.60965 5.33132 4.6097 5.33133Z" fill="#21272A"/>
<path fill-rule="evenodd" clip-rule="evenodd" d="M12 1.5C11.3787 1.5 10.875 2.00368 10.875 2.625C10.875 3.24632 11.3787 3.75 12 3.75C12.6213 3.75 13.125 3.24632 13.125 2.625C13.125 2.00368 12.6213 1.5 12 1.5ZM9.375 2.625C9.375 1.17525 10.5503 0 12 0C13.4497 0 14.625 1.17525 14.625 2.625C14.625 4.07475 13.4497 5.25 12 5.25C10.5503 5.25 9.375 4.07475 9.375 2.625Z" fill="#21272A"/>
</g>
<defs>
<clipPath id="clip0_132_1162">
<rect width="24" height="24" fill="white"/>
</clipPath>
</defs>
</svg>
