<svg width="24" height="24" viewBox="0 0 24 24" fill="none" xmlns="http://www.w3.org/2000/svg">
<g clip-path="url(#clip0_132_1492)">
<path fill-rule="evenodd" clip-rule="evenodd" d="M19.8148 6.76234C19.8084 6.76455 19.8012 6.76709 19.7929 6.76994C19.76 6.78134 19.7122 6.79772 19.6507 6.81839C19.5276 6.8597 19.3493 6.91816 19.1251 6.98803C18.6768 7.12768 18.043 7.31347 17.2968 7.49927C15.8141 7.86846 13.8474 8.24806 12.0004 8.24806C10.1533 8.24806 8.1749 7.8668 6.68107 7.49614C5.92921 7.30958 5.2897 7.12304 4.83723 6.98284C4.61083 6.91269 4.43084 6.85401 4.30654 6.81255C4.24438 6.79182 4.19611 6.77538 4.1629 6.76395C4.1568 6.76185 4.1512 6.75992 4.14613 6.75817C4.03362 6.73427 3.93455 6.76391 3.86569 6.81868C3.79902 6.87172 3.74004 6.96433 3.74905 7.11903C3.7538 7.19757 3.77918 7.25239 3.85815 7.32111C3.95646 7.40665 4.12072 7.49317 4.35957 7.57305L8.6936 8.97542C8.70495 8.97909 8.71621 8.98303 8.72737 8.98724C9.30706 9.20587 9.95044 9.58775 10.2496 10.3626C10.4086 10.7717 10.4507 11.2256 10.4455 11.6528C10.4401 12.0869 10.3847 12.5441 10.3142 12.9832C10.3127 12.9924 10.311 13.0016 10.3092 13.0108L10.0326 14.3997C10.0313 14.4065 10.0298 14.4133 10.0283 14.4201L8.27563 22.0996C8.27519 22.1015 8.27474 22.1035 8.27429 22.1054C8.27399 22.1066 8.27369 22.1079 8.27339 22.1091C8.26293 22.1524 8.26752 22.2327 8.33277 22.3258C8.39742 22.4181 8.49219 22.4779 8.58576 22.4943C8.68067 22.5108 8.75012 22.4902 8.81563 22.4415C8.89176 22.3848 8.9797 22.2732 9.03426 22.098C9.03508 22.0953 9.03593 22.0926 9.03678 22.09L10.7665 16.7439L10.7665 16.7437C10.8633 16.4449 10.9489 16.1427 11.0232 15.8373L11.2719 14.8216C11.354 14.486 11.6547 14.25 12.0002 14.2499C12.3456 14.2498 12.6465 14.4857 12.7288 14.8212L12.9988 15.9219L12.9988 15.9221C13.0597 16.1707 13.1297 16.4165 13.2087 16.6596L13.2089 16.6602L14.9695 22.0944C14.9708 22.0985 14.9721 22.1026 14.9734 22.1067C15.0238 22.2721 15.1097 22.382 15.1879 22.4396C15.2567 22.4903 15.3298 22.5109 15.4243 22.4944C15.6543 22.454 15.7635 22.2579 15.7305 22.0926L13.9785 14.4168C13.977 14.41 13.9755 14.4032 13.9742 14.3964L13.6976 13.0075C13.6958 12.9983 13.6941 12.9891 13.6927 12.9799C13.6212 12.5349 13.5686 12.0551 13.5761 11.6047C13.5832 11.1716 13.6462 10.6797 13.8748 10.2681C14.0826 9.88871 14.4193 9.62783 14.6931 9.45809C14.9794 9.28058 15.2755 9.15513 15.487 9.07581C15.4882 9.07537 15.4893 9.07494 15.4905 9.07451C15.4919 9.074 15.4933 9.07349 15.4947 9.07298L19.6189 7.57748C19.6191 7.57741 19.6193 7.57734 19.6195 7.57727C19.9332 7.46311 20.0963 7.38604 20.1885 7.30982C20.2234 7.28096 20.2326 7.26393 20.2357 7.25754C20.2383 7.25205 20.2504 7.22658 20.2504 7.16009C20.2504 7.00625 20.1858 6.87861 20.112 6.81217C20.0783 6.78182 20.0422 6.76303 20.0018 6.75374C19.9647 6.74522 19.9045 6.74026 19.8148 6.76234ZM4.60994 5.33133L4.61144 5.33186L4.61885 5.33446C4.62574 5.33686 4.63648 5.34059 4.65095 5.34557C4.67988 5.35552 4.72367 5.37045 4.78117 5.38962C4.89619 5.42799 5.06592 5.48335 5.28118 5.55005C5.71201 5.68354 6.32348 5.86192 7.04231 6.04029C8.48989 6.39947 10.3318 6.74806 12.0004 6.74806C13.669 6.74806 15.4991 6.40108 16.9344 6.04371C17.6472 5.86623 18.2526 5.68874 18.6789 5.55593C18.8919 5.48957 19.0597 5.43451 19.1734 5.39635C19.2302 5.37728 19.2734 5.36245 19.302 5.35256C19.3163 5.34761 19.3269 5.34391 19.3336 5.34152L19.3409 5.33895L19.3424 5.33844C19.3592 5.33245 19.3762 5.32707 19.3934 5.32229C20.0568 5.13801 20.6745 5.3005 21.1153 5.6971C21.5336 6.07351 21.7504 6.62064 21.7504 7.16009C21.7504 7.73011 21.5111 8.16253 21.1443 8.46582C20.8264 8.72869 20.4271 8.87962 20.1318 8.98707L16.0101 10.4817C15.8473 10.5429 15.6529 10.6279 15.4835 10.7329C15.301 10.846 15.217 10.9399 15.1903 10.989C15.189 10.9912 15.1878 10.9935 15.1865 10.9958C15.1354 11.0873 15.0815 11.286 15.0758 11.6296C15.0705 11.9532 15.1083 12.3319 15.1715 12.7285L15.4433 14.0932L17.1945 21.7658C17.1953 21.7694 17.1961 21.773 17.1969 21.7765C17.424 22.8434 16.6801 23.7968 15.6837 23.9718C14.5936 24.1631 13.8008 23.394 13.5407 22.5512L12.0014 17.7999L10.4651 22.5481C10.2024 23.386 9.42505 24.1637 8.32747 23.9719C7.33383 23.7982 6.56792 22.794 6.81417 21.7618L8.56356 14.0965L8.83532 12.7317C8.89952 12.3295 8.94159 11.959 8.94558 11.6344C8.94969 11.2998 8.91221 11.062 8.85132 10.9057L8.85037 10.9032C8.77528 10.7084 8.60692 10.5475 8.21385 10.3968L3.89447 8.99913C3.89238 8.99845 3.89028 8.99776 3.88819 8.99707C3.2968 8.79994 2.31916 8.33878 2.2517 7.20804L2.25166 7.20741C2.17352 5.87902 3.37669 5.00001 4.55299 5.31369C4.57215 5.3188 4.5911 5.32467 4.60979 5.33128C4.60984 5.3313 4.6099 5.33132 4.60994 5.33133Z" fill="#21272A"/>
<path fill-rule="evenodd" clip-rule="evenodd" d="M12 1.5C11.3787 1.5 10.875 2.00368 10.875 2.625C10.875 3.24632 11.3787 3.75 12 3.75C12.6213 3.75 13.125 3.24632 13.125 2.625C13.125 2.00368 12.6213 1.5 12 1.5ZM9.375 2.625C9.375 1.17525 10.5503 0 12 0C13.4497 0 14.625 1.17525 14.625 2.625C14.625 4.07475 13.4497 5.25 12 5.25C10.5503 5.25 9.375 4.07475 9.375 2.625Z" fill="#21272A"/>
</g>
<defs>
<clipPath id="clip0_132_1492">
<rect width="24" height="24" fill="white"/>
</clipPath>
</defs>
</svg>
