<svg width="24" height="24" viewBox="0 0 24 24" fill="none" xmlns="http://www.w3.org/2000/svg">
<path d="M21.95 13.0001C21.449 18.0531 17.185 22.0001 12 22.0001C6.477 22.0001 2 17.5231 2 12.0001C2 6.81507 5.947 2.55107 11 2.05007V4.06207C8.98271 4.31876 7.13885 5.33394 5.84319 6.90129C4.54752 8.46864 3.89728 10.4705 4.02462 12.5001C4.15196 14.5297 5.04733 16.4346 6.52874 17.8277C8.01016 19.2208 9.96645 19.9976 12 20.0001C13.9486 20 15.8302 19.2889 17.2917 18.0001C18.7533 16.7113 19.6942 14.9334 19.938 13.0001H21.951H21.95ZM21.95 11.0001H19.938C19.7154 9.23768 18.9129 7.59941 17.6568 6.34331C16.4007 5.08721 14.7624 4.28466 13 4.06207V2.04907C15.2951 2.28031 17.4398 3.29768 19.0709 4.92889C20.7019 6.56011 21.719 8.70491 21.95 11.0001Z" fill="#001D6C"/>
</svg>
