<svg width="24" height="24" viewBox="0 0 24 24" fill="none" xmlns="http://www.w3.org/2000/svg">
<path d="M20.2501 21.0001C20.1516 21.0003 20.054 20.9809 19.963 20.9432C19.872 20.9054 19.7894 20.8501 19.7199 20.7802L3.21994 4.28025C3.08522 4.13845 3.01123 3.94964 3.01373 3.75407C3.01624 3.5585 3.09504 3.37164 3.23334 3.23334C3.37164 3.09504 3.5585 3.01624 3.75407 3.01373C3.94964 3.01123 4.13845 3.08522 4.28025 3.21994L20.7803 19.7199C20.8851 19.8248 20.9564 19.9584 20.9854 20.1039C21.0143 20.2493 20.9994 20.4001 20.9427 20.5371C20.8859 20.6741 20.7899 20.7912 20.6666 20.8736C20.5433 20.956 20.3984 21 20.2501 21.0001V21.0001Z" fill="#21272A"/>
<path d="M11.984 18.0002C10.0392 18.0002 8.16371 17.4245 6.40965 16.2892C4.81261 15.258 3.37496 13.7809 2.25183 12.0236V12.0198C3.18652 10.6806 4.21027 9.54812 5.30996 8.635C5.31991 8.62668 5.32802 8.61639 5.33379 8.60478C5.33956 8.59317 5.34285 8.58048 5.34347 8.56753C5.34409 8.55458 5.34201 8.54164 5.33737 8.52953C5.33273 8.51742 5.32563 8.50641 5.31652 8.49719L4.38277 7.56484C4.36618 7.54811 4.34389 7.53824 4.32035 7.5372C4.29682 7.53616 4.27375 7.54402 4.25574 7.55922C3.08761 8.54359 2.0034 9.75109 1.01761 11.1648C0.848014 11.4083 0.754608 11.6966 0.749266 11.9932C0.743924 12.2899 0.826888 12.5814 0.987615 12.8308C2.22558 14.7681 3.81886 16.3998 5.59449 17.5487C7.59371 18.8439 9.74527 19.5002 11.984 19.5002C13.1924 19.4964 14.3923 19.2973 15.5371 18.9105C15.5522 18.9053 15.5658 18.8965 15.5765 18.8846C15.5872 18.8728 15.5947 18.8585 15.5983 18.8429C15.602 18.8274 15.6015 18.8112 15.5972 18.7959C15.5928 18.7805 15.5845 18.7666 15.5732 18.7553L14.5617 17.7437C14.5384 17.721 14.5096 17.7048 14.4781 17.6965C14.4466 17.6883 14.4136 17.6884 14.3821 17.6969C13.5987 17.8986 12.793 18.0005 11.984 18.0002V18.0002Z" fill="#21272A"/>
<path d="M23.0081 11.1844C21.7678 9.26625 20.1586 7.63688 18.3548 6.47203C16.3594 5.18203 14.1562 4.5 11.9841 4.5C10.7884 4.50212 9.60172 4.70543 8.47358 5.10141C8.45855 5.10664 8.4451 5.11561 8.4345 5.12747C8.42389 5.13934 8.41648 5.15371 8.41296 5.16923C8.40945 5.18475 8.40994 5.20091 8.41439 5.21619C8.41885 5.23147 8.42712 5.24536 8.43843 5.25656L9.44858 6.26672C9.4721 6.28984 9.5013 6.30634 9.53323 6.31457C9.56516 6.3228 9.5987 6.32246 9.63046 6.31359C10.3978 6.10602 11.1891 6.00058 11.9841 6C13.8914 6 15.7612 6.58266 17.5411 7.73438C19.1681 8.78437 20.6226 10.26 21.7486 12C21.7494 12.0011 21.7499 12.0024 21.7499 12.0037C21.7499 12.0051 21.7494 12.0064 21.7486 12.0075C20.9313 13.2942 19.9171 14.4446 18.743 15.4167C18.7329 15.425 18.7247 15.4353 18.7188 15.4469C18.713 15.4586 18.7096 15.4713 18.7089 15.4843C18.7083 15.4973 18.7103 15.5103 18.715 15.5225C18.7196 15.5347 18.7268 15.5457 18.7359 15.555L19.6687 16.4873C19.6852 16.504 19.7074 16.5139 19.7308 16.515C19.7543 16.5161 19.7773 16.5084 19.7953 16.4934C21.0487 15.4381 22.1337 14.1975 23.0128 12.8147C23.1682 12.571 23.2503 12.2878 23.2495 11.9988C23.2487 11.7098 23.1649 11.4272 23.0081 11.1844V11.1844Z" fill="#21272A"/>
<path d="M12 7.5C11.6629 7.49982 11.3269 7.53756 10.9983 7.6125C10.9817 7.61595 10.9663 7.62383 10.9538 7.63531C10.9414 7.64679 10.9322 7.66144 10.9274 7.6777C10.9226 7.69395 10.9223 7.71121 10.9265 7.72763C10.9308 7.74405 10.9393 7.75901 10.9514 7.77094L16.2291 13.0472C16.241 13.0592 16.2559 13.0678 16.2724 13.0721C16.2888 13.0763 16.306 13.076 16.3223 13.0712C16.3386 13.0663 16.3532 13.0572 16.3647 13.0447C16.3762 13.0323 16.384 13.0169 16.3875 13.0003C16.5378 12.3413 16.5376 11.6568 16.3871 10.9979C16.2365 10.3389 15.9395 9.72228 15.518 9.19385C15.0964 8.66542 14.5613 8.23874 13.9523 7.9455C13.3432 7.65226 12.6759 7.49999 12 7.5V7.5Z" fill="#21272A"/>
<path d="M7.77091 10.9526C7.75899 10.9406 7.74402 10.932 7.7276 10.9278C7.71118 10.9235 7.69392 10.9238 7.67767 10.9287C7.66141 10.9335 7.64676 10.9426 7.63528 10.9551C7.6238 10.9675 7.61592 10.9829 7.61247 10.9995C7.44248 11.7422 7.46382 12.5158 7.67451 13.248C7.88519 13.9801 8.27832 14.6468 8.81704 15.1855C9.35577 15.7243 10.0224 16.1174 10.7546 16.3281C11.4868 16.5388 12.2604 16.5601 13.0031 16.3901C13.0197 16.3867 13.035 16.3788 13.0475 16.3673C13.06 16.3558 13.0691 16.3412 13.0739 16.3249C13.0787 16.3087 13.0791 16.2914 13.0748 16.275C13.0706 16.2586 13.062 16.2436 13.05 16.2317L7.77091 10.9526Z" fill="#21272A"/>
</svg>
