<svg width="24" height="25" viewBox="0 0 24 25" fill="none" xmlns="http://www.w3.org/2000/svg">
<path d="M12.0709 13.8139L17.0209 8.86388C17.1131 8.76837 17.2235 8.69219 17.3455 8.63978C17.4675 8.58737 17.5987 8.55979 17.7315 8.55863C17.8643 8.55748 17.996 8.58278 18.1189 8.63306C18.2417 8.68334 18.3534 8.75759 18.4473 8.85149C18.5412 8.94538 18.6154 9.05703 18.6657 9.17993C18.716 9.30282 18.7413 9.4345 18.7402 9.56728C18.739 9.70006 18.7114 9.83128 18.659 9.95329C18.6066 10.0753 18.5304 10.1856 18.4349 10.2779L12.7779 15.9349C12.5904 16.1224 12.3361 16.2277 12.0709 16.2277C11.8057 16.2277 11.5514 16.1224 11.3639 15.9349L5.7069 10.2779C5.61139 10.1856 5.53521 10.0753 5.4828 9.95329C5.43039 9.83128 5.4028 9.70006 5.40165 9.56728C5.4005 9.4345 5.4258 9.30282 5.47608 9.17993C5.52636 9.05703 5.60061 8.94538 5.6945 8.85149C5.7884 8.75759 5.90005 8.68334 6.02295 8.63306C6.14584 8.58278 6.27752 8.55748 6.4103 8.55863C6.54308 8.55979 6.6743 8.58737 6.7963 8.63978C6.91831 8.69219 7.02865 8.76837 7.1209 8.86388L12.0709 13.8139Z" fill="#0F62FE"/>
</svg>
